<svg width="136" height="95" viewBox="0 0 136 95" fill="none" xmlns="http://www.w3.org/2000/svg">
<path d="M95.6252 0C98.2329 0.225118 100.838 0.450237 103.446 0.643839C105.203 0.776659 106.963 0.89372 108.722 0.965758C109.456 0.995024 109.847 1.25616 110.093 1.98329C110.644 3.6109 111.301 5.20024 111.958 6.91789L113.51 6.32583L112.883 4.45284L115.292 3.46682L131.767 45.8904L129.35 46.8809L127.908 43.3646L126.05 44.0714L129.044 52.0024C127.067 52.3536 127.231 54.0127 126.9 55.3791C126.65 56.3989 126.513 57.4502 126.205 58.4498C125.53 60.6357 125.381 62.754 126.56 64.8386C126.743 65.1605 126.718 65.6445 126.673 66.0408C126.299 69.2825 125.944 72.5264 125.46 75.7524C125.379 76.2882 124.697 76.7316 124.295 77.2179C123.845 76.7677 123.113 76.3917 123.012 75.8807C122.364 72.5692 121.763 69.2419 121.358 65.8967C121.241 64.9354 121.869 63.8999 122.067 62.8801C122.211 62.2773 122.231 61.6516 122.126 61.0409C121.718 59.2624 121.203 57.5088 120.713 55.6763L119.237 56.1941C119.075 55.8767 118.899 55.5615 118.751 55.2373C117.781 53.1257 116.791 51.0209 115.864 48.889C115.574 48.2136 115.227 47.93 114.462 47.8985C112.41 47.8084 110.464 47.3064 108.774 46.048C105.086 43.3015 104.472 39.5578 105.399 35.3819C105.748 33.8173 106.4 32.3225 106.848 30.7759C106.981 30.3257 107.046 29.7269 106.866 29.3149C105.741 26.7013 104.499 24.1372 103.354 21.5213C103.075 20.8865 102.749 20.81 102.146 20.9698C95.1549 22.827 88.1574 24.655 81.1734 26.5325C80.7293 26.6783 80.3539 26.9818 80.1181 27.3857C74.5201 37.6571 68.9447 47.942 63.3917 58.2404C63.1472 58.7381 63.0238 59.2865 63.0317 59.841C63.0069 65.7684 63.0182 71.6957 63.0182 77.6254C63.0182 78.0756 63.0182 78.5056 63.0182 79.0211H6.23716V74.3499H0.753906V57.6911H6.16516V50.5391H8.94616V43.8463L10.5617 43.6572V28.7364H12.1209C12.1389 29.1236 12.1794 29.5536 12.1794 29.9813C12.1794 34.2203 12.1929 38.4592 12.1794 42.6982C12.1794 43.4906 12.3257 43.9499 13.3607 43.5852V33.9051H14.9357V43.673L17.3072 43.7901V50.3838H18.9002V45.7756H29.9972V37.7749C31.8534 37.8964 33.5567 38 35.2577 38.1193C39.7824 38.4547 44.3072 38.7744 48.8252 39.1661C49.7117 39.2427 50.1752 38.941 50.6252 38.2341C56.4752 29.3795 62.3477 20.5398 68.2427 11.7152C68.4879 11.346 68.7422 10.9813 69.0504 10.5243L71.0867 11.875L69.6039 14.2252L71.2194 15.4274C71.7774 14.6575 72.3444 13.9709 72.7944 13.2167C73.1724 12.5909 73.6539 12.4063 74.3559 12.3658C81.9159 11.9155 89.4752 11.4525 97.0337 10.9768C97.4387 10.952 97.8414 10.8867 98.4197 10.8192L93.6002 0H95.6252ZM55.0104 54.0825V42.257L42.0572 41.298V54.7713L42.3249 54.9784C42.5679 54.7286 42.9122 54.5282 43.0337 54.2198C43.4364 53.2135 43.6569 52.1262 44.1429 51.1672C44.499 50.5212 45.016 49.9784 45.6437 49.5914C46.4064 49.1141 47.1939 49.3235 47.8937 49.9515C49.5992 51.4643 51.3789 52.7318 53.7302 51.0996C53.8292 51.0321 54.1397 51.2707 54.4434 51.4081L52.4837 54.3639C52.1169 53.9384 51.9144 53.4814 51.5837 53.3733C50.4002 52.9749 49.1784 52.698 47.8644 52.3355L47.0949 54.8118H54.8484L53.3859 53.6142L53.5817 53.3621L55.0104 54.0825ZM112.865 9.32891L125.147 41.7077L127.004 40.9333L114.487 8.69182L112.865 9.32891ZM52.9382 39.2854C53.8652 39.7199 54.3804 39.4475 54.8957 38.7091C58.7207 33.2117 62.5974 27.7414 66.4539 22.262C67.5497 20.7109 68.6409 19.1351 69.7906 17.5052L68.1482 16.3796L52.9382 39.2854ZM107.685 31.0123C106.441 34.0874 105.559 36.9329 105.955 40.0171C106.488 44.1772 110.741 47.5 114.845 46.9957C114.855 46.921 114.855 46.8453 114.845 46.7706C114.633 45.8476 113.992 45.3546 113.175 44.9494C111.737 44.2335 110.25 43.5537 108.952 42.6352C106.819 41.1336 107.026 39.4835 109.366 38.2949C109.787 38.0698 110.219 37.8897 110.716 37.6601L107.685 31.0123ZM104.162 14.3108C104.167 15.0932 104.404 15.8564 104.844 16.5035C105.283 17.1506 105.905 17.6524 106.63 17.9451C107.355 18.2379 108.151 18.3083 108.916 18.1475C109.682 17.9867 110.382 17.6019 110.928 17.0421C111.474 16.4822 111.842 15.7725 111.984 15.0032C112.127 14.2338 112.037 13.4395 111.727 12.7212C111.417 12.0029 110.901 11.393 110.244 10.9689C109.586 10.5449 108.818 10.3259 108.036 10.3397C106.999 10.3604 106.011 10.7884 105.286 11.5313C104.561 12.2742 104.157 13.2725 104.162 14.3108V14.3108ZM111.038 38.3512C110.169 38.8442 109.377 39.1504 108.788 39.6884C108.504 39.9518 108.374 40.8275 108.59 41.1111C109.818 42.732 111.688 43.3511 113.58 43.9409L111.038 38.3512ZM124.875 49.5823C124.871 48.8798 124.589 48.2073 124.091 47.7118C123.594 47.2162 122.92 46.9378 122.218 46.9372C121.861 46.9354 121.507 47.0046 121.176 47.1406C120.846 47.2767 120.546 47.477 120.294 47.73C120.041 47.9829 119.841 48.2835 119.706 48.6142C119.571 48.9449 119.502 49.2992 119.504 49.6566C119.516 50.3575 119.803 51.0257 120.302 51.5171C120.802 52.0085 121.475 52.2839 122.175 52.2838C122.532 52.2937 122.888 52.2306 123.22 52.0984C123.552 51.9661 123.854 51.7675 124.106 51.5147C124.359 51.2618 124.558 50.96 124.69 50.6278C124.822 50.2955 124.885 49.9398 124.875 49.5823V49.5823Z" fill="url(#paint0_linear_26_374)"/>
<path d="M0 86.6706C0.213769 85.9979 0.467726 85.3386 0.7605 84.6963C2.15775 82.0264 4.39425 80.6847 7.407 80.678C12.132 80.6667 16.857 80.678 21.582 80.678C34.968 80.678 48.354 80.678 61.74 80.678C64.89 80.678 67.2458 82.1007 68.5103 85.007C69.696 87.7287 69.2055 90.2883 67.32 92.5755C66.249 93.8744 64.746 94.4575 63.225 95H5.85C4.068 94.3854 2.376 93.5998 1.35 91.9294C0.81 91.0604 0.45 90.0789 0 89.1469V86.6706ZM49.9793 91.7538C50.7801 91.7752 51.5694 91.5599 52.2486 91.1349C52.9278 90.7099 53.4667 90.0941 53.798 89.3643C54.1292 88.6345 54.2382 87.8233 54.1111 87.0319C53.9841 86.2405 53.6268 85.5042 53.0838 84.9149C52.5408 84.3256 51.8362 83.9096 51.0582 83.7187C50.2801 83.5279 49.4631 83.5707 48.7093 83.8419C47.9554 84.1131 47.2982 84.6006 46.8198 85.2434C46.3413 85.8863 46.0629 86.656 46.0193 87.4563C45.9915 88 46.0724 88.5438 46.2574 89.0557C46.4423 89.5677 46.7276 90.0376 47.0964 90.4379C47.4652 90.8381 47.9102 91.1607 48.4052 91.3866C48.9003 91.6126 49.4354 91.7374 49.9793 91.7538ZM23.4405 87.7534C23.453 87.2185 23.3595 86.6863 23.1654 86.1877C22.9713 85.6891 22.6804 85.2339 22.3095 84.8484C21.9386 84.4628 21.4951 84.1546 21.0045 83.9415C20.5139 83.7284 19.986 83.6146 19.4513 83.6068C18.6443 83.5895 17.8504 83.8123 17.17 84.2469C16.4897 84.6815 15.9537 85.3083 15.6298 86.048C15.3058 86.7877 15.2087 87.607 15.3505 88.402C15.4924 89.197 15.867 89.932 16.4267 90.5138C16.9865 91.0956 17.7062 91.4981 18.4948 91.6703C19.2834 91.8425 20.1053 91.7766 20.8565 91.481C21.6076 91.1854 22.2541 90.6734 22.7141 90.0098C23.1742 89.3462 23.427 88.5609 23.4405 87.7534V87.7534ZM43.9155 87.7534C43.9279 86.9489 43.7015 86.1588 43.265 85.483C42.8286 84.8072 42.2016 84.2761 41.4634 83.9569C40.7253 83.6376 39.909 83.5446 39.118 83.6895C38.327 83.8344 37.5966 84.2108 37.0194 84.771C36.4422 85.3312 36.0439 86.0501 35.8751 86.8368C35.7063 87.6235 35.7744 88.4426 36.0708 89.1905C36.3673 89.9384 36.8788 90.5816 37.5406 91.0387C38.2025 91.4958 38.9849 91.7462 39.789 91.7583C40.8664 91.7721 41.9053 91.3578 42.6776 90.6061C43.45 89.8544 43.8927 88.8269 43.9087 87.7489L43.9155 87.7534ZM64.3905 87.6116C64.3752 86.8059 64.1215 86.0229 63.6615 85.3614C63.2015 84.7 62.5557 84.1899 61.8059 83.8956C61.0562 83.6014 60.236 83.5361 59.4492 83.7082C58.6624 83.8803 57.9442 84.2819 57.3855 84.8623C56.8268 85.4427 56.4526 86.1758 56.3103 86.969C56.168 87.7621 56.264 88.5797 56.586 89.3183C56.9081 90.0569 57.4418 90.6833 58.1197 91.1184C58.7976 91.5536 59.5892 91.7778 60.3945 91.7628C61.4735 91.7386 62.4991 91.2882 63.2473 90.51C63.9956 89.7318 64.4058 88.6891 64.3883 87.6094L64.3905 87.6116ZM5.07825 87.7377C5.08904 88.5457 5.3392 89.3324 5.79707 89.9981C6.25494 90.6638 6.89992 91.1787 7.65038 91.4774C8.40083 91.7762 9.22302 91.8455 10.0128 91.6765C10.8027 91.5075 11.5246 91.1079 12.0873 90.5282C12.6501 89.9485 13.0282 89.2147 13.1739 88.4199C13.3196 87.625 13.2264 86.8048 12.9059 86.063C12.5855 85.3212 12.0523 84.6912 11.3738 84.2528C10.6953 83.8143 9.90208 83.5872 9.0945 83.6C8.01472 83.619 6.98624 84.0644 6.23342 84.8391C5.48061 85.6138 5.06455 86.655 5.076 87.7354L5.07825 87.7377ZM33.7005 87.7917C33.7254 87.2512 33.6425 86.7111 33.4564 86.203C33.2703 85.6949 32.9849 85.229 32.6169 84.8325C32.2488 84.436 31.8054 84.1169 31.3127 83.8938C30.82 83.6707 30.2877 83.5481 29.7471 83.5331C29.2065 83.5182 28.6683 83.6111 28.164 83.8067C27.6597 84.0022 27.1994 84.2963 26.8099 84.6718C26.4205 85.0473 26.1098 85.4967 25.896 85.9938C25.6822 86.4908 25.5695 87.0255 25.5645 87.5666C25.5465 88.1018 25.6347 88.6352 25.824 89.136C26.0133 89.6369 26.2999 90.0952 26.6673 90.4846C27.0347 90.8739 27.4755 91.1866 27.9644 91.4044C28.4533 91.6223 28.9805 91.741 29.5155 91.7538C30.5929 91.7775 31.6362 91.3754 32.4192 90.6345C33.2022 89.8936 33.6618 88.8738 33.6983 87.7962L33.7005 87.7917Z" fill="url(#paint1_linear_26_374)"/>
<path d="M135 69.7868C134.55 71.6657 134.1 73.5417 133.65 75.4147C133.53 75.9167 133.425 76.421 133.312 76.9433C131.553 76.0653 131.13 75.3067 131.377 73.5665C131.393 73.3051 131.434 73.0458 131.499 72.7921C132.147 70.9236 131.782 69.341 130.097 68.2334C129.366 67.7539 128.499 67.4815 127.685 67.1078L127.149 63.0332C128.598 63.2583 130.169 63.4564 131.724 63.7468C131.969 63.7919 132.174 64.1971 132.347 64.4785C133.247 65.9395 134.118 67.405 135.002 68.8795L135 69.7868Z" fill="url(#paint2_linear_26_374)"/>
<path d="M115.18 77.3552C114.543 74.8947 113.895 72.4386 113.29 69.9713C113.249 69.6451 113.309 69.3142 113.463 69.0236C113.771 68.3482 114.282 67.7246 114.46 67.02C115.328 63.587 118.118 63.5329 120.733 63.2515L120.375 67.5355C118.676 67.2721 117.785 68.6499 116.84 69.8768C116.561 70.2818 116.431 70.771 116.471 71.2612C116.56 72.193 116.744 73.1133 117.02 74.0077C117.351 75.0702 117.157 75.8762 116.264 76.5583C115.949 76.7992 115.749 77.1864 115.495 77.506L115.18 77.3552Z" fill="url(#paint3_linear_26_374)"/>
<path d="M49.275 44.6095C49.9139 44.6246 50.5217 44.8882 50.9695 45.3443C51.4173 45.8004 51.6699 46.4131 51.6737 47.0524C51.6775 47.6918 51.4322 48.3074 50.9899 48.7688C50.5475 49.2302 49.9429 49.501 49.3043 49.5238C48.9757 49.5355 48.6481 49.4811 48.3409 49.3639C48.0337 49.2466 47.7532 49.0688 47.5159 48.8411C47.2786 48.6134 47.0894 48.3403 46.9596 48.0381C46.8297 47.7359 46.7618 47.4107 46.7598 47.0817C46.7579 46.7527 46.8219 46.4267 46.9482 46.123C47.0744 45.8192 47.2604 45.544 47.4949 45.3134C47.7294 45.0829 48.0079 44.9018 48.3136 44.7809C48.6194 44.6599 48.9463 44.6017 49.275 44.6095V44.6095Z" fill="url(#paint4_linear_26_374)"/>
<path d="M105.525 14.2883C105.541 13.6184 105.817 12.9809 106.294 12.5113C106.772 12.0417 107.414 11.7769 108.084 11.7731C108.754 11.7692 109.398 12.0268 109.881 12.4909C110.364 12.9551 110.648 13.5893 110.671 14.259C110.683 14.6033 110.626 14.9465 110.503 15.2682C110.38 15.59 110.193 15.8838 109.955 16.1323C109.716 16.3807 109.43 16.5788 109.114 16.7147C108.798 16.8507 108.457 16.9217 108.113 16.9237C107.769 16.9256 107.428 16.8585 107.11 16.7261C106.792 16.5938 106.504 16.399 106.262 16.1533C106.021 15.9075 105.831 15.6159 105.705 15.2955C105.578 14.9752 105.517 14.6327 105.525 14.2883Z" fill="url(#paint5_linear_26_374)"/>
<path d="M123.955 49.6139C123.957 49.848 123.911 50.08 123.82 50.2958C123.73 50.5116 123.596 50.7067 123.428 50.8692C123.26 51.0318 123.06 51.1584 122.841 51.2413C122.622 51.3243 122.389 51.3619 122.155 51.3518C121.816 51.3386 121.488 51.2259 121.212 51.0277C120.936 50.8296 120.725 50.5547 120.604 50.2373C120.483 49.9199 120.458 49.5739 120.532 49.2424C120.606 48.9108 120.775 48.6083 121.02 48.3724C121.264 48.1365 121.572 47.9776 121.906 47.9155C122.24 47.8534 122.585 47.8908 122.897 48.0231C123.21 48.1553 123.477 48.3766 123.665 48.6595C123.853 48.9423 123.954 49.2742 123.955 49.6139V49.6139Z" fill="url(#paint6_linear_26_374)"/>
<path d="M52.0067 87.6318C52.0163 87.8847 51.9754 88.137 51.8862 88.3738C51.7971 88.6106 51.6616 88.8272 51.4876 89.0109C51.3136 89.1946 51.1048 89.3417 50.8732 89.4435C50.6417 89.5454 50.3921 89.5999 50.1392 89.6039C49.758 89.6154 49.3819 89.5133 49.0586 89.3107C48.7354 89.108 48.4796 88.8139 48.3236 88.4657C48.1677 88.1174 48.1186 87.7306 48.1826 87.3544C48.2466 86.9781 48.4208 86.6294 48.6832 86.3524C48.9455 86.0753 49.2842 85.8825 49.6562 85.7982C50.0283 85.714 50.4169 85.7422 50.7729 85.8793C51.1289 86.0163 51.4362 86.256 51.6559 86.5681C51.8755 86.8801 51.9976 87.2503 52.0067 87.6318Z" fill="url(#paint7_linear_26_374)"/>
<path d="M21.3191 87.7354C21.2986 88.2454 21.0781 88.7267 20.7054 89.0752C20.3327 89.4237 19.8378 89.6112 19.3279 89.5972C19.0755 89.5896 18.8272 89.5324 18.5969 89.4288C18.3667 89.3253 18.1591 89.1773 17.986 88.9935C17.8129 88.8096 17.6777 88.5935 17.5881 88.3573C17.4985 88.1212 17.4562 87.8697 17.4637 87.6172C17.4713 87.3648 17.5284 87.1163 17.632 86.8859C17.7355 86.6555 17.8834 86.4478 18.0671 86.2746C18.2509 86.1014 18.4669 85.9662 18.7029 85.8765C18.9389 85.7869 19.1903 85.7446 19.4426 85.7521C19.9531 85.7698 20.4361 85.9877 20.7873 86.3589C21.1384 86.73 21.3295 87.2245 21.3191 87.7354V87.7354Z" fill="url(#paint8_linear_26_374)"/>
<path d="M41.7895 87.7107C41.7748 88.22 41.5606 88.7032 41.1932 89.0561C40.8258 89.4089 40.3345 89.6033 39.8253 89.5971C39.5725 89.5942 39.3227 89.5412 39.0905 89.4413C38.8583 89.3413 38.6481 89.1963 38.4722 89.0146C38.2963 88.8329 38.1581 88.6182 38.0655 88.3828C37.973 88.1474 37.9279 87.896 37.933 87.6431C37.9414 87.1314 38.1525 86.644 38.52 86.2882C38.702 86.1119 38.9169 85.9733 39.1524 85.8802C39.388 85.787 39.6395 85.7412 39.8928 85.7454C40.146 85.7495 40.3959 85.8035 40.6283 85.9043C40.8606 86.0051 41.0709 86.1506 41.247 86.3327C41.4231 86.5148 41.5617 86.7298 41.6548 86.9655C41.7479 87.2011 41.7936 87.4528 41.7895 87.7062V87.7107Z" fill="url(#paint9_linear_26_374)"/>
<path d="M60.3181 85.7499C60.8278 85.7562 61.3151 85.9605 61.677 86.3197C62.0389 86.6789 62.2471 87.1647 62.2576 87.6746C62.2558 88.1858 62.0521 88.6754 61.6908 89.0369C61.3296 89.3983 60.8402 89.6021 60.3293 89.6039C59.8185 89.6039 59.3286 89.4009 58.9674 89.0395C58.6062 88.6781 58.4033 88.188 58.4033 87.6769C58.4033 87.1658 58.6062 86.6757 58.9674 86.3143C59.3286 85.9529 59.8185 85.7499 60.3293 85.7499H60.3181Z" fill="url(#paint10_linear_26_374)"/>
<path d="M11.0612 87.6927C11.0612 87.9445 11.0113 88.1938 10.9144 88.4262C10.8175 88.6586 10.6754 88.8694 10.4965 89.0466C10.3176 89.2237 10.1054 89.3635 9.87209 89.4581C9.63881 89.5526 9.38911 89.5998 9.13744 89.5972C8.87056 89.6213 8.60159 89.5893 8.3478 89.5033C8.09401 89.4172 7.86101 89.279 7.66378 89.0975C7.46654 88.9161 7.30942 88.6953 7.20251 88.4495C7.09561 88.2036 7.04128 87.9381 7.04301 87.67C7.04474 87.4019 7.1025 87.1371 7.21258 86.8927C7.32266 86.6483 7.48262 86.4296 7.68219 86.2507C7.88175 86.0717 8.11652 85.9366 8.3714 85.8538C8.62628 85.7711 8.89564 85.7426 9.16219 85.7702C9.41407 85.768 9.66383 85.8164 9.89668 85.9125C10.1295 86.0087 10.3407 86.1506 10.5178 86.3298C10.6949 86.5091 10.8342 86.7221 10.9275 86.9562C11.0209 87.1902 11.0663 87.4407 11.0612 87.6927Z" fill="url(#paint11_linear_26_374)"/>
<path d="M31.5432 87.6544C31.5485 88.0356 31.4407 88.4099 31.2333 88.7298C31.0259 89.0497 30.7284 89.3009 30.3782 89.4515C30.0281 89.6022 29.6412 89.6455 29.2665 89.576C28.8918 89.5065 28.5461 89.3274 28.2732 89.0613C28.0002 88.7951 27.8123 88.454 27.7333 88.081C27.6542 87.708 27.6876 87.3199 27.8291 86.9658C27.9706 86.6118 28.2139 86.3077 28.5282 86.092C28.8425 85.8764 29.2136 85.7589 29.5947 85.7544C29.8474 85.7511 30.0982 85.7977 30.3328 85.8914C30.5675 85.9851 30.7814 86.1241 30.9623 86.3006C31.1433 86.477 31.2877 86.6874 31.3874 86.9197C31.487 87.1519 31.54 87.4016 31.5432 87.6544Z" fill="url(#paint12_linear_26_374)"/>
<defs>
<linearGradient id="paint0_linear_26_374" x1="127.4" y1="-12.0627" x2="18.1916" y2="102.156" gradientUnits="userSpaceOnUse">
<stop offset="0.145833" stop-color="#4E9CFB"/>
<stop offset="0.458333" stop-color="#DA7FDC"/>
<stop offset="0.723958" stop-color="#989AFA"/>
</linearGradient>
<linearGradient id="paint1_linear_26_374" x1="66.8473" y1="78.4859" x2="55.0959" y2="114.267" gradientUnits="userSpaceOnUse">
<stop offset="0.145833" stop-color="#4E9CFB"/>
<stop offset="0.458333" stop-color="#DA7FDC"/>
<stop offset="0.723958" stop-color="#989AFA"/>
</linearGradient>
<linearGradient id="paint2_linear_26_374" x1="134.74" y1="60.9098" x2="122.577" y2="65.2412" gradientUnits="userSpaceOnUse">
<stop offset="0.145833" stop-color="#4E9CFB"/>
<stop offset="0.458333" stop-color="#DA7FDC"/>
<stop offset="0.723958" stop-color="#989AFA"/>
</linearGradient>
<linearGradient id="paint3_linear_26_374" x1="120.484" y1="61.0756" x2="108.749" y2="64.9473" gradientUnits="userSpaceOnUse">
<stop offset="0.145833" stop-color="#4E9CFB"/>
<stop offset="0.458333" stop-color="#DA7FDC"/>
<stop offset="0.723958" stop-color="#989AFA"/>
</linearGradient>
<linearGradient id="paint4_linear_26_374" x1="51.51" y1="43.8582" x2="45.3728" y2="47.7276" gradientUnits="userSpaceOnUse">
<stop offset="0.145833" stop-color="#4E9CFB"/>
<stop offset="0.458333" stop-color="#DA7FDC"/>
<stop offset="0.723958" stop-color="#989AFA"/>
</linearGradient>
<linearGradient id="paint5_linear_26_374" x1="110.501" y1="10.9867" x2="104.071" y2="15.0404" gradientUnits="userSpaceOnUse">
<stop offset="0.145833" stop-color="#4E9CFB"/>
<stop offset="0.458333" stop-color="#DA7FDC"/>
<stop offset="0.723958" stop-color="#989AFA"/>
</linearGradient>
<linearGradient id="paint6_linear_26_374" x1="123.84" y1="47.357" x2="119.512" y2="50.0854" gradientUnits="userSpaceOnUse">
<stop offset="0.145833" stop-color="#4E9CFB"/>
<stop offset="0.458333" stop-color="#DA7FDC"/>
<stop offset="0.723958" stop-color="#989AFA"/>
</linearGradient>
<linearGradient id="paint7_linear_26_374" x1="51.8797" y1="85.1624" x2="47.0684" y2="88.1965" gradientUnits="userSpaceOnUse">
<stop offset="0.145833" stop-color="#4E9CFB"/>
<stop offset="0.458333" stop-color="#DA7FDC"/>
<stop offset="0.723958" stop-color="#989AFA"/>
</linearGradient>
<linearGradient id="paint8_linear_26_374" x1="21.191" y1="85.1641" x2="16.383" y2="88.205" gradientUnits="userSpaceOnUse">
<stop offset="0.145833" stop-color="#4E9CFB"/>
<stop offset="0.458333" stop-color="#DA7FDC"/>
<stop offset="0.723958" stop-color="#989AFA"/>
</linearGradient>
<linearGradient id="paint9_linear_26_374" x1="41.6612" y1="85.1571" x2="36.849" y2="88.1967" gradientUnits="userSpaceOnUse">
<stop offset="0.145833" stop-color="#4E9CFB"/>
<stop offset="0.458333" stop-color="#DA7FDC"/>
<stop offset="0.723958" stop-color="#989AFA"/>
</linearGradient>
<linearGradient id="paint10_linear_26_374" x1="62.1291" y1="85.1616" x2="57.3171" y2="88.1973" gradientUnits="userSpaceOnUse">
<stop offset="0.145833" stop-color="#4E9CFB"/>
<stop offset="0.458333" stop-color="#DA7FDC"/>
<stop offset="0.723958" stop-color="#989AFA"/>
</linearGradient>
<linearGradient id="paint11_linear_26_374" x1="10.9276" y1="85.173" x2="6.03876" y2="88.3962" gradientUnits="userSpaceOnUse">
<stop offset="0.145833" stop-color="#4E9CFB"/>
<stop offset="0.458333" stop-color="#DA7FDC"/>
<stop offset="0.723958" stop-color="#989AFA"/>
</linearGradient>
<linearGradient id="paint12_linear_26_374" x1="31.415" y1="85.1659" x2="26.6042" y2="88.199" gradientUnits="userSpaceOnUse">
<stop offset="0.145833" stop-color="#4E9CFB"/>
<stop offset="0.458333" stop-color="#DA7FDC"/>
<stop offset="0.723958" stop-color="#989AFA"/>
</linearGradient>
</defs>
</svg>
