<svg width="102" height="103" viewBox="0 0 102 103" fill="none" xmlns="http://www.w3.org/2000/svg">
<path d="M101.902 24.3223L100.881 27.3147L91.4383 24.0862C91.6148 24.5846 91.711 24.9135 91.8393 25.2243C93.3951 28.9027 95.1254 32.5186 96.4366 36.2838C97.038 37.9889 98.0926 38.679 99.4981 39.2944C100.316 39.6536 101.102 40.0733 102 40.5051L100.625 43.3865L31.746 10.23C31.7179 10.69 31.6819 11.0088 31.6819 11.3276C31.6819 18.1539 31.6678 24.9781 31.7019 31.8043C31.7161 32.3572 31.9027 32.8915 32.2352 33.3318C34.1827 35.7666 36.1715 38.1678 38.2018 40.5354C38.5186 40.9046 39.1281 41.0237 39.6053 41.2355C39.7368 41.266 39.8728 41.2714 40.0063 41.2517C44.385 41.294 46.1553 43.1343 45.9228 47.521C45.8807 48.3039 46.1393 48.7317 46.7007 49.2018C49.3933 51.4638 52.0438 53.7762 54.7203 56.0624C54.8927 56.2097 55.0772 56.3428 55.4641 56.6455C55.4641 55.9029 55.4882 55.3541 55.4641 54.8053C55.4401 54.2564 55.6265 53.9981 56.204 54.0284C56.9658 54.0607 57.7317 54.0284 58.6279 54.0284V57.1136L60.2318 57.3154C60.2318 57.7008 60.2318 58.06 60.2318 58.4212C60.2318 67.7353 60.2178 77.0495 60.2519 86.3617C60.2519 87.306 60.0394 87.6168 59.0489 87.6147C39.7323 87.5852 20.4216 87.5804 1.11694 87.6006H0.0302734V57.3033L1.51792 57.1177C1.51792 56.2803 1.4698 55.4772 1.54799 54.6963C1.59109 54.5487 1.67044 54.4144 1.77871 54.3058C1.88699 54.1971 2.0207 54.1177 2.16751 54.0748C2.95544 53.9961 3.75741 54.0446 4.67566 54.0446V56.6213C5.08867 56.3247 5.33127 56.1774 5.54178 55.9958C8.18225 53.7237 10.8027 51.4275 13.4672 49.1837C14.0426 48.6994 14.3053 48.201 14.2251 47.4625C14.1937 46.9922 14.1937 46.5203 14.2251 46.05C14.2932 43.3421 16.24 41.1609 18.9065 41.3142C20.9115 41.4292 22.0883 40.6383 23.2011 39.137C24.6787 37.1454 26.3588 35.3032 27.8946 33.3621C28.2322 32.9261 28.4263 32.3949 28.4499 31.8427C28.486 24.4454 28.462 17.0481 28.49 9.64682C28.49 8.90023 28.3176 8.42201 27.5778 8.23435C25.7132 7.74201 25.226 6.57168 25.228 4.63459C25.228 2.63898 25.7032 1.55542 27.5978 0.689785C29.31 -0.0951409 30.6754 -0.236387 32.4698 0.401239C43.18 4.16848 53.9324 7.8086 64.6767 11.4992C68.9713 12.9762 73.2517 14.4956 77.5483 15.9706C83.2663 17.9319 88.9943 19.8589 94.7143 21.8222C97.0741 22.6213 99.4239 23.4567 101.902 24.3223ZM3.182 84.3419H56.9739V60.5015H3.182V84.3419ZM50.8288 57.1439C50.7546 56.9946 50.7346 56.8876 50.6704 56.8332C48.4991 54.9405 46.3338 53.0437 44.1404 51.1833C43.8523 50.962 43.5003 50.8416 43.1379 50.8403C35.5574 50.808 27.9768 50.8221 20.3982 50.7797C16.5107 50.7575 16.5127 50.7152 13.5514 53.304C12.148 54.5329 10.7445 55.7516 9.12857 57.1479L50.8288 57.1439ZM42.6307 47.6178C43.0998 45.2469 42.4763 44.4479 40.2248 44.4479H19.8849C17.6936 44.4479 16.9959 45.3418 17.479 47.6158L42.6307 47.6178ZM78.1918 29.0379L93.0022 36.1628L87.9618 24.2759L78.1918 29.0379ZM49.0785 9.79815L49.0945 9.57821C48.8179 9.47328 48.5452 9.3623 48.2665 9.26747C42.5886 7.31827 36.9026 5.38925 31.2388 3.3997C30.4709 3.12931 29.8193 3.0607 29.2058 3.57726C28.9131 3.82343 28.5522 4.20682 28.5542 4.52361C28.5562 4.84041 28.9171 5.27423 29.2318 5.42961C32.6442 7.11245 36.0887 8.72871 39.497 10.4095C40.6037 10.9544 41.5701 11.3438 42.9234 10.9362C44.9103 10.3389 47.0235 10.1573 49.0785 9.79815ZM85.3173 21.9917L72.3034 17.5082L76.2571 26.4087L85.3173 21.9917ZM72.4438 26.2675L72.6162 26.0657L68.8971 17.6898L61.0178 20.7609L72.4438 26.2675ZM54.3755 11.3599L58.3191 18.3597L66.016 15.3612L54.3755 11.3599ZM34.5529 41.1932L30.0739 35.7935L25.617 41.1932H34.5529ZM53.7439 17.2519L53.9023 17.0764C53.1485 15.7164 52.4067 14.3523 51.6287 13.0085C51.5589 12.9246 51.4704 12.8585 51.3704 12.8153C51.2705 12.7722 51.1619 12.7534 51.0533 12.7603C49.4935 12.9944 47.9397 13.2647 46.0912 13.5674L53.7439 17.2519Z" fill="url(#paint0_linear_26_403)"/>
<path d="M0 90.7867H79.2242V66.8939C79.6432 66.8677 79.9339 66.8334 80.2266 66.8314C84.2365 66.8314 88.2463 66.8314 92.2561 66.8314C95.7086 66.8314 97.924 68.4073 98.8944 71.777C99.6783 74.497 100.19 77.2977 100.99 80.0137C101.944 83.2422 101.378 86.5271 101.477 89.7839C101.575 92.974 101.477 96.1702 101.495 99.3624C101.495 100.131 101.294 100.426 100.48 100.406C98.3791 100.349 96.27 100.365 94.1728 100.406C93.7503 100.43 93.3432 100.573 92.9979 100.819C90.8106 102.367 88.3766 102.373 86.1812 100.847C85.7779 100.574 85.306 100.421 84.8199 100.406C80.385 100.371 75.9481 100.436 71.5133 100.343C70.4955 100.288 69.4879 100.572 68.6463 101.15C66.6895 102.448 64.2074 102.25 62.3649 100.819C61.4784 100.121 60.8232 99.1687 60.486 98.0879C60.1488 97.007 60.1454 95.8487 60.4762 94.7658C60.5324 94.5741 60.5805 94.3824 60.6767 94.0192C59.8748 94.0192 59.1209 93.9769 58.3831 94.0455C58.1606 94.0657 57.9059 94.3643 57.7816 94.5984C57.4167 95.238 57.102 95.9079 56.7792 96.5738C55.5421 99.1263 53.5091 100.393 50.6963 100.396C44.7176 100.396 38.741 100.381 32.7623 100.422C32.1156 100.441 31.4863 100.637 30.9418 100.989C28.8688 102.347 26.4348 102.369 24.3838 100.856C23.8845 100.486 23.5597 100.47 23.0846 100.819C20.8291 102.474 18.5775 102.278 16.308 100.807C16.1541 100.73 15.9846 100.69 15.8128 100.69C15.6409 100.69 15.4714 100.73 15.3175 100.807C12.8756 102.421 10.6842 102.409 8.34044 100.765C7.98034 100.536 7.56334 100.414 7.13749 100.414C5.13258 100.379 3.12767 100.398 1.12275 100.398H0V90.7867ZM82.5664 70.0356C82.5156 70.2657 82.4801 70.499 82.4601 70.7338C82.4601 77.1524 82.4601 83.5711 82.4421 89.9877C82.4421 90.8069 82.8691 90.7948 83.4545 90.7948C87.8948 90.784 92.3356 90.784 96.7772 90.7948H98.2408V84.4044H87.2138C87.2138 80.7724 87.2017 77.2452 87.2478 73.7262C87.2478 73.5527 87.7391 73.254 88.0117 73.2399C89.1104 73.1834 90.2171 73.2137 91.3158 73.2137H95.9051C95.4519 70.9941 94.3292 70.0356 92.2822 70.0356H82.5664V70.0356ZM54.245 94.0475H32.9247L33.3658 97.0742C33.4521 97.1151 33.544 97.143 33.6384 97.1569C39.3404 97.1771 45.0424 97.2316 50.7444 97.1832C52.7132 97.167 53.8319 96.0572 54.245 94.0515V94.0475ZM71.4351 97.0742H83.9217L84.3548 94.0475H71.008L71.4351 97.0742ZM97.8999 81.1336C97.7295 80.2175 97.5812 79.4003 97.4208 78.5871C97.2804 77.8728 97.3486 76.8901 96.9135 76.5289C96.4785 76.1677 95.5301 76.422 94.8064 76.42C93.3568 76.42 91.9073 76.42 90.4276 76.42V81.1356L97.8999 81.1336ZM22.1302 96.3579C22.1093 95.7391 21.8494 95.1529 21.4058 94.7238C20.9623 94.2948 20.37 94.0566 19.7548 94.0601C19.1396 94.0635 18.5499 94.3082 18.1111 94.7421C17.6723 95.1761 17.4189 95.7651 17.4047 96.3841C17.4047 97.6735 18.6176 98.8983 19.8366 98.8539C21.0556 98.8095 22.1403 97.6089 22.1302 96.3579ZM89.5936 94.0011C89.1237 93.9955 88.6628 94.1307 88.2695 94.3896C87.8762 94.6485 87.5684 95.0193 87.3851 95.4548C87.2019 95.8903 87.1516 96.3708 87.2406 96.8352C87.3296 97.2996 87.5538 97.7268 87.8848 98.0625C88.2158 98.3982 88.6386 98.6272 89.0993 98.7203C89.5601 98.8134 90.0379 98.7665 90.472 98.5854C90.9061 98.4044 91.2769 98.0974 91.5371 97.7036C91.7974 97.3098 91.9353 96.847 91.9333 96.374C91.9282 95.7494 91.6806 95.1516 91.2434 94.7082C90.8062 94.2648 90.2141 94.0111 89.5936 94.0011V94.0011ZM14.2088 96.3276C14.1916 95.7031 13.9323 95.1102 13.4865 94.6755C13.0407 94.2408 12.4437 93.9987 11.823 94.0011C11.3531 94.0048 10.8949 94.1492 10.5068 94.4158C10.1187 94.6824 9.81821 95.0592 9.64354 95.4982C9.46887 95.9373 9.42795 96.4187 9.52598 96.8812C9.62402 97.3437 9.85657 97.7664 10.194 98.0955C10.5315 98.4246 10.9586 98.6452 11.4211 98.7292C11.8835 98.8132 12.3603 98.7568 12.7908 98.5672C13.2213 98.3777 13.586 98.0635 13.8385 97.6647C14.0911 97.2658 14.22 96.8004 14.2088 96.3276ZM30.0637 96.3982C30.0645 95.9286 29.9268 95.4692 29.668 95.0784C29.4092 94.6875 29.041 94.3828 28.61 94.2027C28.1791 94.0226 27.7046 93.9752 27.2469 94.0667C26.7892 94.1581 26.3687 94.3842 26.0387 94.7163C25.7087 95.0484 25.4841 95.4716 25.3932 95.9323C25.3024 96.3929 25.3494 96.8704 25.5284 97.3041C25.7073 97.7379 26.0101 98.1085 26.3985 98.3689C26.7868 98.6293 27.2433 98.7679 27.7099 98.7671C28.331 98.7592 28.9243 98.5069 29.3628 98.0641C29.8012 97.6213 30.0499 97.0233 30.0557 96.3982H30.0637ZM65.7872 94.0031C65.319 94.0023 64.861 94.1414 64.4714 94.4027C64.0817 94.664 63.7778 95.0358 63.5983 95.4711C63.4187 95.9063 63.3715 96.3854 63.4627 96.8476C63.5539 97.3099 63.7793 97.7345 64.1104 98.0677C64.4415 98.401 64.8634 98.6278 65.3227 98.7196C65.782 98.8113 66.258 98.7638 66.6904 98.5831C67.1229 98.4024 67.4923 98.0966 67.752 97.7044C68.0117 97.3122 68.1498 96.8513 68.149 96.3801C68.1422 95.7502 67.8902 95.1482 67.4471 94.7033C67.0039 94.2585 66.4051 94.0063 65.7792 94.0011L65.7872 94.0031ZM95.2334 97.0823H98.2588V94.0717H94.7923L95.2334 97.0823ZM3.25197 97.0964H6.15509L6.61622 94.0798C3.26801 93.5915 2.85299 93.9284 3.16776 96.9188C3.18879 96.9795 3.21495 97.0382 3.24596 97.0944L3.25197 97.0964Z" fill="url(#paint1_linear_26_403)"/>
<path d="M31.7402 63.6694H34.7697V81.1497H31.7402V63.6694Z" fill="url(#paint2_linear_26_403)"/>
<path d="M22.1099 63.6169V81.1375H19.0123C18.9943 80.7925 18.9682 80.4938 18.9682 80.1972C18.9682 75.0276 18.9823 69.858 18.9502 64.6904C18.9502 63.8833 19.1286 63.514 19.9948 63.6048C20.6504 63.6714 21.32 63.6169 22.1099 63.6169Z" fill="url(#paint3_linear_26_403)"/>
<path d="M12.6611 63.6674H15.7206V81.1436H12.6611V63.6674Z" fill="url(#paint4_linear_26_403)"/>
<path d="M41.1852 81.1537H38.0034C38.0034 80.7501 38.0034 80.4253 38.0034 80.0964C38.0034 74.9954 38.0214 69.8944 37.9854 64.7933C37.9854 63.9075 38.1658 63.5605 39.1322 63.5948C41.1912 63.6654 41.1932 63.6109 41.1932 65.663C41.1932 70.5286 41.1932 75.3949 41.1932 80.2618C41.1852 80.5221 41.1852 80.7865 41.1852 81.1537Z" fill="url(#paint5_linear_26_403)"/>
<path d="M53.8043 81.1517H50.7588V63.7017H53.8043V81.1517Z" fill="url(#paint6_linear_26_403)"/>
<path d="M44.4209 63.6795H47.4964V81.1517H44.4209V63.6795Z" fill="url(#paint7_linear_26_403)"/>
<path d="M9.36471 81.1638H6.30922C6.29318 80.7784 6.26511 80.4515 6.26511 80.1246C6.26511 74.9833 6.27714 69.8338 6.24707 64.6985C6.24707 63.8914 6.43553 63.5201 7.29965 63.6069C7.95526 63.6735 8.62289 63.619 9.36471 63.619V81.1638Z" fill="url(#paint8_linear_26_403)"/>
<path d="M25.3818 81.1577V63.6815H28.4393V81.1577H25.3818Z" fill="url(#paint9_linear_26_403)"/>
<defs>
<linearGradient id="paint0_linear_26_403" x1="98.6012" y1="-13.3746" x2="-17.0406" y2="71.5274" gradientUnits="userSpaceOnUse">
<stop offset="0.145833" stop-color="#4E9CFB"/>
<stop offset="0.458333" stop-color="#DA7FDC"/>
<stop offset="0.723958" stop-color="#989AFA"/>
</linearGradient>
<linearGradient id="paint1_linear_26_403" x1="98.1696" y1="61.4602" x2="57.0915" y2="136.251" gradientUnits="userSpaceOnUse">
<stop offset="0.145833" stop-color="#4E9CFB"/>
<stop offset="0.458333" stop-color="#DA7FDC"/>
<stop offset="0.723958" stop-color="#989AFA"/>
</linearGradient>
<linearGradient id="paint2_linear_26_403" x1="34.6687" y1="61.001" x2="29.4437" y2="61.5723" gradientUnits="userSpaceOnUse">
<stop offset="0.145833" stop-color="#4E9CFB"/>
<stop offset="0.458333" stop-color="#DA7FDC"/>
<stop offset="0.723958" stop-color="#989AFA"/>
</linearGradient>
<linearGradient id="paint3_linear_26_403" x1="22.0046" y1="60.9129" x2="16.56" y2="61.5314" gradientUnits="userSpaceOnUse">
<stop offset="0.145833" stop-color="#4E9CFB"/>
<stop offset="0.458333" stop-color="#DA7FDC"/>
<stop offset="0.723958" stop-color="#989AFA"/>
</linearGradient>
<linearGradient id="paint4_linear_26_403" x1="15.6186" y1="60.9996" x2="10.343" y2="61.5823" gradientUnits="userSpaceOnUse">
<stop offset="0.145833" stop-color="#4E9CFB"/>
<stop offset="0.458333" stop-color="#DA7FDC"/>
<stop offset="0.723958" stop-color="#989AFA"/>
</linearGradient>
<linearGradient id="paint5_linear_26_403" x1="41.0863" y1="60.9117" x2="35.5607" y2="61.5484" gradientUnits="userSpaceOnUse">
<stop offset="0.145833" stop-color="#4E9CFB"/>
<stop offset="0.458333" stop-color="#DA7FDC"/>
<stop offset="0.723958" stop-color="#989AFA"/>
</linearGradient>
<linearGradient id="paint6_linear_26_403" x1="53.7027" y1="61.038" x2="48.4509" y2="61.6162" gradientUnits="userSpaceOnUse">
<stop offset="0.145833" stop-color="#4E9CFB"/>
<stop offset="0.458333" stop-color="#DA7FDC"/>
<stop offset="0.723958" stop-color="#989AFA"/>
</linearGradient>
<linearGradient id="paint7_linear_26_403" x1="47.3939" y1="61.0124" x2="42.0913" y2="61.6012" gradientUnits="userSpaceOnUse">
<stop offset="0.145833" stop-color="#4E9CFB"/>
<stop offset="0.458333" stop-color="#DA7FDC"/>
<stop offset="0.723958" stop-color="#989AFA"/>
</linearGradient>
<linearGradient id="paint8_linear_26_403" x1="9.26079" y1="60.9126" x2="3.88669" y2="61.5141" gradientUnits="userSpaceOnUse">
<stop offset="0.145833" stop-color="#4E9CFB"/>
<stop offset="0.458333" stop-color="#DA7FDC"/>
<stop offset="0.723958" stop-color="#989AFA"/>
</linearGradient>
<linearGradient id="paint9_linear_26_403" x1="28.3374" y1="61.0137" x2="23.0652" y2="61.5956" gradientUnits="userSpaceOnUse">
<stop offset="0.145833" stop-color="#4E9CFB"/>
<stop offset="0.458333" stop-color="#DA7FDC"/>
<stop offset="0.723958" stop-color="#989AFA"/>
</linearGradient>
</defs>
</svg>
