<svg width="111" height="111" viewBox="0 0 111 111" fill="none" xmlns="http://www.w3.org/2000/svg">
<path d="M83.25 41.625C83.25 40.5959 82.9448 39.59 82.3731 38.7343C81.8014 37.8787 80.9888 37.2118 80.038 36.8179C79.0873 36.4241 78.0411 36.3211 77.0318 36.5219C76.0225 36.7226 75.0954 37.2182 74.3677 37.9458C73.64 38.6735 73.1445 39.6006 72.9437 40.6099C72.743 41.6192 72.846 42.6654 73.2398 43.6162C73.6336 44.5669 74.3005 45.3795 75.1562 45.9512C76.0118 46.523 77.0178 46.8281 78.0469 46.8281C79.4264 46.8266 80.7489 46.2779 81.7243 45.3025C82.6998 44.327 83.2485 43.0045 83.25 41.625V41.625ZM76.3125 41.625C76.3125 41.282 76.4142 40.9467 76.6048 40.6614C76.7954 40.3762 77.0662 40.1539 77.3832 40.0226C77.7001 39.8914 78.0488 39.857 78.3852 39.924C78.7217 39.9909 79.0307 40.1561 79.2733 40.3986C79.5158 40.6412 79.681 40.9502 79.7479 41.2866C79.8148 41.6231 79.7805 41.9718 79.6492 42.2887C79.518 42.6056 79.2957 42.8765 79.0104 43.0671C78.7252 43.2577 78.3899 43.3594 78.0469 43.3594C77.5871 43.3589 77.1462 43.176 76.8211 42.8508C76.4959 42.5257 76.313 42.0848 76.3125 41.625V41.625Z" fill="url(#paint0_linear_25_242)"/>
<path d="M50.2969 29.4844H46.8281V34.6875H50.2969V29.4844Z" fill="url(#paint1_linear_25_242)"/>
<path d="M57.2344 29.4844H53.7656V34.6875H57.2344V29.4844Z" fill="url(#paint2_linear_25_242)"/>
<path d="M106.253 39.9518L88.2374 35.0385C86.7248 32.6963 84.4522 30.9461 81.8013 30.082C79.1504 29.2179 76.2829 29.2926 73.6806 30.2935L74.9285 33.5302C76.9526 32.7481 79.1962 32.7521 81.2175 33.5416C83.2388 34.3311 84.8912 35.8488 85.8494 37.7958C86.8075 39.7428 87.002 41.9779 86.3944 44.0611C85.7868 46.1443 84.4213 47.9246 82.5667 49.0512C80.7121 50.1778 78.5029 50.5693 76.3741 50.1484C74.2453 49.7275 72.3513 48.5248 71.065 46.7772C69.7787 45.0295 69.1934 42.8636 69.4243 40.7059C69.6552 38.5482 70.6856 36.5552 72.3126 35.1194L70.0176 32.5178C68.7258 33.6576 67.6912 35.0591 66.9824 36.6292C66.2736 38.1994 65.9068 39.9023 65.9063 41.625H62.4375V39.085C62.4376 35.6188 63.8145 32.2946 66.2655 29.8436C68.7165 27.3927 72.0407 26.0157 75.5069 26.0156H86.7188V22.5469H79.7813V8.67188C79.7813 8.21189 79.5985 7.77075 79.2733 7.44549C78.948 7.12023 78.5069 6.9375 78.0469 6.9375H58.9688C58.582 6.93751 58.2063 7.06682 57.9014 7.30486C57.5965 7.54291 57.38 7.87604 57.2862 8.25129L54.1459 20.8125H45.0938V19.0781H46.8281C47.2881 19.0781 47.7293 18.8954 48.0545 18.5701C48.3798 18.2449 48.5625 17.8037 48.5625 17.3438V10.4062C48.5625 9.94627 48.3798 9.50512 48.0545 9.17986C47.7293 8.8546 47.2881 8.67188 46.8281 8.67188H45.0938V6.9375H48.5625V3.46875H43.3594C42.8994 3.46875 42.4582 3.65148 42.133 3.97674C41.8077 4.302 41.625 4.74314 41.625 5.20312V8.67188H39.8906C39.4306 8.67188 38.9895 8.8546 38.6642 9.17986C38.339 9.50512 38.1563 9.94627 38.1563 10.4062V17.3438C38.1563 17.8037 38.339 18.2449 38.6642 18.5701C38.9895 18.8954 39.4306 19.0781 39.8906 19.0781H41.625V20.8125H39.692C37.9054 20.8145 36.1925 21.5251 34.9291 22.7885C33.6658 24.0519 32.9551 25.7648 32.9531 27.5514V36.2883L32.309 36.5459C31.9872 36.6746 31.7113 36.8968 31.5169 37.1839C31.3226 37.4709 31.2187 37.8096 31.2188 38.1562V43.3594C31.2188 43.8194 31.4015 44.2605 31.7267 44.5858C32.052 44.911 32.4931 45.0938 32.9531 45.0938H34.9071C34.4529 46.8546 34.7092 48.7234 35.6208 50.2969H22.5469V44.8741C24.0351 44.4877 25.3532 43.6186 26.2947 42.403C27.2362 41.1874 27.748 39.6938 27.75 38.1562V31.2188C27.751 29.8091 27.3222 28.4326 26.5208 27.2729C25.7195 26.1132 24.5837 25.2253 23.2648 24.7276C21.9459 24.2299 20.5066 24.1461 19.1389 24.4873C17.7712 24.8285 16.5399 25.5785 15.6094 26.6374C14.6788 25.5785 13.4476 24.8285 12.0799 24.4873C10.7121 24.1461 9.27286 24.2299 7.95398 24.7276C6.6351 25.2253 5.49927 26.1132 4.69792 27.2729C3.89658 28.4326 3.4678 29.8091 3.46875 31.2188V38.1562C3.47072 39.6938 3.98253 41.1874 4.92405 42.403C5.86557 43.6186 7.18364 44.4877 8.67188 44.8741V50.2969H5.20313V53.7656H10.5049L3.79178 63.164L6.61447 65.1802L14.7673 53.7656H21.7684L3.58149 101.713L6.82477 102.943L25.4782 53.7656H35.9176L22.6019 105.363L25.9606 106.23L39.5004 53.7656H48.324L41.6393 105.575L45.0794 106.019L51.8218 53.7656H59.1782L65.9206 106.019L69.3607 105.575L62.676 53.7656H71.4996L85.039 106.23L88.3976 105.363L75.082 53.7656H85.5214L104.175 102.943L107.419 101.713L89.2317 53.7656H96.2327L104.386 65.1798L107.208 63.1636L100.495 53.7656H105.797V50.2969H86.5319C87.9972 48.8676 89.0764 47.0904 89.6689 45.1311C90.2614 43.1718 90.3478 41.0943 89.92 39.0926L96.802 40.9694L95.4425 46.4075L98.8076 47.2487L100.149 41.8823L103.702 42.8514L102.38 48.1413L105.745 48.9824L107.479 42.0449C107.589 41.605 107.522 41.1395 107.293 40.7483C107.064 40.3571 106.691 40.0711 106.253 39.9518ZM41.625 12.1406H45.0938V15.6094H41.625V12.1406ZM66.4138 45.0938C67.0052 47.0669 68.0885 48.8574 69.5619 50.2969H47.6303C48.5419 48.7234 48.7982 46.8546 48.344 45.0938H66.4138ZM76.3125 10.4062V20.8125H61.4216L64.1719 18.0622L66.4142 20.3045L68.8671 17.8517L61.9296 10.9142L59.6191 13.2259L60.3229 10.4062H76.3125ZM59.5615 13.4518L61.719 15.6094L58.1232 19.2054L59.5615 13.4518ZM36.4219 31.2188H39.8906V33.5133L36.4219 34.9008V31.2188ZM34.6875 39.3304L42.2691 36.2979C42.591 36.1691 42.8668 35.9469 43.0612 35.6599C43.2555 35.3728 43.3594 35.0341 43.3594 34.6875V29.4844C43.3594 29.0244 43.1766 28.5832 42.8514 28.258C42.5261 27.9327 42.085 27.75 41.625 27.75H36.4219V27.5514C36.4228 26.6844 36.7676 25.8531 37.3807 25.2401C37.9938 24.627 38.825 24.2822 39.692 24.2812H68.126C65.3758 25.6553 63.0624 27.768 61.4451 30.3827C59.8277 32.9973 58.9703 36.0106 58.9688 39.085V41.625H46.2064C44.9419 40.5074 43.3125 39.8906 41.625 39.8906C39.9375 39.8906 38.3081 40.5074 37.0437 41.625H34.6875V39.3304ZM38.1563 46.8281C38.1563 46.1421 38.3597 45.4714 38.7408 44.901C39.122 44.3306 39.6637 43.886 40.2976 43.6234C40.9314 43.3609 41.6289 43.2922 42.3017 43.426C42.9746 43.5599 43.5927 43.8902 44.0778 44.3753C44.5629 44.8605 44.8933 45.4785 45.0271 46.1514C45.1609 46.8243 45.0923 47.5217 44.8297 48.1556C44.5672 48.7894 44.1226 49.3311 43.5521 49.7123C42.9817 50.0934 42.3111 50.2969 41.625 50.2969C40.7054 50.2958 39.8237 49.93 39.1734 49.2797C38.5232 48.6294 38.1573 47.7478 38.1563 46.8281V46.8281ZM20.8125 27.75C21.7321 27.7511 22.6138 28.1169 23.2641 28.7672C23.9144 29.4175 24.2802 30.2991 24.2813 31.2188V38.1562C24.2804 38.7644 24.1198 39.3616 23.8154 39.888C23.511 40.4144 23.0735 40.8516 22.5469 41.1556V38.1562H19.0781V41.1556C18.5515 40.8516 18.114 40.4144 17.8096 39.888C17.5052 39.3616 17.3446 38.7644 17.3438 38.1562V31.2188C17.3448 30.2991 17.7106 29.4175 18.3609 28.7672C19.0112 28.1169 19.8929 27.7511 20.8125 27.75V27.75ZM6.9375 38.1562V31.2188C6.9375 30.2988 7.30296 29.4165 7.95347 28.766C8.60399 28.1155 9.48628 27.75 10.4063 27.75C11.3262 27.75 12.2085 28.1155 12.859 28.766C13.5095 29.4165 13.875 30.2988 13.875 31.2188V38.1562C13.8742 38.7644 13.7135 39.3616 13.4091 39.888C13.1047 40.4144 12.6673 40.8516 12.1406 41.1556V38.1562H8.67188V41.1556C8.14524 40.8516 7.70779 40.4144 7.40339 39.888C7.09898 39.3616 6.93832 38.7644 6.9375 38.1562V38.1562ZM12.1406 44.8741C13.4844 44.5247 14.6927 43.7805 15.6094 42.7376C16.5261 43.7805 17.7343 44.5247 19.0781 44.8741V50.2969H12.1406V44.8741Z" fill="url(#paint3_linear_25_242)"/>
<path d="M55.5 89.2893C54.8891 88.4893 54.1017 87.8411 53.1992 87.3952C52.2967 86.9493 51.3035 86.7178 50.2969 86.7188V90.1875C50.9431 90.1869 51.5731 90.3899 52.0973 90.7678C52.6216 91.1456 53.0134 91.6791 53.2171 92.2924L53.8547 94.2047C53.9699 94.55 54.1907 94.8503 54.486 95.0631C54.7813 95.2759 55.136 95.3904 55.5 95.3904C55.864 95.3904 56.2187 95.2759 56.514 95.0631C56.8093 94.8503 57.0301 94.55 57.1453 94.2047L57.7829 92.2924C57.9866 91.6791 58.3784 91.1456 58.9027 90.7678C59.4269 90.3899 60.0569 90.1869 60.7031 90.1875V86.7188C59.6965 86.7178 58.7033 86.9493 57.8008 87.3952C56.8983 87.8411 56.1109 88.4893 55.5 89.2893Z" fill="url(#paint4_linear_25_242)"/>
<path d="M55.5 77.1487C54.8891 76.3486 54.1017 75.7004 53.1992 75.2546C52.2967 74.8087 51.3035 74.5772 50.2969 74.5781V78.0469C50.9431 78.0462 51.5731 78.2493 52.0973 78.6271C52.6216 79.005 53.0134 79.5385 53.2171 80.1518L53.8547 82.0641C53.9699 82.4094 54.1907 82.7097 54.486 82.9225C54.7813 83.1352 55.136 83.2497 55.5 83.2497C55.864 83.2497 56.2187 83.1352 56.514 82.9225C56.8093 82.7097 57.0301 82.4094 57.1453 82.0641L57.7829 80.1518C57.9866 79.5385 58.3784 79.005 58.9027 78.6271C59.4269 78.2493 60.0569 78.0462 60.7031 78.0469V74.5781C59.6965 74.5772 58.7033 74.8087 57.8008 75.2546C56.8983 75.7004 56.1109 76.3486 55.5 77.1487Z" fill="url(#paint5_linear_25_242)"/>
<path d="M55.5 101.43C54.8891 100.63 54.1017 99.9817 53.1992 99.5358C52.2967 99.0899 51.3035 98.8585 50.2969 98.8594V102.328C50.9431 102.327 51.5731 102.531 52.0973 102.908C52.6216 103.286 53.0134 103.82 53.2171 104.433L53.8547 106.345C53.9699 106.691 54.1907 106.991 54.486 107.204C54.7813 107.416 55.136 107.531 55.5 107.531C55.864 107.531 56.2187 107.416 56.514 107.204C56.8093 106.991 57.0301 106.691 57.1453 106.345L57.7829 104.433C57.9866 103.82 58.3784 103.286 58.9027 102.908C59.4269 102.531 60.0569 102.327 60.7031 102.328V98.8594C59.6965 98.8585 58.7033 99.0899 57.8008 99.5358C56.8983 99.9817 56.1109 100.63 55.5 101.43V101.43Z" fill="url(#paint6_linear_25_242)"/>
<path d="M15.6094 99.6956C14.9985 98.8955 14.2111 98.2473 13.3086 97.8014C12.4061 97.3556 11.4129 97.1241 10.4062 97.125V100.594C11.0525 100.593 11.6825 100.796 12.2067 101.174C12.731 101.552 13.1228 102.085 13.3265 102.699L13.9641 104.611C14.0793 104.956 14.3001 105.257 14.5954 105.469C14.8907 105.682 15.2454 105.797 15.6094 105.797C15.9733 105.797 16.3281 105.682 16.6234 105.469C16.9186 105.257 17.1395 104.956 17.2546 104.611L17.8922 102.699C18.096 102.085 18.4878 101.552 19.012 101.174C19.5363 100.796 20.1663 100.593 20.8125 100.594V97.125C19.8059 97.1241 18.8126 97.3556 17.9101 97.8014C17.0077 98.2473 16.2203 98.8955 15.6094 99.6956V99.6956Z" fill="url(#paint7_linear_25_242)"/>
<path d="M26.0156 86.7188V83.25C25.009 83.2491 24.0158 83.4806 23.1133 83.9264C22.2108 84.3723 21.4234 85.0205 20.8125 85.8206C20.2016 85.0205 19.4142 84.3723 18.5117 83.9264C17.6092 83.4806 16.616 83.2491 15.6094 83.25V86.7188C16.2556 86.7181 16.8856 86.9212 17.4098 87.299C17.9341 87.6769 18.3259 88.2104 18.5296 88.8236L19.1672 90.736C19.2824 91.0813 19.5032 91.3815 19.7985 91.5943C20.0938 91.8071 20.4485 91.9216 20.8125 91.9216C21.1765 91.9216 21.5312 91.8071 21.8265 91.5943C22.1218 91.3815 22.3426 91.0813 22.4578 90.736L23.0954 88.8236C23.2991 88.2104 23.6909 87.6769 24.2152 87.299C24.7394 86.9212 25.3694 86.7181 26.0156 86.7188V86.7188Z" fill="url(#paint8_linear_25_242)"/>
<path d="M95.3906 99.6956C94.7797 98.8955 93.9923 98.2473 93.0899 97.8014C92.1874 97.3556 91.1941 97.1241 90.1875 97.125V100.594C90.8337 100.593 91.4637 100.796 91.988 101.174C92.5122 101.552 92.904 102.085 93.1078 102.699L93.7454 104.611C93.8605 104.956 94.0814 105.257 94.3766 105.469C94.6719 105.682 95.0267 105.797 95.3906 105.797C95.7546 105.797 96.1093 105.682 96.4046 105.469C96.6999 105.257 96.9207 104.956 97.0359 104.611L97.6735 102.699C97.8772 102.085 98.269 101.552 98.7933 101.174C99.3175 100.796 99.9475 100.593 100.594 100.594V97.125C99.5871 97.1241 98.5939 97.3556 97.6914 97.8014C96.7889 98.2473 96.0015 98.8955 95.3906 99.6956Z" fill="url(#paint9_linear_25_242)"/>
<path d="M91.8328 90.736L92.4704 88.8236C92.6741 88.2104 93.0659 87.6769 93.5902 87.299C94.1144 86.9212 94.7444 86.7181 95.3906 86.7188V83.25C94.384 83.2491 93.3908 83.4806 92.4883 83.9264C91.5858 84.3723 90.7984 85.0205 90.1875 85.8206C89.5766 85.0205 88.7892 84.3723 87.8867 83.9264C86.9842 83.4806 85.991 83.2491 84.9844 83.25V86.7188C85.6306 86.7181 86.2606 86.9212 86.7848 87.299C87.3091 87.6769 87.7009 88.2104 87.9046 88.8236L88.5422 90.736C88.6574 91.0813 88.8782 91.3815 89.1735 91.5943C89.4688 91.8071 89.8235 91.9216 90.1875 91.9216C90.5515 91.9216 90.9062 91.8071 91.2015 91.5943C91.4968 91.3815 91.7176 91.0813 91.8328 90.736V90.736Z" fill="url(#paint10_linear_25_242)"/>
<path d="M50.8047 67.1327L54.2734 70.6014C54.4345 70.7625 54.6257 70.8902 54.8361 70.9774C55.0465 71.0646 55.2721 71.1094 55.4999 71.1094C55.7276 71.1094 55.9532 71.0646 56.1636 70.9774C56.374 70.8902 56.5652 70.7625 56.7263 70.6014L60.195 67.1327L57.7422 64.6798L55.4999 66.9224L53.2575 64.6798L50.8047 67.1327Z" fill="url(#paint11_linear_25_242)"/>
<path d="M22.0388 71.6173L19.5859 74.0702L23.0547 77.5389C23.2157 77.7 23.4069 77.8277 23.6174 77.9149C23.8278 78.0021 24.0533 78.0469 24.2811 78.0469C24.5089 78.0469 24.7344 78.0021 24.9448 77.9149C25.1553 77.8277 25.3465 77.7 25.5075 77.5389L28.9763 74.0702L26.5234 71.6173L24.2811 73.8599L22.0388 71.6173Z" fill="url(#paint12_linear_25_242)"/>
<path d="M86.7186 78.0469C86.9464 78.0471 87.172 78.0024 87.3825 77.9153C87.593 77.8281 87.7841 77.7002 87.945 77.5389L91.4138 74.0702L88.9609 71.6173L86.7186 73.8599L84.4763 71.6173L82.0234 74.0702L85.4922 77.5389C85.6531 77.7002 85.8442 77.8281 86.0547 77.9153C86.2652 78.0024 86.4908 78.0471 86.7186 78.0469Z" fill="url(#paint13_linear_25_242)"/>
<path d="M31.2188 57.2344H27.75V60.7031H31.2188V57.2344Z" fill="url(#paint14_linear_25_242)"/>
<path d="M27.75 64.1719H24.2812V67.6406H27.75V64.1719Z" fill="url(#paint15_linear_25_242)"/>
<path d="M57.2344 57.2344H53.7656V60.7031H57.2344V57.2344Z" fill="url(#paint16_linear_25_242)"/>
<path d="M83.25 57.2344H79.7812V60.7031H83.25V57.2344Z" fill="url(#paint17_linear_25_242)"/>
<path d="M86.7188 64.1719H83.25V67.6406H86.7188V64.1719Z" fill="url(#paint18_linear_25_242)"/>
<defs>
<linearGradient id="paint0_linear_25_242" x1="82.9031" y1="34.8333" x2="69.9106" y2="43.0293" gradientUnits="userSpaceOnUse">
<stop offset="0.145833" stop-color="#4E9CFB"/>
<stop offset="0.458333" stop-color="#DA7FDC"/>
<stop offset="0.723958" stop-color="#989AFA"/>
</linearGradient>
<linearGradient id="paint1_linear_25_242" x1="50.1812" y1="28.6901" x2="45.0368" y2="30.8536" gradientUnits="userSpaceOnUse">
<stop offset="0.145833" stop-color="#4E9CFB"/>
<stop offset="0.458333" stop-color="#DA7FDC"/>
<stop offset="0.723958" stop-color="#989AFA"/>
</linearGradient>
<linearGradient id="paint2_linear_25_242" x1="57.1187" y1="28.6901" x2="51.9743" y2="30.8536" gradientUnits="userSpaceOnUse">
<stop offset="0.145833" stop-color="#4E9CFB"/>
<stop offset="0.458333" stop-color="#DA7FDC"/>
<stop offset="0.723958" stop-color="#989AFA"/>
</linearGradient>
<linearGradient id="paint3_linear_25_242" x1="104.062" y1="-12.218" x2="-24.9274" y2="70.1817" gradientUnits="userSpaceOnUse">
<stop offset="0.145833" stop-color="#4E9CFB"/>
<stop offset="0.458333" stop-color="#DA7FDC"/>
<stop offset="0.723958" stop-color="#989AFA"/>
</linearGradient>
<linearGradient id="paint4_linear_25_242" x1="60.3562" y1="85.395" x2="48.8102" y2="94.1355" gradientUnits="userSpaceOnUse">
<stop offset="0.145833" stop-color="#4E9CFB"/>
<stop offset="0.458333" stop-color="#DA7FDC"/>
<stop offset="0.723958" stop-color="#989AFA"/>
</linearGradient>
<linearGradient id="paint5_linear_25_242" x1="60.3562" y1="73.2544" x2="48.8102" y2="81.9949" gradientUnits="userSpaceOnUse">
<stop offset="0.145833" stop-color="#4E9CFB"/>
<stop offset="0.458333" stop-color="#DA7FDC"/>
<stop offset="0.723958" stop-color="#989AFA"/>
</linearGradient>
<linearGradient id="paint6_linear_25_242" x1="60.3562" y1="97.5356" x2="48.8102" y2="106.276" gradientUnits="userSpaceOnUse">
<stop offset="0.145833" stop-color="#4E9CFB"/>
<stop offset="0.458333" stop-color="#DA7FDC"/>
<stop offset="0.723958" stop-color="#989AFA"/>
</linearGradient>
<linearGradient id="paint7_linear_25_242" x1="20.4656" y1="95.8013" x2="8.91955" y2="104.542" gradientUnits="userSpaceOnUse">
<stop offset="0.145833" stop-color="#4E9CFB"/>
<stop offset="0.458333" stop-color="#DA7FDC"/>
<stop offset="0.723958" stop-color="#989AFA"/>
</linearGradient>
<linearGradient id="paint8_linear_25_242" x1="25.6687" y1="81.9263" x2="14.1227" y2="90.6668" gradientUnits="userSpaceOnUse">
<stop offset="0.145833" stop-color="#4E9CFB"/>
<stop offset="0.458333" stop-color="#DA7FDC"/>
<stop offset="0.723958" stop-color="#989AFA"/>
</linearGradient>
<linearGradient id="paint9_linear_25_242" x1="100.247" y1="95.8013" x2="88.7008" y2="104.542" gradientUnits="userSpaceOnUse">
<stop offset="0.145833" stop-color="#4E9CFB"/>
<stop offset="0.458333" stop-color="#DA7FDC"/>
<stop offset="0.723958" stop-color="#989AFA"/>
</linearGradient>
<linearGradient id="paint10_linear_25_242" x1="95.0437" y1="81.9263" x2="83.4977" y2="90.6668" gradientUnits="userSpaceOnUse">
<stop offset="0.145833" stop-color="#4E9CFB"/>
<stop offset="0.458333" stop-color="#DA7FDC"/>
<stop offset="0.723958" stop-color="#989AFA"/>
</linearGradient>
<linearGradient id="paint11_linear_25_242" x1="59.882" y1="63.6983" x2="51.0171" y2="71.8657" gradientUnits="userSpaceOnUse">
<stop offset="0.145833" stop-color="#4E9CFB"/>
<stop offset="0.458333" stop-color="#DA7FDC"/>
<stop offset="0.723958" stop-color="#989AFA"/>
</linearGradient>
<linearGradient id="paint12_linear_25_242" x1="28.6633" y1="70.6358" x2="19.7983" y2="78.8032" gradientUnits="userSpaceOnUse">
<stop offset="0.145833" stop-color="#4E9CFB"/>
<stop offset="0.458333" stop-color="#DA7FDC"/>
<stop offset="0.723958" stop-color="#989AFA"/>
</linearGradient>
<linearGradient id="paint13_linear_25_242" x1="91.1008" y1="70.6358" x2="82.2359" y2="78.8032" gradientUnits="userSpaceOnUse">
<stop offset="0.145833" stop-color="#4E9CFB"/>
<stop offset="0.458333" stop-color="#DA7FDC"/>
<stop offset="0.723958" stop-color="#989AFA"/>
</linearGradient>
<linearGradient id="paint14_linear_25_242" x1="31.1031" y1="56.7049" x2="26.7723" y2="59.4369" gradientUnits="userSpaceOnUse">
<stop offset="0.145833" stop-color="#4E9CFB"/>
<stop offset="0.458333" stop-color="#DA7FDC"/>
<stop offset="0.723958" stop-color="#989AFA"/>
</linearGradient>
<linearGradient id="paint15_linear_25_242" x1="27.6344" y1="63.6424" x2="23.3035" y2="66.3744" gradientUnits="userSpaceOnUse">
<stop offset="0.145833" stop-color="#4E9CFB"/>
<stop offset="0.458333" stop-color="#DA7FDC"/>
<stop offset="0.723958" stop-color="#989AFA"/>
</linearGradient>
<linearGradient id="paint16_linear_25_242" x1="57.1187" y1="56.7049" x2="52.7879" y2="59.4369" gradientUnits="userSpaceOnUse">
<stop offset="0.145833" stop-color="#4E9CFB"/>
<stop offset="0.458333" stop-color="#DA7FDC"/>
<stop offset="0.723958" stop-color="#989AFA"/>
</linearGradient>
<linearGradient id="paint17_linear_25_242" x1="83.1344" y1="56.7049" x2="78.8035" y2="59.4369" gradientUnits="userSpaceOnUse">
<stop offset="0.145833" stop-color="#4E9CFB"/>
<stop offset="0.458333" stop-color="#DA7FDC"/>
<stop offset="0.723958" stop-color="#989AFA"/>
</linearGradient>
<linearGradient id="paint18_linear_25_242" x1="86.6031" y1="63.6424" x2="82.2723" y2="66.3744" gradientUnits="userSpaceOnUse">
<stop offset="0.145833" stop-color="#4E9CFB"/>
<stop offset="0.458333" stop-color="#DA7FDC"/>
<stop offset="0.723958" stop-color="#989AFA"/>
</linearGradient>
</defs>
</svg>
