<svg width="104" height="104" viewBox="0 0 104 104" fill="none" xmlns="http://www.w3.org/2000/svg">
<path d="M9.75 16.25H42.25C42.2549 17.4212 42.6812 18.5515 43.4511 19.4342C44.2209 20.3168 45.2828 20.8928 46.4425 21.0567C45.8264 22.0539 45.5001 23.2029 45.5001 24.375C45.5001 25.5471 45.8264 26.6961 46.4425 27.6932C45.2828 27.8572 44.2209 28.4332 43.4511 29.3158C42.6812 30.1985 42.2549 31.3288 42.25 32.5H27.625C27.1941 32.5001 26.7808 32.6714 26.4761 32.9761L18.3511 41.1011C18.0464 41.4058 17.8751 41.8191 17.875 42.25V61.75C17.8752 61.8943 17.8943 62.038 17.9319 62.1774L22.8069 80.0524C22.8631 80.2583 22.9594 80.4511 23.0901 80.6197C23.2209 80.7884 23.3836 80.9297 23.569 81.0355L34.944 87.5355C35.2469 87.712 35.5987 87.7858 35.9469 87.7459C36.2952 87.7061 36.6212 87.5547 36.8764 87.3143C37.1315 87.074 37.3021 86.7576 37.3627 86.4123C37.4233 86.0671 37.3706 85.7115 37.2125 85.3986L30.875 72.7415V52.6727L34.7977 48.75H69.2022L73.125 52.6727V72.7415L66.7875 85.3986C66.6276 85.7122 66.5738 86.0692 66.6342 86.4159C66.6947 86.7626 66.866 87.0804 67.1226 87.3214C67.3791 87.5623 67.707 87.7135 68.0568 87.7521C68.4067 87.7907 68.7596 87.7147 69.0625 87.5355L80.4375 81.0355C80.6229 80.9297 80.7856 80.7884 80.9164 80.6197C81.0471 80.4511 81.1434 80.2583 81.1996 80.0524L86.0746 62.1774C86.11 62.0377 86.1269 61.894 86.125 61.75V42.25C86.1249 41.8191 85.9536 41.4058 85.6489 41.1011L77.5239 32.9761C77.2192 32.6714 76.8059 32.5001 76.375 32.5H61.75C61.7451 31.3288 61.3188 30.1985 60.5489 29.3158C59.7791 28.4332 58.7172 27.8572 57.5575 27.6932C58.1736 26.6961 58.4999 25.5471 58.4999 24.375C58.4999 23.2029 58.1736 22.0539 57.5575 21.0567C58.7172 20.8928 59.7791 20.3168 60.5489 19.4342C61.3188 18.5515 61.7451 17.4212 61.75 16.25H94.25C95.9739 16.25 97.6272 15.5652 98.8462 14.3462C100.065 13.1272 100.75 11.4739 100.75 9.75C100.75 8.02609 100.065 6.37279 98.8462 5.15381C97.6272 3.93482 95.9739 3.25 94.25 3.25H9.75C8.02609 3.25 6.37279 3.93482 5.15381 5.15381C3.93482 6.37279 3.25 8.02609 3.25 9.75C3.25 11.4739 3.93482 13.1272 5.15381 14.3462C6.37279 15.5652 8.02609 16.25 9.75 16.25V16.25ZM55.25 24.375C55.25 25.0178 55.0594 25.6461 54.7023 26.1806C54.3452 26.7151 53.8376 27.1316 53.2437 27.3776C52.6499 27.6236 51.9964 27.688 51.366 27.5626C50.7355 27.4371 50.1564 27.1276 49.7019 26.6731C49.2474 26.2186 48.9378 25.6395 48.8124 25.009C48.687 24.3786 48.7514 23.7251 48.9974 23.1313C49.2434 22.5374 49.6599 22.0298 50.1944 21.6727C50.7289 21.3156 51.3572 21.125 52 21.125C52.862 21.125 53.6886 21.4674 54.2981 22.0769C54.9076 22.6864 55.25 23.513 55.25 24.375ZM22.75 46.3694V47.8806L21.125 48.9645V45.2855L22.75 46.3694ZM82.875 48.9694L81.25 47.8855V46.3742L82.875 45.2904V48.9694ZM75.7022 35.75L81.9488 41.9981L78.7231 44.148C78.5006 44.2964 78.3182 44.4975 78.1921 44.7333C78.0659 44.9692 78 45.2325 78 45.5V48.75C78 49.0175 78.0659 49.2808 78.1921 49.5166C78.3182 49.7525 78.5006 49.9536 78.7231 50.102L82.875 52.8694V61.5322L78.234 78.5476L72.1045 82.0511L76.2125 73.8514C76.3221 73.6251 76.3778 73.3764 76.375 73.125V52C76.3749 51.5691 76.2036 51.1558 75.8989 50.8511L71.0239 45.9761C70.7192 45.6714 70.3059 45.5001 69.875 45.5H34.125C33.6941 45.5001 33.2808 45.6714 32.9761 45.9761L28.1011 50.8511C27.7964 51.1558 27.6251 51.5691 27.625 52V73.125C27.6248 73.3771 27.6832 73.6258 27.7956 73.8514L31.8955 82.0511L25.766 78.5476L21.125 61.5322V52.8694L25.2769 50.1069C25.5001 49.958 25.6829 49.7561 25.8091 49.5194C25.9353 49.2826 26.0008 49.0183 26 48.75V45.5C26 45.2325 25.9341 44.9692 25.8079 44.7333C25.6818 44.4975 25.4994 44.2964 25.2769 44.148L22.0513 41.9981L28.2977 35.75H42.25C42.25 37.0429 42.7636 38.2829 43.6779 39.1971C44.5921 40.1114 45.8321 40.625 47.125 40.625H56.875C58.1679 40.625 59.4079 40.1114 60.3221 39.1971C61.2364 38.2829 61.75 37.0429 61.75 35.75H75.7022ZM58.5 32.5V35.75C58.5 36.181 58.3288 36.5943 58.024 36.899C57.7193 37.2038 57.306 37.375 56.875 37.375H47.125C46.694 37.375 46.2807 37.2038 45.976 36.899C45.6712 36.5943 45.5 36.181 45.5 35.75V32.5C45.5 32.069 45.6712 31.6557 45.976 31.3509C46.2807 31.0462 46.694 30.875 47.125 30.875H56.875C57.306 30.875 57.7193 31.0462 58.024 31.3509C58.3288 31.6557 58.5 32.069 58.5 32.5ZM58.5 16.25C58.5 16.681 58.3288 17.0943 58.024 17.399C57.7193 17.7038 57.306 17.875 56.875 17.875H47.125C46.694 17.875 46.2807 17.7038 45.976 17.399C45.6712 17.0943 45.5 16.681 45.5 16.25V13C45.5 12.569 45.6712 12.1557 45.976 11.851C46.2807 11.5462 46.694 11.375 47.125 11.375H56.875C57.306 11.375 57.7193 11.5462 58.024 11.851C58.3288 12.1557 58.5 12.569 58.5 13V16.25ZM9.75 6.5H94.25C95.112 6.5 95.9386 6.84241 96.5481 7.4519C97.1576 8.0614 97.5 8.88805 97.5 9.75C97.5 10.612 97.1576 11.4386 96.5481 12.0481C95.9386 12.6576 95.112 13 94.25 13H61.75C61.75 11.7071 61.2364 10.4671 60.3221 9.55285C59.4079 8.63861 58.1679 8.125 56.875 8.125H47.125C45.8321 8.125 44.5921 8.63861 43.6779 9.55285C42.7636 10.4671 42.25 11.7071 42.25 13H9.75C8.88805 13 8.0614 12.6576 7.4519 12.0481C6.84241 11.4386 6.5 10.612 6.5 9.75C6.5 8.88805 6.84241 8.0614 7.4519 7.4519C8.0614 6.84241 8.88805 6.5 9.75 6.5V6.5Z" fill="url(#paint0_linear_25_226)"/>
<path d="M74.75 39H71.5V42.25H74.75V39Z" fill="url(#paint1_linear_25_226)"/>
<path d="M30.875 39H27.625V42.25H30.875V39Z" fill="url(#paint2_linear_25_226)"/>
<path d="M94.25 8.125H91V11.375H94.25V8.125Z" fill="url(#paint3_linear_25_226)"/>
<path d="M13 8.125H9.75V11.375H13V8.125Z" fill="url(#paint4_linear_25_226)"/>
<path d="M53.625 13H50.375V16.25H53.625V13Z" fill="url(#paint5_linear_25_226)"/>
<path d="M53.625 32.5H50.375V35.75H53.625V32.5Z" fill="url(#paint6_linear_25_226)"/>
<path d="M99.125 91H4.875C4.44402 91 4.0307 91.1712 3.72595 91.476C3.4212 91.7807 3.25 92.194 3.25 92.625V99.125C3.25 99.556 3.4212 99.9693 3.72595 100.274C4.0307 100.579 4.44402 100.75 4.875 100.75H99.125C99.556 100.75 99.9693 100.579 100.274 100.274C100.579 99.9693 100.75 99.556 100.75 99.125V92.625C100.75 92.194 100.579 91.7807 100.274 91.476C99.9693 91.1712 99.556 91 99.125 91ZM97.5 97.5H6.5V94.25H97.5V97.5Z" fill="url(#paint7_linear_25_226)"/>
<path d="M43.875 81.25C43.875 82.857 44.3515 84.4279 45.2443 85.764C46.1371 87.1002 47.406 88.1416 48.8907 88.7565C50.3753 89.3715 52.009 89.5324 53.5851 89.2189C55.1612 88.9054 56.6089 88.1315 57.7452 86.9952C58.8815 85.8589 59.6554 84.4112 59.9689 82.8351C60.2824 81.259 60.1215 79.6253 59.5065 78.1407C58.8916 76.656 57.8502 75.3871 56.514 74.4943C55.1779 73.6015 53.607 73.125 52 73.125C49.8459 73.1276 47.7808 73.9844 46.2576 75.5076C44.7344 77.0308 43.8776 79.0959 43.875 81.25V81.25ZM56.875 81.25C56.875 82.2142 56.5891 83.1567 56.0534 83.9584C55.5177 84.7601 54.7564 85.3849 53.8656 85.7539C52.9748 86.1229 51.9946 86.2194 51.0489 86.0313C50.1033 85.8432 49.2346 85.3789 48.5529 84.6971C47.8711 84.0154 47.4068 83.1467 47.2187 82.2011C47.0306 81.2554 47.1271 80.2752 47.4961 79.3844C47.8651 78.4936 48.4899 77.7323 49.2916 77.1966C50.0933 76.6609 51.0358 76.375 52 76.375C53.2929 76.375 54.5329 76.8886 55.4471 77.8029C56.3614 78.7171 56.875 79.9571 56.875 81.25V81.25Z" fill="url(#paint8_linear_25_226)"/>
<path d="M92.625 73.125C91.018 73.125 89.4471 73.6015 88.111 74.4943C86.7748 75.3871 85.7334 76.656 85.1185 78.1407C84.5035 79.6253 84.3426 81.259 84.6561 82.8351C84.9696 84.4112 85.7435 85.8589 86.8798 86.9952C88.0161 88.1315 89.4638 88.9054 91.0399 89.2189C92.616 89.5324 94.2497 89.3715 95.7343 88.7565C97.219 88.1416 98.4879 87.1002 99.3807 85.764C100.273 84.4279 100.75 82.857 100.75 81.25C100.747 79.0959 99.8906 77.0308 98.3674 75.5076C96.8442 73.9844 94.7791 73.1276 92.625 73.125V73.125ZM92.625 86.125C91.6608 86.125 90.7183 85.8391 89.9166 85.3034C89.1149 84.7677 88.4901 84.0064 88.1211 83.1156C87.7521 82.2248 87.6556 81.2446 87.8437 80.2989C88.0318 79.3533 88.4961 78.4846 89.1779 77.8029C89.8596 77.1211 90.7283 76.6568 91.6739 76.4687C92.6196 76.2806 93.5998 76.3771 94.4906 76.7461C95.3814 77.1151 96.1427 77.7399 96.6784 78.5416C97.2141 79.3433 97.5 80.2858 97.5 81.25C97.5 82.5429 96.9864 83.7829 96.0721 84.6971C95.1579 85.6114 93.9179 86.125 92.625 86.125V86.125Z" fill="url(#paint9_linear_25_226)"/>
<path d="M11.375 89.375C12.982 89.375 14.5529 88.8985 15.889 88.0057C17.2252 87.1129 18.2666 85.844 18.8815 84.3593C19.4965 82.8747 19.6574 81.241 19.3439 79.6649C19.0304 78.0888 18.2565 76.6411 17.1202 75.5048C15.9839 74.3685 14.5362 73.5946 12.9601 73.2811C11.384 72.9676 9.75035 73.1285 8.2657 73.7435C6.78105 74.3584 5.5121 75.3998 4.61931 76.736C3.72652 78.0721 3.25 79.643 3.25 81.25C3.25258 83.4041 4.10943 85.4692 5.63261 86.9924C7.15578 88.5156 9.22091 89.3724 11.375 89.375V89.375ZM11.375 76.375C12.3392 76.375 13.2817 76.6609 14.0834 77.1966C14.8851 77.7323 15.5099 78.4936 15.8789 79.3844C16.2479 80.2752 16.3444 81.2554 16.1563 82.2011C15.9682 83.1467 15.5039 84.0154 14.8221 84.6971C14.1404 85.3789 13.2717 85.8432 12.3261 86.0313C11.3804 86.2194 10.4002 86.1229 9.50942 85.7539C8.61863 85.3849 7.85726 84.7601 7.32159 83.9584C6.78591 83.1567 6.5 82.2142 6.5 81.25C6.5 79.9571 7.01361 78.7171 7.92785 77.8029C8.84209 76.8886 10.0821 76.375 11.375 76.375V76.375Z" fill="url(#paint10_linear_25_226)"/>
<defs>
<linearGradient id="paint0_linear_25_226" x1="97.5" y1="-9.65088" x2="-13.7499" y2="71.3137" gradientUnits="userSpaceOnUse">
<stop offset="0.145833" stop-color="#4E9CFB"/>
<stop offset="0.458333" stop-color="#DA7FDC"/>
<stop offset="0.723958" stop-color="#989AFA"/>
</linearGradient>
<linearGradient id="paint1_linear_25_226" x1="74.6417" y1="38.5039" x2="70.5839" y2="41.0636" gradientUnits="userSpaceOnUse">
<stop offset="0.145833" stop-color="#4E9CFB"/>
<stop offset="0.458333" stop-color="#DA7FDC"/>
<stop offset="0.723958" stop-color="#989AFA"/>
</linearGradient>
<linearGradient id="paint2_linear_25_226" x1="30.7667" y1="38.5039" x2="26.7089" y2="41.0636" gradientUnits="userSpaceOnUse">
<stop offset="0.145833" stop-color="#4E9CFB"/>
<stop offset="0.458333" stop-color="#DA7FDC"/>
<stop offset="0.723958" stop-color="#989AFA"/>
</linearGradient>
<linearGradient id="paint3_linear_25_226" x1="94.1417" y1="7.62888" x2="90.0839" y2="10.1886" gradientUnits="userSpaceOnUse">
<stop offset="0.145833" stop-color="#4E9CFB"/>
<stop offset="0.458333" stop-color="#DA7FDC"/>
<stop offset="0.723958" stop-color="#989AFA"/>
</linearGradient>
<linearGradient id="paint4_linear_25_226" x1="12.8917" y1="7.62888" x2="8.83394" y2="10.1886" gradientUnits="userSpaceOnUse">
<stop offset="0.145833" stop-color="#4E9CFB"/>
<stop offset="0.458333" stop-color="#DA7FDC"/>
<stop offset="0.723958" stop-color="#989AFA"/>
</linearGradient>
<linearGradient id="paint5_linear_25_226" x1="53.5167" y1="12.5039" x2="49.4589" y2="15.0636" gradientUnits="userSpaceOnUse">
<stop offset="0.145833" stop-color="#4E9CFB"/>
<stop offset="0.458333" stop-color="#DA7FDC"/>
<stop offset="0.723958" stop-color="#989AFA"/>
</linearGradient>
<linearGradient id="paint6_linear_25_226" x1="53.5167" y1="32.0039" x2="49.4589" y2="34.5636" gradientUnits="userSpaceOnUse">
<stop offset="0.145833" stop-color="#4E9CFB"/>
<stop offset="0.458333" stop-color="#DA7FDC"/>
<stop offset="0.723958" stop-color="#989AFA"/>
</linearGradient>
<linearGradient id="paint7_linear_25_226" x1="97.5" y1="89.5116" x2="93.3285" y2="115.827" gradientUnits="userSpaceOnUse">
<stop offset="0.145833" stop-color="#4E9CFB"/>
<stop offset="0.458333" stop-color="#DA7FDC"/>
<stop offset="0.723958" stop-color="#989AFA"/>
</linearGradient>
<linearGradient id="paint8_linear_25_226" x1="59.5833" y1="70.6444" x2="39.2947" y2="83.443" gradientUnits="userSpaceOnUse">
<stop offset="0.145833" stop-color="#4E9CFB"/>
<stop offset="0.458333" stop-color="#DA7FDC"/>
<stop offset="0.723958" stop-color="#989AFA"/>
</linearGradient>
<linearGradient id="paint9_linear_25_226" x1="100.208" y1="70.6444" x2="79.9197" y2="83.443" gradientUnits="userSpaceOnUse">
<stop offset="0.145833" stop-color="#4E9CFB"/>
<stop offset="0.458333" stop-color="#DA7FDC"/>
<stop offset="0.723958" stop-color="#989AFA"/>
</linearGradient>
<linearGradient id="paint10_linear_25_226" x1="18.9583" y1="70.6444" x2="-1.33029" y2="83.443" gradientUnits="userSpaceOnUse">
<stop offset="0.145833" stop-color="#4E9CFB"/>
<stop offset="0.458333" stop-color="#DA7FDC"/>
<stop offset="0.723958" stop-color="#989AFA"/>
</linearGradient>
</defs>
</svg>
