<svg width="111" height="74" viewBox="0 0 111 74" fill="none" xmlns="http://www.w3.org/2000/svg">
<path d="M29.3612 44.0854L16.0791 63.1575H30.7486L31.4359 62.2784L32.9763 61.8678L36.5954 61.0844L38.154 62.5026L45.5785 60.5835L58.2465 60.1334L60.8678 58.5129L65.7778 58.2791L71.1045 56.3082H83.2477L88.5342 54.6546L90.1786 55.7245L97.4174 55.0586L103.098 57.4966L107.036 63.1575H110.934V41.4288H34.4465C32.4194 41.4288 30.5204 42.4209 29.3612 44.0854Z" fill="url(#paint0_linear_25_264)"/>
<path d="M37.0224 2.08846L36.5205 3.19727L47.9383 8.37596L48.4402 7.26716L37.0224 2.08846Z" fill="url(#paint1_linear_25_264)"/>
<path d="M22.3691 27.5464L21.8131 25.0162L16.9872 27.1395L16.8916 32.0754L19.262 34.6537L29.02 33.2934L22.3691 27.5464Z" fill="url(#paint2_linear_25_264)"/>
<path d="M15.1562 23.1592L15.2747 24.2915L18.6737 23.9353L18.5528 25.2819L21.586 24.1054L36.4742 9.13846L41.4324 12.7906L47.0455 26.088L56.0265 28.5228H58.4423V31.1322H70.3503V28.5228H83.7108C84.2473 28.5228 84.6823 28.0874 84.6823 27.5503V20.0648C84.6823 19.9443 84.6564 19.8252 84.6065 19.7155L83.5693 17.4415C83.4327 17.142 83.134 16.9497 82.805 16.9497H81.251V15.861H79.3845V11.6245L80.2064 10.9114L79.8008 10.443L78.7652 11.3414V15.861H78.1512V11.8655H77.697V15.861H73.1322V16.9497H69.0171L68.109 11.6775C68.0782 11.4989 67.9977 11.3326 67.8765 11.1979L67.7749 11.0849C67.5928 10.8823 67.3335 10.7667 67.0613 10.7667H58.0264C57.8474 10.7667 57.6763 10.8407 57.5537 10.9711L56.8605 11.7083C56.7735 11.801 56.7155 11.9171 56.6937 12.0425L55.248 20.3774L52.0494 20.1581L49.606 9.50028L50.8862 9.09899L50.5787 8.11597L47.1461 9.19187L33.8293 3.01472L33.147 3.70986L30.6854 1.89319L30.0608 2.74117L30.9833 3.42189L16.0682 23.0635L15.1562 23.1592ZM82.4239 24.5351H74.6549V23.9614H82.4239V24.5351ZM82.4239 22.9628H74.6549V22.3891H82.4239V22.9628ZM82.4239 21.3905H74.6549V20.8168H82.4239V21.3905ZM82.4239 19.8182H74.6549V19.2445H82.4239V19.8182ZM68.1354 18.2246L64.3388 19.1416V13.359H67.2973L68.1354 18.2246ZM57.949 13.3589H63.1927V19.4184L56.6229 21.0052L57.949 13.3589ZM50.7816 20.0713L49.7586 20.0012L47.4538 10.1749L48.4418 9.86525L50.7816 20.0713ZM31.7364 3.97765L32.4021 4.46891L32.1309 4.74519L18.8562 21.9041L18.7775 22.7796L17.3449 22.9298L31.7364 3.97765Z" fill="url(#paint3_linear_25_264)"/>
<path d="M37.9353 35.9327L37.1631 35.9262V35.9331C37.1631 36.1943 37.1883 36.4558 37.2382 36.7101L37.9371 36.5728C37.9401 36.8007 37.9736 37.0211 38.0314 37.232L37.466 37.4659C37.5663 37.7085 37.6911 37.9427 37.8372 38.1618L38.2928 37.8573C38.408 38.0559 38.5464 38.2395 38.7073 38.4013L38.3361 38.7716C38.5215 38.9577 38.7258 39.1264 38.9433 39.2731L39.2489 38.8188C39.4427 38.9327 39.6516 39.0223 39.8724 39.0841L39.6373 39.6473C39.8799 39.7488 40.1335 39.8264 40.3914 39.8781L40.531 39.1811C40.547 39.1814 40.5626 39.1835 40.5787 39.1835H41.182L41.1758 39.9564H41.8844V39.1835H42.593V39.9564H43.3016V39.1835H44.0101V39.9564H44.7187V39.1835H45.4274V39.9564H46.136V39.1835H46.8445V39.9564H47.5531V39.1835H48.2618V39.9564H48.9704V39.1835H49.6789V39.9564H50.3875V39.1835H51.0961V39.9564H51.8046V39.1835H52.5132V39.9564H53.2219V39.1835H53.9304V39.9564H54.639V39.1835H55.3475V39.9564H56.0562V39.1835H56.7648V39.9564H57.4733V39.1835H58.1819V39.9564H58.8905V39.1835H59.5991V39.9564H60.3077V39.1835H61.0163V39.9564H61.7249V39.1835H62.4334V39.9564H63.142V39.1835H63.8506V39.9564H64.5592V39.1835H65.2678V39.9564H65.9764V39.1835H66.685V39.9564H67.3936V39.1835H68.1021V39.9564H68.8107V39.1835H69.5193V39.9564H70.228V39.1835H70.9364V39.9564H71.6451V39.1835H72.3537V39.9564H73.0624V39.1835H73.7708V39.9564H74.4795V39.1835H75.1881V39.9564H75.8967V39.1835H76.6052V39.9564H77.3138V39.1835H78.0224V39.9564H78.0375C78.3009 39.9564 78.5646 39.9305 78.8212 39.8796L78.683 39.1814C78.9106 39.1778 79.1309 39.1441 79.3415 39.0857L79.5759 39.65C79.8182 39.5492 80.0518 39.4237 80.2703 39.2771L79.9657 38.822C80.1637 38.7062 80.347 38.5676 80.5083 38.4061L80.8786 38.7766C81.0646 38.5905 81.2328 38.3855 81.3785 38.1676L80.9238 37.8628C81.0371 37.6685 81.1259 37.4591 81.187 37.238L81.7511 37.4724C81.852 37.2292 81.9291 36.9752 81.9801 36.7172L81.2826 36.5788C81.2828 36.5649 81.2847 36.5514 81.2847 36.5375V35.9327H82.0568C82.0568 35.6687 82.0309 35.4046 81.9798 35.1478L81.2825 35.2868C81.2789 35.0588 81.2452 34.8382 81.1868 34.6274L81.7505 34.3927C81.6498 34.1502 81.5244 33.9163 81.3777 33.6976L80.9233 34.0028C80.8076 33.8046 80.6689 33.6211 80.5076 33.4597L80.8777 33.0889C80.6919 32.903 80.4872 32.7347 80.2694 32.5886L79.9647 33.0438C79.7708 32.9304 79.5616 32.8417 79.3408 32.7805L79.5749 32.2158C79.3321 32.1149 79.0784 32.0378 78.8205 31.9866L78.682 32.685C78.6683 32.6848 78.655 32.6829 78.6413 32.6829H78.0365V31.91H77.328V32.6829H76.6193V31.91H75.9108V32.6829H75.2022V31.91H74.4936V32.6829H73.785V31.91H73.0764V32.6829H72.3678V31.91H71.6592V32.6829H70.9506V31.91H70.2421V32.6829H69.5335V31.91H68.8248V32.6829H68.1162V31.91H67.4077V32.6829H66.6991V31.91H65.9905V32.6829H65.2819V31.91H64.5734V32.6829H63.8648V31.91H63.1562V32.6829H62.4476V31.91H61.7391V32.6829H61.0304V31.91H60.3218V32.6829H59.6133V31.91H58.9047V32.6829H58.1961V31.91H57.4875V32.6829H56.779V31.91H56.0704V32.6829H55.3618V31.91H54.6531V32.6829H53.9446V31.91H53.2359V32.6829H52.5274V31.91H51.8187V32.6829H51.1102V31.91H50.4017V32.6829H49.6931V31.91H48.9846V32.6829H48.276V31.91H47.5674V32.6829H46.8588V31.91H46.1503V32.6829H45.4416V31.91H44.733V32.6829H44.0243V31.91H43.3159V32.6829H42.6072V31.91H41.8986V32.6829H41.183L41.19 31.91H41.1825C40.9216 31.91 40.6606 31.9354 40.4068 31.9853L40.544 32.6847C40.3163 32.6877 40.0961 32.7212 39.8854 32.779L39.6517 32.2131C39.409 32.3136 39.1751 32.4385 38.9565 32.5846L39.2606 33.0405C39.0622 33.1558 38.8788 33.2944 38.7171 33.4554L38.3473 33.0839C38.1613 33.2693 37.9927 33.4738 37.8461 33.6916L38.2999 33.9976C38.1862 34.1915 38.0965 34.4005 38.0347 34.6215L37.4722 34.3862C37.3709 34.629 37.2932 34.8829 37.2415 35.1409L37.9378 35.2808C37.9375 35.2969 37.9354 35.3127 37.9354 35.3289V35.9327H37.9353Z" fill="url(#paint4_linear_25_264)"/>
<path d="M53.0522 62.4216L56.1331 61.4401L56.7369 61.0668L45.6576 61.4605L38.9268 63.2056L39.1401 63.3998L43.524 63.461L45.0653 62.8438L46.8901 63.508L51.8971 63.5779L53.0522 62.4216Z" fill="url(#paint5_linear_25_264)"/>
<path d="M78.0754 62.3759L79.6635 59.9999L82.2071 57.1857L71.2614 57.1873L67.4561 58.5954L72.238 61.8705L75.9909 63.5235L79.3619 63.4552L78.0754 62.3759Z" fill="url(#paint6_linear_25_264)"/>
<path d="M97.2757 55.9545L91.3662 56.4973L92.0326 56.9308L97.229 60.6964L95.3031 63.3472H106.098L102.521 58.2053L97.2757 55.9545Z" fill="url(#paint7_linear_25_264)"/>
<path d="M74.4462 63.8037L71.7753 62.6191L66.6617 59.1169L61.136 59.3805L56.4508 62.2616L53.5218 63.1943L52.1426 64.5749H60.1749L73.5653 64.2557L74.4462 63.8037Z" fill="url(#paint8_linear_25_264)"/>
<path d="M42.9514 64.6371L42.418 65.4377L44.1514 65.8232L45.9795 65.1941L46.1091 64.1593L45.0798 63.7848L42.9514 64.6371Z" fill="url(#paint9_linear_25_264)"/>
<path d="M37.7619 63.3344L36.339 62.0396L33.172 62.7249L31.9463 63.052L30.9072 64.3812L35.709 64.61L37.7619 63.3344Z" fill="url(#paint10_linear_25_264)"/>
<path d="M96.0013 60.8918L91.5362 57.6555L88.4026 55.6171L83.3936 57.1837L80.3368 60.5657L79.2432 62.2081L82.1435 64.6419L88.4926 64.6131L93.7143 64.0398L96.0013 60.8918Z" fill="url(#paint11_linear_25_264)"/>
<path d="M111 67.7549H0.771484V69.3035H111V67.7549Z" fill="url(#paint12_linear_25_264)"/>
<path d="M111 71.6748H0.771484V73.2234H111V71.6748Z" fill="url(#paint13_linear_25_264)"/>
<path d="M97.0763 15.6876C101.404 15.6876 104.912 12.1762 104.912 7.84375C104.912 3.51202 101.404 0 97.0763 0C92.7485 0 89.2402 3.51202 89.2402 7.84375C89.2402 12.1762 92.7485 15.6876 97.0763 15.6876ZM97.0763 1.49446C100.573 1.49446 103.419 4.34321 103.419 7.84534C103.419 11.3459 100.573 14.1924 97.0763 14.1924C93.578 14.1924 90.7336 11.3459 90.7336 7.84534C90.7336 4.34321 93.578 1.49446 97.0763 1.49446Z" fill="url(#paint14_linear_25_264)"/>
<defs>
<linearGradient id="paint0_linear_25_264" x1="107.772" y1="38.1119" x2="88.484" y2="91.227" gradientUnits="userSpaceOnUse">
<stop offset="0.145833" stop-color="#4E9CFB"/>
<stop offset="0.458333" stop-color="#DA7FDC"/>
<stop offset="0.723958" stop-color="#989AFA"/>
</linearGradient>
<linearGradient id="paint1_linear_25_264" x1="35.2628" y1="1.33489" x2="34.5066" y2="3.31591" gradientUnits="userSpaceOnUse">
<stop offset="0.145833" stop-color="#4E9CFB"/>
<stop offset="0.458333" stop-color="#DA7FDC"/>
<stop offset="0.723958" stop-color="#989AFA"/>
</linearGradient>
<linearGradient id="paint2_linear_25_264" x1="28.6157" y1="23.5451" x2="15.6307" y2="33.8535" gradientUnits="userSpaceOnUse">
<stop offset="0.145833" stop-color="#4E9CFB"/>
<stop offset="0.458333" stop-color="#DA7FDC"/>
<stop offset="0.723958" stop-color="#989AFA"/>
</linearGradient>
<linearGradient id="paint3_linear_25_264" x1="82.3648" y1="-2.57019" x2="45.027" y2="53.4368" gradientUnits="userSpaceOnUse">
<stop offset="0.145833" stop-color="#4E9CFB"/>
<stop offset="0.458333" stop-color="#DA7FDC"/>
<stop offset="0.723958" stop-color="#989AFA"/>
</linearGradient>
<linearGradient id="paint4_linear_25_264" x1="80.5603" y1="30.6817" x2="74.7075" y2="51.2815" gradientUnits="userSpaceOnUse">
<stop offset="0.145833" stop-color="#4E9CFB"/>
<stop offset="0.458333" stop-color="#DA7FDC"/>
<stop offset="0.723958" stop-color="#989AFA"/>
</linearGradient>
<linearGradient id="paint5_linear_25_264" x1="56.1432" y1="60.6834" x2="54.6642" y2="67.3006" gradientUnits="userSpaceOnUse">
<stop offset="0.145833" stop-color="#4E9CFB"/>
<stop offset="0.458333" stop-color="#DA7FDC"/>
<stop offset="0.723958" stop-color="#989AFA"/>
</linearGradient>
<linearGradient id="paint6_linear_25_264" x1="81.7154" y1="56.2182" x2="73.5567" y2="68.1969" gradientUnits="userSpaceOnUse">
<stop offset="0.145833" stop-color="#4E9CFB"/>
<stop offset="0.458333" stop-color="#DA7FDC"/>
<stop offset="0.723958" stop-color="#989AFA"/>
</linearGradient>
<linearGradient id="paint7_linear_25_264" x1="105.607" y1="54.826" x2="95.6418" y2="67.3529" gradientUnits="userSpaceOnUse">
<stop offset="0.145833" stop-color="#4E9CFB"/>
<stop offset="0.458333" stop-color="#DA7FDC"/>
<stop offset="0.723958" stop-color="#989AFA"/>
</linearGradient>
<linearGradient id="paint8_linear_25_264" x1="73.7027" y1="58.2838" x2="68.6109" y2="71.4097" gradientUnits="userSpaceOnUse">
<stop offset="0.145833" stop-color="#4E9CFB"/>
<stop offset="0.458333" stop-color="#DA7FDC"/>
<stop offset="0.723958" stop-color="#989AFA"/>
</linearGradient>
<linearGradient id="paint9_linear_25_264" x1="45.9861" y1="63.4736" x2="43.1909" y2="66.6665" gradientUnits="userSpaceOnUse">
<stop offset="0.145833" stop-color="#4E9CFB"/>
<stop offset="0.458333" stop-color="#DA7FDC"/>
<stop offset="0.723958" stop-color="#989AFA"/>
</linearGradient>
<linearGradient id="paint10_linear_25_264" x1="37.5334" y1="61.6472" x2="34.4096" y2="66.9022" gradientUnits="userSpaceOnUse">
<stop offset="0.145833" stop-color="#4E9CFB"/>
<stop offset="0.458333" stop-color="#DA7FDC"/>
<stop offset="0.723958" stop-color="#989AFA"/>
</linearGradient>
<linearGradient id="paint11_linear_25_264" x1="95.4427" y1="54.2394" x2="83.1124" y2="68.683" gradientUnits="userSpaceOnUse">
<stop offset="0.145833" stop-color="#4E9CFB"/>
<stop offset="0.458333" stop-color="#DA7FDC"/>
<stop offset="0.723958" stop-color="#989AFA"/>
</linearGradient>
<linearGradient id="paint12_linear_25_264" x1="107.326" y1="67.5185" x2="107.23" y2="71.801" gradientUnits="userSpaceOnUse">
<stop offset="0.145833" stop-color="#4E9CFB"/>
<stop offset="0.458333" stop-color="#DA7FDC"/>
<stop offset="0.723958" stop-color="#989AFA"/>
</linearGradient>
<linearGradient id="paint13_linear_25_264" x1="107.326" y1="71.4384" x2="107.23" y2="75.7209" gradientUnits="userSpaceOnUse">
<stop offset="0.145833" stop-color="#4E9CFB"/>
<stop offset="0.458333" stop-color="#DA7FDC"/>
<stop offset="0.723958" stop-color="#989AFA"/>
</linearGradient>
<linearGradient id="paint14_linear_25_264" x1="104.39" y1="-2.39473" x2="84.8119" y2="9.94352" gradientUnits="userSpaceOnUse">
<stop offset="0.145833" stop-color="#4E9CFB"/>
<stop offset="0.458333" stop-color="#DA7FDC"/>
<stop offset="0.723958" stop-color="#989AFA"/>
</linearGradient>
</defs>
</svg>
