<svg width="400" height="614" fill="none" xmlns="http://www.w3.org/2000/svg"><path d="M325.981 392.904v-2.457a65.785 65.785 0 00-5.445-26.103 62.615 62.615 0 0011.436 3.773 61.565 61.565 0 0039.056-3.992 65.1 65.1 0 00-5.704 26.419v2.613a62.505 62.505 0 005.335 24.987 62.279 62.279 0 00-50.121-.004 62.389 62.389 0 005.443-25.236z" fill="url(#paint0_linear_25_203)" stroke="#544E87"/><path d="M116.416 130.715a62.31 62.31 0 00-2.039-10.091l-.48.139.479-.143a62.373 62.373 0 00-22.809-32.448 62.182 62.182 0 0023.552-7.864h.001l4.262-2.433.003-.001a62.202 62.202 0 0018.486-16.333 61.911 61.911 0 0017.925 36.894h.001a63.174 63.174 0 006.771 5.794 59.165 59.165 0 00-23.14 7.474l-.002.001-5.335 3.076-.002.002a58.478 58.478 0 00-17.673 15.933z" fill="url(#paint1_linear_25_203)" stroke="#544E87"/><path d="M260.46 423.93h0a69.224 69.224 0 01-129.709-27.776 44.771 44.771 0 00-21.994-35.44l-.118-.069h-.12a43.486 43.486 0 00-15.206-5.215 62.49 62.49 0 0021.32-32.787l.001-.001a62.146 62.146 0 001.351-6.671 43.711 43.711 0 0012.265 10.521h0l.009.005.383.211.003.002a44.547 44.547 0 0041.348 1.435 69.228 69.228 0 0180.1 14.961 69.226 69.226 0 0110.367 80.824zm-36.377-56.805l.022-.022-.352-.353a33.856 33.856 0 00-36.876-7.409 33.852 33.852 0 00-15.294 50.05 33.86 33.86 0 0015.165 12.5 33.852 33.852 0 0036.906-7.257h0a33.854 33.854 0 00.429-47.509z" fill="url(#paint2_linear_25_203)" stroke="#544E87"/><path d="M1.388 296.81a53.65 53.65 0 0114.172-27.549 66.388 66.388 0 0018.97-46.14v-2.616a64.754 64.754 0 00-18.738-44.972 53.666 53.666 0 0168.35-81.965 53.664 53.664 0 0122.923 54.723 53.673 53.673 0 01-14.357 27.455 64.557 64.557 0 00-18.836 45.032v2.456a65.122 65.122 0 0018.522 45.678l.357-.348-.355.349a53.65 53.65 0 01-8.385 82.185A53.649 53.649 0 011.388 296.81zm60.067-131.951A27.58 27.58 0 0079.16 126.05a27.584 27.584 0 10-17.706 38.809zm-.253 115.078a27.582 27.582 0 00-30.9 40.536 27.585 27.585 0 0050.511-6.825 27.583 27.583 0 00-19.611-33.711z" fill="url(#paint3_linear_25_203)" stroke="#544E87"/><path d="M397.794 150.682h.074a53.667 53.667 0 01-103.874 2.149l-.001-.001a66.5 66.5 0 00-30.78-39.471l-.503-.291h-.002a65.608 65.608 0 00-49.205-7.004l-.004.001a53.644 53.644 0 01-56.037-19.21A53.646 53.646 0 01206.04.843a53.644 53.644 0 0145.384 38.069 68.08 68.08 0 0030.951 40.07l.005.002.545.312.002.001a68.16 68.16 0 0050.132 6.787 53.685 53.685 0 0164.872 63.989l-.137.609zm-44.65-38.945v-.023l-.371-.099a27.581 27.581 0 00-34.657 24.876 27.586 27.586 0 0031.186 29.109 27.584 27.584 0 0023.004-20.274h0a27.585 27.585 0 00-19.162-33.589zM219.43 34.602a27.581 27.581 0 00-42.44 4.178 27.584 27.584 0 1042.44-4.178z" fill="url(#paint4_linear_25_203)" stroke="#544E87"/><path d="M293.029 317.34a44.507 44.507 0 00-21.326-30.147v-.001l-.011-.006-.383-.21-.003-.002a44.535 44.535 0 00-41.348-1.436 69.242 69.242 0 11-57.526-125.954 69.241 69.241 0 0196.788 57.945 44.769 44.769 0 0021.994 35.441l.117.069h.121a44.81 44.81 0 0036.96 3.223 53.663 53.663 0 0154.758 12.212 53.663 53.663 0 0114.005 54.172l-.117.078-.052.17a53.668 53.668 0 01-103.977-5.554zm0 0v.001l-.491.093m.491-.094v-.001l-.491.095m0 0a54.172 54.172 0 0050.284 43.768 54.166 54.166 0 0054.662-38.161m-104.946-5.607a43.997 43.997 0 00-21.087-29.809l-.389-.215a44.035 44.035 0 00-40.888-1.421l167.31 37.052m0 0l.117-.077-.117.077zM224.103 199.148a33.856 33.856 0 00-36.876-7.408 33.845 33.845 0 00-15.216 12.437 33.847 33.847 0 0015.087 50.112 33.854 33.854 0 0037.005-55.141zm128.649 81.295a27.59 27.59 0 00-34.587 24.951 27.585 27.585 0 0031.224 29.05 27.588 27.588 0 0022.974-20.29 27.583 27.583 0 00-19.611-33.711z" fill="url(#paint5_linear_25_203)" stroke="#544E87"/><path d="M293.645 461.738a60.454 60.454 0 01-27.917 37.164l-.004.002-5.335 3.076-.004.002a61.379 61.379 0 01-46.62 5.713 53.678 53.678 0 00-31.207 1.081 53.673 53.673 0 00-28.914 77.921 53.67 53.67 0 0082.118 12.814 53.657 53.657 0 0016.182-26.709l.002-.004a60.18 60.18 0 0128.545-36.988l.002-.002 4.178-2.41.002-.001a60.198 60.198 0 0146.314-6.242l.005.001a53.452 53.452 0 0030.174-.344l-.004-.023a53.66 53.66 0 0036.553-38.812 53.67 53.67 0 00-14.949-51.176 53.662 53.662 0 00-51.698-13.033 53.67 53.67 0 00-37.423 37.97zm0 0v.003l-.484-.128.485.124-.001.001zm-73.455 79.133h.054l-.853-.853a27.592 27.592 0 00-14.123-7.551 27.584 27.584 0 1014.123 46.556h0a27.582 27.582 0 00.799-38.152zm149.163-51.6a27.584 27.584 0 002.955-20.265h.027l-.166-.628a27.59 27.59 0 00-22.997-20.279 27.588 27.588 0 00-27.528 13.5 27.58 27.58 0 001.952 30.598 27.582 27.582 0 0029.021 9.892h0a27.586 27.586 0 0016.736-12.818z" fill="url(#paint6_linear_25_203)" stroke="#544E87"/><path d="M155.62 515.366l-.001.001a61.945 61.945 0 00-17.935 37.643 65.799 65.799 0 00-20.206-18.348l-.004-.002-.545-.311-.002-.002a68.163 68.163 0 00-50.191-6.767 53.664 53.664 0 01-55.64-20.213 53.668 53.668 0 1194.764-46.515l.001.001a66.503 66.503 0 0030.78 39.472s0 0 0 0l.506.292h.001a67.103 67.103 0 0025.792 8.512 63.166 63.166 0 00-7.32 6.237zm-94.28-66.619l-.064-.018h-.099a27.585 27.585 0 00-30.933 40.492 27.589 27.589 0 0027.526 13.511 27.582 27.582 0 0023.003-20.275 27.582 27.582 0 00-19.433-33.71z" fill="url(#paint7_linear_25_203)" stroke="#544E87"/><defs><linearGradient id="paint0_linear_25_203" x1="370.304" y1="354.535" x2="302.361" y2="394.7" gradientUnits="userSpaceOnUse"><stop offset=".146" stop-color="#4E9CFB"/><stop offset=".458" stop-color="#DA7FDC"/><stop offset=".724" stop-color="#989AFA"/></linearGradient><linearGradient id="paint1_linear_25_203" x1="161.479" y1="49.239" x2="70.789" y2="107.921" gradientUnits="userSpaceOnUse"><stop offset=".146" stop-color="#4E9CFB"/><stop offset=".458" stop-color="#DA7FDC"/><stop offset=".724" stop-color="#989AFA"/></linearGradient><linearGradient id="paint2_linear_25_203" x1="263.578" y1="292.492" x2="68.871" y2="442.103" gradientUnits="userSpaceOnUse"><stop offset=".146" stop-color="#4E9CFB"/><stop offset=".458" stop-color="#DA7FDC"/><stop offset=".724" stop-color="#989AFA"/></linearGradient><linearGradient id="paint3_linear_25_203" x1="104.903" y1="41.812" x2="-73.576" y2="85.979" gradientUnits="userSpaceOnUse"><stop offset=".146" stop-color="#4E9CFB"/><stop offset=".458" stop-color="#DA7FDC"/><stop offset=".724" stop-color="#989AFA"/></linearGradient><linearGradient id="paint4_linear_25_203" x1="391.275" y1="-29.378" x2="129.46" y2="188.513" gradientUnits="userSpaceOnUse"><stop offset=".146" stop-color="#4E9CFB"/><stop offset=".458" stop-color="#DA7FDC"/><stop offset=".724" stop-color="#989AFA"/></linearGradient><linearGradient id="paint5_linear_25_203" x1="391.014" y1="121.523" x2="109.007" y2="352.055" gradientUnits="userSpaceOnUse"><stop offset=".146" stop-color="#4E9CFB"/><stop offset=".458" stop-color="#DA7FDC"/><stop offset=".724" stop-color="#989AFA"/></linearGradient><linearGradient id="paint6_linear_25_203" x1="391.234" y1="391.907" x2="129.435" y2="609.827" gradientUnits="userSpaceOnUse"><stop offset=".146" stop-color="#4E9CFB"/><stop offset=".458" stop-color="#DA7FDC"/><stop offset=".724" stop-color="#989AFA"/></linearGradient><linearGradient id="paint7_linear_25_203" x1="158.83" y1="400.9" x2="-19.759" y2="539.859" gradientUnits="userSpaceOnUse"><stop offset=".146" stop-color="#4E9CFB"/><stop offset=".458" stop-color="#DA7FDC"/><stop offset=".724" stop-color="#989AFA"/></linearGradient></defs></svg>