<svg width="84" height="23" fill="none" xmlns="http://www.w3.org/2000/svg"><path fill="#000" d="M.05 0H84v23H.05z"/><path fill="#FFBA09" d="M61 0h23v23H61z"/><path d="M71.902 4.6c2.155 0 3.916.654 5.283 1.961 1.367 1.308 2.05 2.955 2.05 4.939 0 1.971-.687 3.615-2.06 4.929S74.044 18.4 71.902 18.4h-5.383v-2.769h3.036v.029h2.346c1.249 0 2.254-.385 3.017-1.153.762-.77 1.143-1.771 1.143-3.007 0-1.222-.384-2.22-1.153-2.997-.769-.775-1.771-1.163-3.007-1.163h-2.346v5.613H66.52V4.6h5.383z" fill="#000"/><path d="M4.892 10.35l-1.07-6.647h1.012l.69 4.899.886-4.9h.943l.885 4.877.69-4.876H9.94L8.836 10.35H7.801l-.908-4.692-.897 4.692H4.892zm7.83.092c-.521 0-.924-.1-1.207-.3-.284-.206-.484-.505-.599-.896-.107-.399-.16-.886-.16-1.46v-1.52c0-.59.057-1.08.172-1.472.115-.39.314-.686.598-.885.291-.2.69-.3 1.196-.3.56 0 .97.116 1.23.346.269.23.445.563.53 1 .084.43.126.947.126 1.553v.54h-2.622v1.334c0 .269.023.487.069.656a.759.759 0 00.242.38c.114.076.26.114.436.114.184 0 .322-.042.415-.126a.67.67 0 00.195-.38c.038-.168.057-.364.057-.586v-.403h1.197v.253c0 .667-.142 1.192-.426 1.576-.284.383-.767.575-1.449.575zm-.736-4.06H13.4v-.598c0-.276-.015-.506-.046-.69-.03-.191-.095-.333-.195-.425-.092-.1-.242-.15-.449-.15-.199 0-.352.046-.46.138-.1.092-.168.25-.207.472a5.399 5.399 0 00-.057.897v.356zm6.117 4.06c-.238 0-.453-.058-.644-.173a2.804 2.804 0 01-.483-.402v.483h-1.23V2.875h1.23v1.357c.146-.169.318-.315.517-.437.207-.123.453-.184.736-.184.345 0 .617.092.817.276.207.176.36.402.46.678.1.269.165.545.195.828.031.276.046.514.046.713v1.61c0 .468-.046.913-.138 1.334-.092.414-.257.752-.494 1.012-.238.253-.575.38-1.012.38zm-.253-.966c.214 0 .368-.077.46-.23.092-.161.15-.376.172-.644.023-.269.035-.564.035-.886v-1.61a5.71 5.71 0 00-.046-.759c-.03-.237-.096-.425-.196-.563-.1-.138-.256-.207-.471-.207-.161 0-.314.034-.46.103-.138.07-.26.146-.368.23v4.267c.107.084.234.157.38.218.153.054.317.08.494.08zm4.557.966c-.544 0-.981-.169-1.311-.506-.33-.345-.518-.798-.564-1.357l1.024-.31c.061.42.165.739.31.954.146.207.36.31.644.31.223 0 .391-.061.506-.184.115-.13.173-.303.173-.517 0-.192-.042-.364-.127-.518a1.735 1.735 0 00-.414-.471l-1.138-.978c-.23-.2-.426-.421-.587-.667-.153-.245-.23-.563-.23-.954 0-.353.07-.648.207-.886.146-.245.345-.43.598-.552.261-.13.564-.195.909-.195.529 0 .931.172 1.207.517.284.338.445.748.483 1.23l-.828.311a2.78 2.78 0 00-.138-.598.91.91 0 00-.253-.402.6.6 0 00-.425-.15c-.2 0-.36.07-.483.207a.688.688 0 00-.173.472c0 .115.023.23.07.345.053.107.141.214.264.322l1.173 1.08c.16.146.31.304.448.472.146.169.265.36.357.575.092.215.138.464.138.748 0 .375-.077.69-.23.943a1.466 1.466 0 01-.644.575 2.36 2.36 0 01-.966.184zm2.841-.092V5.175h1.23v5.175h-1.23zm0-5.75V3.45h1.23V4.6h-1.23zm4.318 5.842c-.345 0-.625-.066-.84-.196a1.167 1.167 0 01-.46-.552 2.321 2.321 0 01-.137-.84V4.52h-.702v-.816h.702v-.828h1.23v.828h1.07v.816h-1.07v4.255c0 .26.042.449.127.564.084.107.245.16.483.16a2.1 2.1 0 00.207-.01l.241-.024v.909a4.786 4.786 0 01-.425.046c-.13.015-.273.023-.426.023zm3.607 0c-.522 0-.924-.1-1.208-.3-.284-.206-.483-.505-.598-.896-.107-.399-.16-.886-.16-1.46v-1.52c0-.59.057-1.08.172-1.472.115-.39.314-.686.598-.885.291-.2.69-.3 1.196-.3.56 0 .97.116 1.23.346.269.23.445.563.53 1 .084.43.126.947.126 1.553v.54h-2.622v1.334c0 .269.023.487.069.656a.759.759 0 00.241.38c.115.076.26.114.437.114.184 0 .322-.042.414-.126a.67.67 0 00.196-.38c.038-.168.057-.364.057-.586v-.403h1.196v.253c0 .667-.142 1.192-.425 1.576-.284.383-.767.575-1.45.575zm-.736-4.06h1.414v-.598c0-.276-.015-.506-.046-.69-.03-.191-.096-.333-.195-.425-.092-.1-.242-.15-.449-.15-.2 0-.352.046-.46.138-.1.092-.169.25-.207.472a5.399 5.399 0 00-.057.897v.356zM5.662 19.608c-.56 0-.977-.204-1.253-.61-.276-.414-.414-1.112-.414-2.093v-1.288c0-.506.042-.974.126-1.403.085-.437.242-.786.472-1.046.237-.261.582-.391 1.035-.391.222 0 .425.05.61.149.183.1.348.222.494.368v-1.253h1.23v7.474h-1.23v-.425a2.07 2.07 0 01-.483.38 1.206 1.206 0 01-.587.138zm.31-.966c.116 0 .238-.02.369-.058.13-.046.26-.111.39-.195V14.03a1.77 1.77 0 00-.356-.195.987.987 0 00-.425-.093c-.284 0-.476.138-.575.414-.1.269-.15.595-.15.978v1.875c0 .306.016.586.046.839.039.245.111.44.219.587.107.138.268.207.483.207zm5.077.966c-.522 0-.924-.1-1.208-.3-.284-.206-.483-.506-.598-.896-.107-.4-.16-.886-.16-1.461v-1.518c0-.59.057-1.081.172-1.472.115-.391.314-.686.598-.886.291-.199.69-.298 1.196-.298.56 0 .97.115 1.23.345.268.23.445.563.53 1 .084.43.126.947.126 1.553v.54h-2.622v1.334c0 .268.023.487.069.655a.757.757 0 00.241.38c.115.077.26.115.437.115.184 0 .322-.042.414-.127a.67.67 0 00.196-.379 2.69 2.69 0 00.057-.587v-.402h1.196v.253c0 .667-.142 1.192-.425 1.575-.284.384-.767.576-1.45.576zm-.736-4.06h1.414v-.598c0-.276-.015-.506-.046-.69-.03-.192-.096-.333-.195-.425-.092-.1-.242-.15-.449-.15-.2 0-.353.046-.46.138-.1.092-.168.25-.207.471a5.389 5.389 0 00-.057.897v.357zm4.599 3.967L13.6 12.868h1.242l.817 5.348.828-5.348h1.196l-1.265 6.647h-1.506zm5.402.093c-.521 0-.924-.1-1.208-.3-.283-.206-.483-.506-.598-.896-.107-.4-.16-.886-.16-1.461v-1.518c0-.59.057-1.081.172-1.472.115-.391.314-.686.598-.886.291-.199.69-.298 1.196-.298.56 0 .97.115 1.23.345.269.23.445.563.53 1 .084.43.126.947.126 1.553v.54h-2.622v1.334c0 .268.023.487.069.655a.758.758 0 00.241.38.77.77 0 00.437.115c.184 0 .322-.042.414-.127a.67.67 0 00.196-.379 2.69 2.69 0 00.057-.587v-.402h1.196v.253c0 .667-.141 1.192-.425 1.575-.284.384-.767.576-1.45.576zm-.736-4.06h1.414v-.598c0-.276-.015-.506-.046-.69-.03-.192-.096-.333-.195-.425-.092-.1-.242-.15-.449-.15-.199 0-.352.046-.46.138-.1.092-.168.25-.207.471a5.4 5.4 0 00-.057.897v.357zm3.852 3.967v-7.474h1.23v7.474h-1.23zm4.34.093c-.49 0-.877-.1-1.16-.3a1.635 1.635 0 01-.61-.85 4.374 4.374 0 01-.173-1.3v-1.932c0-.498.058-.932.173-1.3.122-.367.325-.651.61-.85.283-.2.67-.3 1.16-.3.491 0 .875.1 1.15.3.284.199.484.482.599.85.122.368.184.802.184 1.3v1.932c0 .498-.062.931-.184 1.3a1.578 1.578 0 01-.598.85c-.276.2-.66.3-1.15.3zm0-.909c.238 0 .403-.069.495-.207.1-.138.157-.318.173-.54.023-.23.034-.468.034-.714v-2.081c0-.253-.011-.49-.034-.713a1.028 1.028 0 00-.173-.54c-.092-.146-.257-.219-.494-.219-.238 0-.407.073-.506.218-.1.138-.161.319-.184.541-.016.222-.023.46-.023.713v2.081c0 .246.007.483.023.713.023.223.084.403.184.541.1.138.268.207.506.207zm3.057 3.001v-8.832h1.23v.53a2.12 2.12 0 01.53-.438c.207-.122.452-.184.736-.184.345 0 .617.092.816.277.207.176.36.402.46.678.1.268.165.544.196.828.03.276.046.514.046.713v1.61c0 .468-.046.912-.138 1.334-.092.414-.26.751-.506 1.012-.238.253-.575.38-1.012.38a1.17 1.17 0 01-.633-.173 2.894 2.894 0 01-.494-.414v2.68h-1.23zm2.116-3.058c.215 0 .368-.077.46-.23.092-.162.15-.376.173-.645.023-.268.034-.563.034-.885v-1.61a5.71 5.71 0 00-.046-.759 1.217 1.217 0 00-.195-.563c-.1-.138-.257-.207-.472-.207-.16 0-.314.034-.46.103-.145.069-.272.15-.38.242v4.255c.116.084.246.157.392.218.145.054.31.08.494.08zm3.017.873v-6.647h1.138v.633c.223-.253.468-.44.736-.563.268-.123.544-.184.828-.184.245 0 .464.06.656.184.199.122.34.34.425.655.238-.291.495-.502.77-.633a2 2 0 01.886-.207c.215 0 .41.054.587.162.176.1.318.264.425.494.108.222.161.518.161.885v5.221h-1.127v-5.14c0-.322-.053-.537-.16-.644a.519.519 0 00-.415-.172c-.168 0-.345.05-.529.149a1.73 1.73 0 00-.506.391v5.416h-1.127v-5.14c0-.322-.053-.537-.16-.644a.519.519 0 00-.415-.172c-.169 0-.345.05-.529.149a1.956 1.956 0 00-.506.391v5.416H35.96zm9.656.093c-.521 0-.924-.1-1.207-.3-.284-.206-.483-.506-.598-.896-.108-.4-.161-.886-.161-1.461v-1.518c0-.59.057-1.081.172-1.472.115-.391.314-.686.598-.886.291-.199.69-.298 1.196-.298.56 0 .97.115 1.23.345.269.23.445.563.53 1 .084.43.126.947.126 1.553v.54H44.88v1.334c0 .268.023.487.07.655a.757.757 0 00.24.38.774.774 0 00.438.115c.184 0 .322-.042.413-.127a.67.67 0 00.196-.379c.038-.169.058-.364.058-.587v-.402h1.196v.253c0 .667-.142 1.192-.426 1.575-.284.384-.767.576-1.449.576zm-.736-4.06h1.415v-.598c0-.276-.016-.506-.046-.69-.031-.192-.096-.333-.196-.425-.092-.1-.241-.15-.448-.15-.2 0-.353.046-.46.138-.1.092-.17.25-.208.471a5.402 5.402 0 00-.057.897v.357zm3.736 3.967v-6.647h1.23v.656c.223-.207.469-.383.737-.529.268-.146.563-.218.885-.218.269 0 .472.069.61.207.145.137.245.31.299.517.061.207.092.418.092.633v5.381h-1.23V14.49c0-.238-.035-.422-.104-.552-.07-.13-.21-.196-.426-.196a.91.91 0 00-.437.127 2.444 2.444 0 00-.425.287v5.36h-1.23zm6.825.093c-.345 0-.625-.066-.84-.196a1.166 1.166 0 01-.46-.552 2.321 2.321 0 01-.137-.84v-4.335h-.702v-.817h.702v-1.943h1.23v1.943h1.07v.817h-1.07v4.255c0 .26.042.448.127.563.084.108.245.162.483.162.06 0 .13-.004.207-.012l.241-.023v.909a4.786 4.786 0 01-.425.045c-.13.016-.273.024-.426.024z" fill="#fff"/></svg>