<svg width="58" height="58" viewBox="0 0 58 58" fill="none" xmlns="http://www.w3.org/2000/svg">
<path d="M28.9998 14.59C25.1797 14.5953 21.5175 16.1151 18.8163 18.8164C16.115 21.5177 14.5951 25.1798 14.5898 29C15.3798 48.12 42.5898 48.11 43.4098 29C43.4046 25.1798 41.8847 21.5177 39.1834 18.8164C36.4822 16.1151 32.82 14.5953 28.9998 14.59ZM28.9998 41.41C25.7101 41.4047 22.5567 40.0955 20.2305 37.7693C17.9043 35.4431 16.5951 32.2897 16.5898 29C17.2698 12.54 40.7298 12.54 41.4098 29C41.4046 32.2897 40.0954 35.4431 37.7692 37.7693C35.443 40.0955 32.2896 41.4047 28.9998 41.41Z" fill="url(#paint0_linear_26_357)"/>
<path d="M29.0001 21.87C27.1099 21.8726 25.2979 22.6247 23.9614 23.9612C22.6248 25.2978 21.8728 27.1098 21.8701 29C22.2001 38.44 35.8001 38.44 36.1301 29C36.1275 27.1098 35.3754 25.2978 34.0389 23.9612C32.7023 22.6247 30.8903 21.8726 29.0001 21.87ZM29.0001 34.13C22.2201 33.92 22.2201 24.08 29.0001 23.87C35.7801 24.08 35.7801 33.92 29.0001 34.13Z" fill="url(#paint1_linear_26_357)"/>
<path d="M57 23.66H50.16C49.6504 21.6 48.8346 19.628 47.74 17.81L52.57 13C52.7563 12.8126 52.8608 12.5592 52.8608 12.295C52.8608 12.0308 52.7563 11.7774 52.57 11.59L46.44 5.43C46.2526 5.24375 45.9992 5.13921 45.735 5.13921C45.4708 5.13921 45.2174 5.24375 45.03 5.43L40.19 10.26C38.3678 9.17362 36.3971 8.3584 34.34 7.84V1C34.34 0.734784 34.2346 0.48043 34.0471 0.292893C33.8596 0.105357 33.6052 0 33.34 0H24.66C24.3948 0 24.1404 0.105357 23.9529 0.292893C23.7654 0.48043 23.66 0.734784 23.66 1V7.84C21.6029 8.3584 19.6322 9.17362 17.81 10.26L13 5.43C12.8126 5.24375 12.5592 5.13921 12.295 5.13921C12.0308 5.13921 11.7774 5.24375 11.59 5.43L5.43 11.56C5.24375 11.7474 5.13921 12.0008 5.13921 12.265C5.13921 12.5292 5.24375 12.7826 5.43 12.97L10.26 17.81C9.16535 19.628 8.34961 21.6 7.84 23.66H1C0.734784 23.66 0.48043 23.7654 0.292893 23.9529C0.105357 24.1404 0 24.3948 0 24.66V33.34C0 33.6052 0.105357 33.8596 0.292893 34.0471C0.48043 34.2346 0.734784 34.34 1 34.34H7.84C8.34961 36.4 9.16535 38.372 10.26 40.19L5.43 45C5.24375 45.1874 5.13921 45.4408 5.13921 45.705C5.13921 45.9692 5.24375 46.2226 5.43 46.41L11.56 52.54C11.7474 52.7263 12.0008 52.8308 12.265 52.8308C12.5292 52.8308 12.7826 52.7263 12.97 52.54L17.81 47.71C19.628 48.8046 21.6 49.6204 23.66 50.13V57C23.66 57.2652 23.7654 57.5196 23.9529 57.7071C24.1404 57.8946 24.3948 58 24.66 58H33.34C33.6052 58 33.8596 57.8946 34.0471 57.7071C34.2346 57.5196 34.34 57.2652 34.34 57V50.16C36.4 49.6504 38.372 48.8346 40.19 47.74L45 52.57C45.1874 52.7563 45.4408 52.8608 45.705 52.8608C45.9692 52.8608 46.2226 52.7563 46.41 52.57L52.54 46.44C52.7263 46.2526 52.8308 45.9992 52.8308 45.735C52.8308 45.4708 52.7263 45.2174 52.54 45.03L47.71 40.19C48.8046 38.372 49.6204 36.4 50.13 34.34H57C57.2652 34.34 57.5196 34.2346 57.7071 34.0471C57.8946 33.8596 58 33.6052 58 33.34V24.66C58 24.3948 57.8946 24.1404 57.7071 23.9529C57.5196 23.7654 57.2652 23.66 57 23.66ZM56 32.34H49.39C49.1653 32.3543 48.9497 32.4343 48.77 32.57C48.6008 32.72 48.4762 32.9138 48.41 33.13C47.9107 35.5081 46.9749 37.773 45.65 39.81C45.5361 39.9995 45.4837 40.2195 45.5 40.44C45.5255 40.6711 45.6235 40.8881 45.78 41.06L50.45 45.73L45.73 50.45L41.06 45.78C40.9536 45.683 40.8289 45.6083 40.6933 45.5602C40.5576 45.5122 40.4137 45.4917 40.27 45.5C40.1084 45.5196 39.9521 45.5705 39.81 45.65C37.773 46.9749 35.5081 47.9107 33.13 48.41C32.9026 48.4588 32.6993 48.5853 32.5551 48.7679C32.4109 48.9504 32.3348 49.1775 32.34 49.41V56H25.66V49.39C25.6652 49.1575 25.5891 48.9304 25.4449 48.7479C25.3007 48.5653 25.0974 48.4388 24.87 48.39C22.4919 47.8907 20.227 46.9549 18.19 45.63C18.0005 45.5161 17.7805 45.4637 17.56 45.48C17.3289 45.5055 17.1119 45.6035 16.94 45.76L12.27 50.43L7.55 45.71L12.22 41.04C12.3157 40.9348 12.3897 40.8118 12.4378 40.6779C12.4858 40.5441 12.507 40.402 12.5 40.26C12.482 40.0949 12.431 39.935 12.35 39.79C11.0251 37.753 10.0893 35.4881 9.59 33.11C9.52376 32.8938 9.39919 32.7 9.23 32.55C9.05031 32.4143 8.83473 32.3343 8.61 32.32H2V25.66H8.61C8.85784 25.6594 9.0966 25.5667 9.28 25.4C9.42267 25.2495 9.52875 25.0681 9.59 24.87C10.0893 22.4919 11.0251 20.227 12.35 18.19C12.4639 18.0005 12.5163 17.7805 12.5 17.56C12.4745 17.3289 12.3765 17.1119 12.22 16.94L7.55 12.27L12.27 7.55L16.94 12.22C17.1332 12.4016 17.3851 12.508 17.65 12.52C17.8395 12.5068 18.0239 12.4522 18.19 12.36C20.2287 11.0362 22.4928 10.0974 24.87 9.59C25.0862 9.52376 25.28 9.39919 25.43 9.23C25.5657 9.05031 25.6457 8.83473 25.66 8.61V2H32.34V8.61C32.3543 8.83473 32.4343 9.05031 32.57 9.23C32.72 9.39919 32.9138 9.52376 33.13 9.59C35.5072 10.0974 37.7713 11.0362 39.81 12.36C39.9761 12.4522 40.1605 12.5068 40.35 12.52C40.6149 12.508 40.8668 12.4016 41.06 12.22L45.73 7.55L50.45 12.27L45.78 16.94C45.6843 17.0452 45.6103 17.1682 45.5622 17.3021C45.5142 17.4359 45.493 17.578 45.5 17.72C45.518 17.8851 45.569 18.045 45.65 18.19C46.9749 20.227 47.9107 22.4919 48.41 24.87C48.4713 25.0681 48.5773 25.2495 48.72 25.4C48.9034 25.5667 49.1422 25.6594 49.39 25.66H56V32.34Z" fill="url(#paint2_linear_26_357)"/>
<defs>
<linearGradient id="paint0_linear_26_357" x1="42.4492" y1="10.2018" x2="6.51907" y2="32.9255" gradientUnits="userSpaceOnUse">
<stop offset="0.145833" stop-color="#4E9CFB"/>
<stop offset="0.458333" stop-color="#DA7FDC"/>
<stop offset="0.723958" stop-color="#989AFA"/>
</linearGradient>
<linearGradient id="paint1_linear_26_357" x1="35.6548" y1="19.7008" x2="17.8864" y2="30.949" gradientUnits="userSpaceOnUse">
<stop offset="0.145833" stop-color="#4E9CFB"/>
<stop offset="0.458333" stop-color="#DA7FDC"/>
<stop offset="0.723958" stop-color="#989AFA"/>
</linearGradient>
<linearGradient id="paint2_linear_26_357" x1="56.0667" y1="-8.8538" x2="-16.3481" y2="36.8272" gradientUnits="userSpaceOnUse">
<stop offset="0.145833" stop-color="#4E9CFB"/>
<stop offset="0.458333" stop-color="#DA7FDC"/>
<stop offset="0.723958" stop-color="#989AFA"/>
</linearGradient>
</defs>
</svg>
