<svg width="60" height="43" fill="none" xmlns="http://www.w3.org/2000/svg"><path d="M59.032 32.903a.968.968 0 00.968-.967v-3.872a.968.968 0 00-.968-.967H56.13V10.645a.968.968 0 00-.968-.968h-1.935V4.84a.968.968 0 00-.968-.968h-5.806a.968.968 0 00-.968.968v4.838h-7.742a.968.968 0 00-.968.968V21.29h-3.87V4.84a.968.968 0 00-.969-.968H21.29V.968A.968.968 0 0020.323 0H8.71a.968.968 0 00-.968.968v10.645H4.839a.968.968 0 00-.968.968v14.516H.968a.968.968 0 00-.968.967v3.872a.968.968 0 00.968.967H3.87v3.871H.968a.968.968 0 00-.968.968v3.87a.968.968 0 00.968.969h58.064a.968.968 0 00.968-.968v-3.871a.968.968 0 00-.968-.968H56.13v-3.87h2.903zM47.42 5.806h3.871v3.871h-3.87v-3.87zm-2.903 5.807h3.871v5.806h-3.87v-5.806zm-5.806 0h3.87v6.774a.968.968 0 00.968.968h5.807a.968.968 0 00.968-.968v-6.774h3.87v15.484H38.71V11.613zm-5.807 11.613h3.871v3.87h-3.87v-3.87zm-7.742-17.42h1.936v1.936H25.16V5.806zm-3.87 0h1.935V8.71a.968.968 0 00.968.967h3.87a.968.968 0 00.968-.967V5.806h1.936v9.678H21.29V5.806zm5.806 11.613v1.936H25.16v-1.936h1.936zm-5.807 0h1.936v2.904a.968.968 0 00.968.967h3.87a.968.968 0 00.968-.967v-2.904h1.936v9.678H21.29v-9.678zM13.548 1.935h1.936v1.936h-1.936V1.935zm-3.87 0h1.935V4.84a.968.968 0 00.968.967h3.87a.968.968 0 00.968-.967V1.935h1.936v9.678H9.677V1.935zm4.838 11.613v3.871h-3.87v-3.87h3.87zm-8.71 0H8.71v4.84a.968.968 0 00.967.967h5.807a.968.968 0 00.968-.968v-4.839h2.903v13.549H5.806V13.548zM58.065 38.71v1.935H1.934V38.71h56.13zM5.806 36.774v-3.87h1.936v3.87H5.806zm3.871 0v-3.87h17.42v3.87H9.677zm19.355 0v-3.87h1.936v3.87h-1.936zm3.871 0v-3.87h17.42v3.87h-17.42zm19.355 0v-3.87h1.935v3.87h-1.935zM1.935 30.968v-1.936h56.13v1.936H1.934z" fill="url(#paint0_linear_25_118)"/><defs><linearGradient id="paint0_linear_25_118" x1="58" y1="-6.5" x2="-.5" y2="45.5" gradientUnits="userSpaceOnUse"><stop offset=".146" stop-color="#4E9CFB"/><stop offset=".458" stop-color="#DA7FDC"/><stop offset=".724" stop-color="#989AFA"/></linearGradient></defs></svg>