<svg width="60" height="40" fill="none" xmlns="http://www.w3.org/2000/svg"><path d="M59.917 23.307L54.052 9.04a1.035 1.035 0 00-.952-.64H42.228a1.034 1.034 0 00-1.035 1.034v18.849h-2.472V1.034A1.035 1.035 0 0037.686 0H10.345A1.035 1.035 0 009.31 1.034v5.887H4.252a1.035 1.035 0 000 2.069H9.31v2.834H1.034a1.035 1.035 0 000 2.07H9.31v2.823H6.683a1.035 1.035 0 000 2.07H9.31v2.834H1.034a1.035 1.035 0 000 2.069H9.31v10.138a1.035 1.035 0 001.035 1.034h7.003a5.628 5.628 0 0011.07 0h16.737a5.628 5.628 0 0011.07 0h2.74A1.034 1.034 0 0060 33.828V23.7a1.034 1.034 0 00-.083-.393zm-2.493-.641h-7.241V10.469h2.276l4.965 12.197zm-16.23 10.127H28.416a5.72 5.72 0 00-1.107-2.441h13.883v2.441zM24.01 21.621H11.38v-2.835h14.906a1.034 1.034 0 100-2.069H11.38v-2.824h3.952a1.034 1.034 0 100-2.069H11.38V8.99h12.63a1.034 1.034 0 100-2.07H11.38V2.07h25.272v26.214H11.379V23.69H24.01a1.034 1.034 0 100-2.07zm-12.63 8.73h7.075a5.596 5.596 0 00-1.107 2.442H11.38v-2.441zm11.503 7.035a3.56 3.56 0 01-.797-7.034h1.593a3.559 3.559 0 01-.796 7.034zm27.807 0a3.57 3.57 0 113.569-3.569 3.58 3.58 0 01-3.57 3.57zm5.534-4.593a5.628 5.628 0 00-11.069 0h-1.893V10.47h4.8V23.7a1.034 1.034 0 001.035 1.035h8.834v8.058h-1.707z" fill="url(#paint0_linear_25_111)"/><defs><linearGradient id="paint0_linear_25_111" x1="58" y1="-6.025" x2="3.445" y2="46.29" gradientUnits="userSpaceOnUse"><stop offset=".146" stop-color="#4E9CFB"/><stop offset=".458" stop-color="#DA7FDC"/><stop offset=".724" stop-color="#989AFA"/></linearGradient></defs></svg>