<svg width="60" height="60" fill="none" xmlns="http://www.w3.org/2000/svg"><path d="M50.747 22.333l-3.685-4.066 1.153-5.361a.955.955 0 00-.642-1.106l-5.218-1.688-1.676-5.218a.966.966 0 00-1.106-.642l-5.361 1.153-4.066-3.685a.935.935 0 00-1.272 0L24.81 5.405l-5.361-1.153a.955.955 0 00-1.106.642l-1.688 5.218-5.23 1.688a.966.966 0 00-.642 1.106l1.153 5.361-3.685 4.066a.935.935 0 000 1.272l3.685 4.065-1.153 5.361a.955.955 0 00.642 1.106l5.218 1.688.214.678-6.205 17.2a.926.926 0 00.297 1.059c.31.25.749.285 1.094.071l6.336-3.875 2.39 7.025c.13.38.486.642.89.642h.013c.404 0 .76-.25.891-.63l5.314-14.693.998.904a.95.95 0 001.284 0l.999-.904 5.314 14.693c.13.38.499.63.891.63h.012c.404 0 .76-.261.892-.642l2.389-7.025 6.336 3.875a.948.948 0 001.39-1.13l-6.216-17.189.214-.677 5.218-1.688a.966.966 0 00.642-1.106l-1.153-5.36 3.685-4.067a.976.976 0 00-.024-1.283zM21.683 54.809l-1.902-5.587a.992.992 0 00-.583-.594.912.912 0 00-.82.083l-5.04 3.079 4.457-12.328.511 1.582a.966.966 0 001.106.642l5.361-1.154 1.546 1.403-4.636 12.874zm23.965-3.007l-5.04-3.08a.95.95 0 00-.82-.082.935.935 0 00-.583.594l-1.902 5.587-4.66-12.874 1.545-1.403 5.361 1.153a.955.955 0 001.106-.642l.511-1.58 4.482 12.327zm-.31-25.035a.965.965 0 00-.225.832l1.07 5.004-4.862 1.57a.97.97 0 00-.619.618l-.463 1.426-1.106 3.436-5.004-1.07a.965.965 0 00-.832.226l-3.793 3.423-3.792-3.435a.986.986 0 00-.642-.25c-.07 0-.13.012-.202.024l-5.004 1.07-1.106-3.436-.463-1.426a.97.97 0 00-.619-.618l-4.85-1.558 1.07-5.004a.965.965 0 00-.226-.832l-3.423-3.792 3.435-3.793a.965.965 0 00.226-.832l-1.07-5.004 4.862-1.57a.97.97 0 00.618-.617l1.558-4.862 5.004 1.07a.965.965 0 00.832-.226l3.792-3.424 3.793 3.435a.965.965 0 00.832.226l5.004-1.07 1.57 4.862a.97.97 0 00.618.619l4.861 1.569-1.07 5.004a.965.965 0 00.227.832l3.423 3.78-3.423 3.793z" fill="url(#paint0_linear_112_8)"/><path d="M29.504 9.185c-7.87 0-14.265 6.396-14.265 14.265 0 7.87 6.396 14.265 14.265 14.265 7.87 0 14.265-6.395 14.265-14.265 0-7.87-6.395-14.265-14.265-14.265zm0 26.628c-6.811 0-12.363-5.551-12.363-12.363 0-6.811 5.552-12.363 12.363-12.363 6.812 0 12.363 5.552 12.363 12.363 0 6.812-5.551 12.363-12.363 12.363z" fill="url(#paint1_linear_112_8)"/><path d="M34.818 16.389l-8.167 8.084-2.46-2.438a1.93 1.93 0 00-2.687 0l-1.51 1.486a1.888 1.888 0 00-.558 1.344c0 .51.202.986.558 1.343l5.314 5.254c.369.369.856.547 1.343.547.488 0 .975-.178 1.343-.547l11.02-10.889c.357-.356.559-.832.559-1.343s-.202-.987-.559-1.343l-1.51-1.486a1.92 1.92 0 00-2.686-.012zm-5.98 11.567l-2.187 2.151-5.302-5.242 1.51-1.474 3.126 3.09a.94.94 0 001.332 0l8.844-8.737-.666-.677 2.176 2.151-8.832 8.738z" fill="url(#paint2_linear_112_8)"/><defs><linearGradient id="paint0_linear_112_8" x1="49.567" y1="-7.255" x2="-11.687" y2="21.816" gradientUnits="userSpaceOnUse"><stop offset=".146" stop-color="#4E9CFB"/><stop offset=".458" stop-color="#DA7FDC"/><stop offset=".724" stop-color="#989AFA"/></linearGradient><linearGradient id="paint1_linear_112_8" x1="42.818" y1="4.83" x2="7.198" y2="27.3" gradientUnits="userSpaceOnUse"><stop offset=".146" stop-color="#4E9CFB"/><stop offset=".458" stop-color="#DA7FDC"/><stop offset=".724" stop-color="#989AFA"/></linearGradient><linearGradient id="paint2_linear_112_8" x1="38.902" y1="13.379" x2="17.176" y2="30.455" gradientUnits="userSpaceOnUse"><stop offset=".146" stop-color="#4E9CFB"/><stop offset=".458" stop-color="#DA7FDC"/><stop offset=".724" stop-color="#989AFA"/></linearGradient></defs></svg>