<svg width="238" height="80" fill="none" xmlns="http://www.w3.org/2000/svg"><rect width="80" height="80" rx="7" fill="url(#paint0_linear_25_87)"/><path d="M98.728 26.073c-1.173 0-2.153-.21-2.94-.629-.788-.42-1.382-1.064-1.784-1.934-.4-.885-.625-2.026-.671-3.424l3.542-.536c.016.808.085 1.46.209 1.957.139.497.324.854.555 1.071.248.218.54.327.88.327.432 0 .71-.148.834-.443a2.16 2.16 0 00.208-.932c0-.776-.185-1.429-.556-1.957-.37-.543-.872-1.087-1.504-1.63L95.88 16.52a9.443 9.443 0 01-1.806-2.05c-.479-.776-.718-1.732-.718-2.865 0-1.6.47-2.82 1.413-3.658.941-.854 2.222-1.281 3.843-1.281 1.003 0 1.806.17 2.408.512.617.342 1.08.792 1.389 1.351.324.544.54 1.127.648 1.748.124.605.193 1.188.209 1.747l-3.566.443a11.89 11.89 0 00-.116-1.445c-.046-.42-.154-.737-.324-.955-.17-.233-.432-.35-.787-.35-.386 0-.671.164-.857.49-.17.326-.254.652-.254.978 0 .7.162 1.274.486 1.724.34.435.78.893 1.32 1.375l1.551 1.374a10.364 10.364 0 012.061 2.377c.571.885.856 1.98.856 3.284 0 .886-.2 1.693-.602 2.423a4.41 4.41 0 01-1.713 1.701c-.726.42-1.59.629-2.593.629zm12.286 0c-1.42 0-2.546-.256-3.38-.769a4.274 4.274 0 01-1.736-2.19c-.34-.947-.51-2.058-.51-3.331V12.98c0-1.304.17-2.423.51-3.355.339-.947.918-1.677 1.736-2.19.834-.512 1.96-.768 3.38-.768 1.39 0 2.47.233 3.242.699a3.719 3.719 0 011.667 1.91c.324.823.486 1.77.486 2.842v1.631h-4.052v-1.887c0-.373-.023-.73-.069-1.072-.031-.341-.139-.621-.324-.838-.185-.233-.502-.35-.95-.35-.432 0-.756.117-.972.35a1.793 1.793 0 00-.394.885 8.217 8.217 0 00-.069 1.095v8.876c0 .42.031.808.093 1.165.077.341.216.621.416.838.216.202.525.303.926.303.433 0 .741-.108.927-.326.185-.233.301-.528.347-.885.046-.357.069-.722.069-1.095v-1.98h4.052v1.63c0 1.072-.162 2.035-.486 2.89-.309.838-.857 1.506-1.644 2.003-.772.481-1.86.722-3.265.722zm7.675-.279V6.923h5.163c1.266 0 2.362.14 3.288.42.926.279 1.644.784 2.153 1.514.525.714.788 1.731.788 3.052 0 .776-.062 1.467-.186 2.073a3.879 3.879 0 01-.694 1.584c-.324.435-.795.8-1.413 1.095l2.57 9.133h-4.283l-2.061-8.457h-1.18v8.457h-4.145zm4.145-10.857h1.157c.587 0 1.042-.1 1.366-.303a1.67 1.67 0 00.672-.908c.139-.404.208-.886.208-1.445 0-.807-.146-1.436-.44-1.887-.293-.45-.833-.675-1.62-.675h-1.343v5.218zm8.835 10.857l3.543-18.871h4.723l3.496 18.87h-3.82l-.625-3.983h-2.756l-.648 3.984h-3.913zm4.932-6.477h1.991l-.996-7.362-.995 7.362zm8.723 6.477V6.923h6.298c1.127 0 2.053.217 2.778.652.726.42 1.266 1.04 1.621 1.864.355.808.533 1.794.533 2.959 0 1.46-.24 2.578-.718 3.354-.479.762-1.127 1.29-1.945 1.585-.818.295-1.736.442-2.755.442h-1.667v8.015h-4.145zm4.145-10.927h1.389c.509 0 .895-.093 1.158-.28.262-.186.432-.465.509-.838.093-.373.139-.847.139-1.421 0-.482-.039-.9-.116-1.258-.062-.373-.224-.668-.486-.885-.262-.218-.671-.327-1.227-.327h-1.366v5.01zM93.773 49.09V30.22h4.144v18.87h-4.144zm6.941 0V30.22h2.917l3.844 9.086V30.22h3.426v18.87H108.1l-3.844-9.784v9.784h-3.542zm14.668 0V33.318h-2.824V30.22h9.794v3.098h-2.802V49.09h-4.168zm8.621 0V30.22h8.427v2.842h-4.283v4.683h3.265v2.889h-3.265v5.637h4.33v2.82h-8.474zm10.355 0V30.22h5.163c1.266 0 2.362.14 3.288.42.926.279 1.644.784 2.153 1.514.525.714.788 1.731.788 3.051 0 .777-.062 1.468-.186 2.074a3.88 3.88 0 01-.694 1.584c-.324.435-.795.8-1.412 1.095l2.57 9.132h-4.284l-2.06-8.456h-1.181v8.456h-4.145zm4.145-10.856h1.157c.587 0 1.042-.101 1.366-.303.325-.217.548-.52.672-.908.139-.404.208-.886.208-1.445 0-.808-.146-1.437-.44-1.887-.293-.45-.833-.675-1.62-.675h-1.343v5.218zm9.738 10.856V30.22h2.918l3.843 9.086V30.22h3.427v18.87h-2.802l-3.843-9.784v9.784h-3.543zm12.076 0l3.542-18.87h4.723l3.497 18.87h-3.821l-.625-3.983h-2.755l-.648 3.983h-3.913zm4.931-6.476h1.991l-.995-7.362-.996 7.362zm9.419 6.476V33.318h-2.824V30.22h9.793v3.098h-2.801V49.09h-4.168zm8.644 0V30.22h4.144v18.87h-4.144zm12.312.28c-1.404 0-2.516-.249-3.334-.746-.818-.497-1.405-1.211-1.76-2.143-.355-.932-.532-2.042-.532-3.331v-7.013c0-1.304.177-2.415.532-3.331.355-.916.942-1.615 1.76-2.097.818-.497 1.93-.745 3.334-.745 1.42 0 2.539.248 3.357.745a4.026 4.026 0 011.783 2.097c.355.916.533 2.027.533 3.331v7.013c0 1.289-.178 2.4-.533 3.331-.355.932-.949 1.646-1.783 2.143-.818.497-1.937.746-3.357.746zm0-2.959c.432 0 .749-.108.949-.326.201-.217.332-.497.394-.839a5.86 5.86 0 00.093-1.048v-9.086c0-.373-.031-.722-.093-1.048a1.633 1.633 0 00-.394-.839c-.2-.217-.517-.326-.949-.326-.401 0-.702.109-.903.326-.2.218-.332.497-.393.839a5.612 5.612 0 00-.093 1.048v9.086c0 .357.023.707.069 1.048.062.342.186.622.371.839.201.218.517.326.949.326zm8.195 2.679V30.22h2.917l3.844 9.086V30.22h3.426v18.87h-2.801l-3.844-9.784v9.784h-3.542zm12.075 0l3.543-18.87h4.723l3.496 18.87h-3.82l-.625-3.983h-2.755l-.649 3.983h-3.913zm4.932-6.476h1.991l-.995-7.362-.996 7.362zm8.724 6.476V30.22h4.144v16.05H238v2.82h-8.451zM98.728 72.667c-1.173 0-2.153-.21-2.94-.63-.788-.419-1.382-1.063-1.784-1.933-.4-.885-.625-2.027-.671-3.424l3.542-.536c.016.807.085 1.46.209 1.957.139.497.324.854.555 1.071.248.218.54.326.88.326.432 0 .71-.147.834-.442a2.16 2.16 0 00.208-.932c0-.777-.185-1.429-.556-1.957-.37-.544-.872-1.087-1.504-1.63l-1.621-1.422a9.443 9.443 0 01-1.806-2.05c-.479-.777-.718-1.732-.718-2.866 0-1.6.47-2.819 1.413-3.657.941-.854 2.222-1.282 3.843-1.282 1.003 0 1.806.171 2.408.513.617.342 1.08.792 1.389 1.351a5.09 5.09 0 01.648 1.747c.124.606.193 1.189.209 1.748l-3.566.442a11.744 11.744 0 00-.116-1.444c-.046-.42-.154-.738-.324-.955-.17-.233-.432-.35-.787-.35-.386 0-.671.163-.857.49-.17.326-.254.652-.254.978 0 .699.162 1.274.486 1.724.34.435.78.893 1.32 1.375l1.551 1.374a10.371 10.371 0 012.061 2.376c.571.886.856 1.98.856 3.285 0 .885-.2 1.693-.602 2.423a4.41 4.41 0 01-1.713 1.7c-.726.42-1.59.63-2.593.63zm6.915-.28v-18.87h8.428v2.842h-4.284v4.683h3.265v2.888h-3.265v5.638h4.33v2.82h-8.474zm10.356 0v-18.87h5.163c1.265 0 2.361.14 3.287.42.927.279 1.644.783 2.154 1.513.525.715.787 1.732.787 3.052 0 .777-.062 1.468-.185 2.074a3.88 3.88 0 01-.695 1.584c-.324.435-.795.8-1.412 1.095l2.57 9.132h-4.284l-2.06-8.457h-1.181v8.457h-4.144zm4.144-10.856h1.158c.586 0 1.042-.101 1.366-.303.324-.217.548-.52.671-.909.139-.403.208-.885.208-1.444 0-.808-.146-1.437-.439-1.887-.294-.45-.834-.676-1.621-.676h-1.343v5.219zm12.081 10.856l-3.381-18.87h3.543L134.4 66.33l1.876-12.813h3.75l-3.426 18.87h-4.376zm9.709 0v-18.87h4.145v18.87h-4.145zm12.313.28c-1.42 0-2.547-.257-3.381-.77a4.279 4.279 0 01-1.736-2.189c-.34-.947-.509-2.058-.509-3.331v-6.803c0-1.305.169-2.423.509-3.355.34-.947.918-1.677 1.736-2.19.834-.512 1.961-.769 3.381-.769 1.389 0 2.47.233 3.241.7a3.72 3.72 0 011.667 1.91c.324.823.487 1.77.487 2.842v1.63h-4.052v-1.886c0-.373-.023-.73-.07-1.072-.031-.342-.139-.621-.324-.839-.185-.233-.502-.35-.949-.35-.432 0-.756.117-.973.35a1.8 1.8 0 00-.393.886c-.047.341-.07.706-.07 1.095v8.876c0 .419.031.807.093 1.165.077.341.216.62.417.838.216.202.525.303.926.303.432 0 .741-.109.926-.326.185-.233.301-.528.347-.885.047-.358.07-.723.07-1.095v-1.98h4.052v1.63c0 1.072-.163 2.035-.487 2.889-.308.839-.856 1.507-1.644 2.004-.771.481-1.86.722-3.264.722zm7.675-.28v-18.87h8.427v2.842h-4.283v4.683h3.265v2.888h-3.265v5.638h4.33v2.82h-8.474zM53.386 49.243v-.262a6.965 6.965 0 00-.634-2.891c.428.2.877.353 1.338.457a6.513 6.513 0 004.263-.484 6.89 6.89 0 00-.664 2.928v.279c.004.958.217 1.904.623 2.772a6.59 6.59 0 00-5.562 0 6.602 6.602 0 00.636-2.8zM30.817 20.215c.114.394.19.798.23 1.206a6.185 6.185 0 011.95-1.798l.57-.328a6.258 6.258 0 012.587-.804 6.55 6.55 0 01-2.742-4.735 6.58 6.58 0 01-2.037 1.838l-.455.26a6.579 6.579 0 01-2.629.847 6.6 6.6 0 012.526 3.514zm15.68 32.363a7.437 7.437 0 01-13.936-2.984 4.724 4.724 0 00-2.32-3.739h-.012a4.585 4.585 0 00-1.74-.573 6.613 6.613 0 002.354-3.547c.072-.273.125-.55.16-.83.372.49.838.9 1.371 1.208l.042.023a4.698 4.698 0 004.361.151 7.437 7.437 0 019.72 10.291zm-4-6.087a3.556 3.556 0 00-6.078 2.503 3.557 3.557 0 106.076-2.501l.002-.002z" fill="#fff"/><path d="M28.56 35.98a5.775 5.775 0 11-8.271.037 7.028 7.028 0 002.008-4.885v-.278a6.853 6.853 0 00-1.984-4.76 5.778 5.778 0 118.28.023 6.833 6.833 0 00-1.993 4.766v.262a6.893 6.893 0 001.96 4.835zm-3.35-11.113a2.889 2.889 0 10-1.479-5.585 2.889 2.889 0 001.479 5.585zm-.027 12.378a2.889 2.889 0 10-1.479 5.585 2.889 2.889 0 001.479-5.585zm35.99-13.892a5.778 5.778 0 01-11.198.297 7.04 7.04 0 00-3.259-4.179l-.054-.031a6.944 6.944 0 00-5.209-.742 5.777 5.777 0 114.083-7.23 7.209 7.209 0 003.278 4.244l.058.033a7.218 7.218 0 005.308.719 5.78 5.78 0 016.985 6.889h.008zM42.035 11.062a2.889 2.889 0 10-4.086 4.085 2.889 2.889 0 004.086-4.085zm14.247 8.228a2.89 2.89 0 10-1.494 5.579 2.89 2.89 0 001.494-5.577v-.002zm4.784 22.501a5.778 5.778 0 01-11.195-.598 4.693 4.693 0 00-2.249-3.18l-.041-.023a4.698 4.698 0 00-4.362-.151 7.439 7.439 0 114.218-7.306 4.724 4.724 0 002.32 3.738h.013a4.727 4.727 0 003.91.347 5.778 5.778 0 017.398 7.165l-.013.008zM42.534 28.613a3.558 3.558 0 10-5.041 5.023 3.558 3.558 0 005.04-5.023zM56.28 37.3a2.89 2.89 0 10-1.478 5.586A2.89 2.89 0 0056.28 37.3zm.935 26.275c-1.06.326-2.19.34-3.257.04a6.368 6.368 0 00-4.9.66l-.446.257a6.366 6.366 0 00-3.02 3.913 5.777 5.777 0 11-4.11-7.009c1.66.46 3.434.243 4.933-.604l.569-.328a6.395 6.395 0 002.953-3.932 5.778 5.778 0 117.27 7.003h.008zM42.03 64.973a2.89 2.89 0 10-4.082 4.085 2.89 2.89 0 004.08-4.085h.002zm16.282-7.666a2.889 2.889 0 10-5.58 1.479 2.889 2.889 0 005.578-1.479h.002z" fill="#fff"/><path d="M36.193 61.602a6.554 6.554 0 00-2.8 4.868 6.965 6.965 0 00-2.222-2.06l-.058-.033a7.217 7.217 0 00-5.315-.717 5.777 5.777 0 114.212-7.184 7.04 7.04 0 003.259 4.179l.054.031c.88.507 1.859.82 2.87.916zm-11.007-6.351a2.889 2.889 0 101.756 1.345 2.888 2.888 0 00-1.746-1.345h-.01z" fill="#fff"/><defs><linearGradient id="paint0_linear_25_87" x1="0" y1="0" x2="80" y2="80" gradientUnits="userSpaceOnUse"><stop stop-color="#0671C1"/><stop offset=".316" stop-color="#0094FF"/><stop offset=".491" stop-color="#4E9CFB"/><stop offset="1" stop-color="#7750A9"/></linearGradient></defs></svg>