<svg width="16" height="28" fill="none" xmlns="http://www.w3.org/2000/svg"><g clip-path="url(#clip0_25_165)"><path d="M9.685 27.57H5.26c-.739 0-1.34-.6-1.34-1.337v-9.959H1.34c-.739 0-1.34-.6-1.34-1.337V10.67a1.34 1.34 0 011.34-1.338h2.58V7.195c0-2.118.668-3.921 1.928-5.212C7.115.686 8.885 0 10.968 0l3.373.005a1.34 1.34 0 011.338 1.338v3.962c0 .737-.6 1.337-1.34 1.337l-2.271.001c-.693 0-.87.139-.907.181-.062.07-.136.27-.136.82v1.688h3.144a1.342 1.342 0 011.353 1.338l-.002 4.267a1.34 1.34 0 01-1.34 1.337h-3.155v9.959a1.34 1.34 0 01-1.34 1.337zM5.54 25.954h3.865V15.551c0-.493.402-.893.895-.893h3.6l.002-3.71H10.3a.895.895 0 01-.895-.892V7.644c0-.632.065-1.35.542-1.89.577-.652 1.487-.727 2.12-.727l1.993-.001V1.621l-3.094-.005c-3.346 0-5.426 2.138-5.426 5.58v2.86a.895.895 0 01-.894.893H1.619v3.709h3.027c.493 0 .894.4.894.893v10.403zm8.798-24.332z" fill="#fff"/></g><defs><clipPath id="clip0_25_165"><path fill="#fff" d="M0 0h16v28H0z"/></clipPath></defs></svg>