<svg width="32" height="25" fill="none" xmlns="http://www.w3.org/2000/svg"><g clip-path="url(#clip0_25_167)" fill="#fff" stroke="#fff" stroke-width=".5"><path d="M30.721 6.162c0-.1-.3-2.305-1.253-3.358-1.153-1.253-2.406-1.403-3.057-1.453h-.2C22.15 1.05 16.085 1 15.985 1c-.05 0-6.165.05-10.174.451h-.15c-.703.05-1.956.2-3.058 1.454C1.6 3.957 1.3 6.212 1.3 6.313c0 0-.301 2.556-.301 5.112v2.355c0 2.507.3 5.063.3 5.113 0 .1.301 2.305 1.254 3.358 1.052 1.203 2.305 1.353 3.107 1.453.15 0 .25 0 .401.05 2.306.2 9.623.301 9.924.301.05 0 6.165 0 10.224-.451h.15c.702-.05 1.955-.2 3.058-1.453 1.002-1.053 1.303-3.308 1.303-3.409 0 0 .3-2.556.3-5.112v-2.356c0-2.505-.3-5.062-.3-5.112zm-.702 7.568c0 2.506-.3 5.012-.3 5.012-.1.552-.401 2.155-1.053 2.857-.852 1.003-1.854 1.103-2.406 1.153h-.15c-4.01.3-10.074.3-10.124.3-.05 0-7.568-.1-9.774-.35-.15 0-.3-.05-.45-.05-.702-.05-1.705-.2-2.507-1.103-.601-.651-.952-2.255-1.002-2.807 0-.05-.3-2.556-.3-5.012v-2.355c0-2.506.3-5.012.3-5.012.05-.552.4-2.155 1.002-2.857.903-1.002 1.855-1.103 2.456-1.153h.15c4.01-.3 10.075-.35 10.125-.35.05 0 6.114.05 10.124.35h.2c.552.05 1.554.15 2.406 1.153.602.702.902 2.305 1.002 2.857.05.1.301 2.606.301 5.012v2.355z"/><path d="M22.251 12.577l-9.523-5.563c-.15-.1-.35-.1-.5 0a.524.524 0 00-.251.451v10.876c0 .2.1.351.25.451.1.05.15.05.25.05.101 0 .151 0 .251-.05l9.523-5.312c.15-.1.25-.251.25-.452 0-.2-.1-.35-.25-.45zM12.98 17.49V8.317L21 13.028l-8.02 4.461z"/></g><defs><clipPath id="clip0_25_167"><path fill="#fff" d="M0 0h32v25H0z"/></clipPath></defs></svg>