<svg width="175" height="70" viewBox="0 0 175 70" fill="none" xmlns="http://www.w3.org/2000/svg">
<path d="M0.266463 69.0187L0 65.1491H3.27216C31.7552 65.1491 60.2383 65.1491 88.7214 65.1491C95.8199 65.1491 102.146 63.5013 107.225 58.0583C110.225 54.869 115.751 54.4225 120.116 56.9952C126.65 60.8489 133.311 61.6781 140.538 59.2702C145.995 57.4523 151.377 57.4151 156.792 60.1207C162.34 62.8953 168.207 63.2089 174.005 60.5034V69.0081L0.266463 69.0187Z" fill="url(#paint0_linear_26_391)"/>
<path d="M29.8916 50.9568L26.7847 51.2704C26.6142 52.1315 26.4703 52.8969 26.3104 53.6624C25.7312 56.2742 24.3793 58.6524 22.4295 60.489C20.4798 62.3257 18.0221 63.5362 15.3748 63.9637C10.3386 64.8248 4.89213 62.3053 2.13158 57.851C-0.767532 53.1255 -0.650289 47.0925 2.92031 42.9677C4.51908 41.1073 5.21722 39.2468 4.84417 37.0409C4.18334 33.0703 5.91002 30.9175 9.50193 29.3494C13.8826 27.4518 17.9914 24.927 22.2548 22.7423C24.4505 21.6208 25.1006 22.0513 25.1486 24.5283C25.1966 27.0957 25.1859 29.6631 25.1966 32.2304C25.1966 35.8077 25.1966 35.829 28.7032 35.8343C37.9406 35.8343 47.178 35.8343 56.4153 35.8343H59.9699C58.9947 40.8043 58.1153 45.4447 57.1294 50.0691C57.0121 50.3236 56.8342 50.5457 56.6113 50.7161C56.3885 50.8865 56.1273 51.0002 55.8504 51.0472C52.5036 51.1322 49.1515 51.095 45.4424 51.095C45.4424 48.5542 45.4424 46.2845 45.4424 44.0095C45.4424 42.2554 44.7176 41.389 42.895 41.4102C39.431 41.4528 35.967 41.4793 32.5083 41.4102C30.5098 41.3624 29.8437 42.3139 29.8703 44.1583C29.9343 46.3589 29.8916 48.5595 29.8916 50.9568ZM20.5921 50.9568C20.6021 49.027 19.8471 47.1715 18.4915 45.7945C17.1359 44.4175 15.2896 43.6307 13.355 43.6055C11.4701 43.6574 9.67484 44.4191 8.33021 45.7376C6.98558 47.0561 6.19133 48.8335 6.1072 50.7123C6.08534 52.6396 6.82215 54.4986 8.15937 55.89C9.49659 57.2814 11.3276 58.0942 13.2591 58.1539C14.2169 58.1645 15.1674 57.9857 16.0556 57.6278C16.9437 57.27 17.7521 56.7402 18.4339 56.069C19.1156 55.3979 19.6574 54.5987 20.0278 53.7176C20.3983 52.8365 20.59 51.891 20.5921 50.9355V50.9568Z" fill="url(#paint1_linear_26_391)"/>
<path d="M57.7422 51.451C58.84 46.1037 59.2024 40.9105 61.1156 36.3605C62.1815 33.8834 65.0646 31.8264 67.0897 29.5301C68.1555 28.3394 70.1913 28.8922 70.7562 30.9812C71.3211 33.0702 72.6694 33.4954 74.7158 33.4635C82.7097 33.3413 90.7036 33.3041 98.6975 33.4635C101.362 33.522 103.195 32.8735 104.698 30.6463C105.327 29.7108 107.075 28.4564 107.619 28.7328C108.962 29.4078 110.71 30.7845 110.864 32.0496C111.459 36.9628 111.726 41.91 111.664 46.8585C111.626 49.9096 109.287 51.4138 105.615 51.4191C92.5724 51.4369 79.5282 51.4369 66.4822 51.4191L57.7422 51.451ZM85.9872 45.6466C87.4894 45.724 88.9948 45.7133 90.4958 45.6147C92.6275 45.3595 93.8638 44.02 93.8425 41.8566C93.8425 39.8208 92.5529 38.4494 90.5757 38.3165C87.5669 38.1062 84.5473 38.0973 81.5373 38.29C79.4056 38.4282 78.1159 39.8846 78.1852 42.0108C78.2545 44.137 79.5548 45.4286 81.7185 45.5934C83.1361 45.7316 84.5483 45.6519 85.9606 45.6466H85.9872ZM69.733 37.6308C68.7791 36.9345 68.1875 36.1691 67.6653 36.2169C67.143 36.2648 66.269 37.1259 66.285 37.6043C66.3654 37.9443 66.5329 38.2578 66.7711 38.514C67.0093 38.7702 67.31 38.9604 67.6439 39.066C68.1342 39.1245 68.7471 38.3378 69.7117 37.6308H69.733ZM108.184 37.5671C107.166 36.8973 106.585 36.2276 105.999 36.2276C105.556 36.2276 104.688 37.1631 104.762 37.5245C104.885 38.1358 105.562 38.9703 106.105 39.0554C106.649 39.1404 107.198 38.29 108.184 37.5671Z" fill="url(#paint2_linear_26_391)"/>
<path d="M60.988 4.20196C60.8441 5.16938 60.5564 5.99327 60.6363 6.77996C61.3984 14.4342 62.2351 22.0832 63.0185 29.7321C63.4395 33.841 62.7041 34.6383 58.414 34.6489C50.5214 34.6489 42.6288 34.6489 34.7415 34.6489C32.7004 34.6489 30.6593 34.5905 28.6235 34.6489C26.9554 34.7074 26.2307 34.1174 26.2413 32.3526C26.2911 23.6849 26.2911 15.0172 26.2413 6.34941C26.2413 4.79198 26.7743 4.13818 28.3997 4.14881C39.3886 4.22854 50.3775 4.20196 60.988 4.20196ZM41.8027 6.29094V24.5177H59.3893C58.8936 19.1384 58.5579 14.0303 57.8384 8.96993C57.6946 7.97063 56.1331 6.47698 55.1738 6.4132C50.7186 6.13679 46.2846 6.29626 41.7814 6.29626L41.8027 6.29094ZM39.234 15.9651C39.234 14.8169 39.234 13.6635 39.234 12.5153C39.1061 5.33416 40.4384 6.39725 32.5565 6.26436C30.9577 6.26436 30.2702 6.93943 30.2756 8.46496C30.2756 13.5093 30.2756 18.5643 30.3395 23.5928C30.3395 24.2572 30.9204 25.4479 31.3094 25.4798C33.5934 25.6726 35.8896 25.6726 38.1735 25.4798C38.5839 25.4425 39.1434 24.1349 39.1807 23.3908C39.3086 20.9404 39.2287 18.458 39.234 15.9651Z" fill="url(#paint3_linear_26_391)"/>
<path d="M70.2715 28.0205C77.9722 17.6819 95.5694 17.8042 103.313 28.2863C103.686 28.8178 103.942 30.0298 103.67 30.2636C102.604 31.1726 101.373 32.3898 100.158 32.4536C93.9707 32.6715 87.7674 32.5546 81.5695 32.5546H77.839C72.7389 32.5546 72.7389 32.5546 70.2715 28.0205Z" fill="url(#paint4_linear_26_391)"/>
<path d="M68.2783 52.3335H104.72C103.473 57.3247 95.66 62.502 88.6254 63.1239C80.2478 63.8627 71.4705 59.3127 68.2783 52.3335Z" fill="url(#paint5_linear_26_391)"/>
<path d="M37.5822 52.9501C30.5263 52.9501 30.5263 52.9501 30.5369 45.7955C30.5369 41.9843 30.5369 41.9843 34.31 41.9736C36.9746 41.9736 39.6393 42.0374 42.2719 41.9736C44.0412 41.9152 44.9365 42.5477 44.8779 44.3922C44.8246 46.4174 44.83 48.4532 44.8779 50.4784C44.9259 52.5036 43.956 53.1361 42.0854 52.9926C40.5932 52.865 39.085 52.9501 37.5822 52.9501Z" fill="url(#paint6_linear_26_391)"/>
<path d="M43.1665 0.0186849C48.4958 0.0186849 53.825 -0.0504161 59.117 0.077155C60.0549 0.077155 60.9769 0.922313 61.9042 1.37413C61.0355 1.90567 60.1722 2.83588 59.2982 2.84651C48.6397 2.95282 38.0345 2.92093 27.3973 2.92624C27.2214 2.92624 26.9976 2.98471 26.8644 2.92624C26.1503 2.44785 25.4628 1.93757 24.7646 1.4326C25.4894 0.964837 26.2035 0.119679 26.939 0.103732C32.3428 -0.0132079 37.7467 0.0186849 43.1665 0.0186849Z" fill="url(#paint7_linear_26_391)"/>
<path d="M63.2153 12.9937L62.7197 6.97129L63.7483 6.87561L64.3345 12.914L63.2153 12.9937Z" fill="url(#paint8_linear_26_391)"/>
<defs>
<linearGradient id="paint0_linear_26_391" x1="168.205" y1="53.2392" x2="163.554" y2="90.536" gradientUnits="userSpaceOnUse">
<stop offset="0.145833" stop-color="#4E9CFB"/>
<stop offset="0.458333" stop-color="#DA7FDC"/>
<stop offset="0.723958" stop-color="#989AFA"/>
</linearGradient>
<linearGradient id="paint1_linear_26_391" x1="57.9739" y1="15.7484" x2="0.226249" y2="67.7175" gradientUnits="userSpaceOnUse">
<stop offset="0.145833" stop-color="#4E9CFB"/>
<stop offset="0.458333" stop-color="#DA7FDC"/>
<stop offset="0.723958" stop-color="#989AFA"/>
</linearGradient>
<linearGradient id="paint2_linear_26_391" x1="109.875" y1="25.2199" x2="80.7763" y2="68.7201" gradientUnits="userSpaceOnUse">
<stop offset="0.145833" stop-color="#4E9CFB"/>
<stop offset="0.458333" stop-color="#DA7FDC"/>
<stop offset="0.723958" stop-color="#989AFA"/>
</linearGradient>
<linearGradient id="paint3_linear_26_391" x1="61.8926" y1="-0.507827" x2="21.1955" y2="30.5316" gradientUnits="userSpaceOnUse">
<stop offset="0.145833" stop-color="#4E9CFB"/>
<stop offset="0.458333" stop-color="#DA7FDC"/>
<stop offset="0.723958" stop-color="#989AFA"/>
</linearGradient>
<linearGradient id="paint4_linear_26_391" x1="102.666" y1="18.4764" x2="87.9793" y2="43.8405" gradientUnits="userSpaceOnUse">
<stop offset="0.145833" stop-color="#4E9CFB"/>
<stop offset="0.458333" stop-color="#DA7FDC"/>
<stop offset="0.723958" stop-color="#989AFA"/>
</linearGradient>
<linearGradient id="paint5_linear_26_391" x1="103.505" y1="50.6744" x2="91.8846" y2="75.2521" gradientUnits="userSpaceOnUse">
<stop offset="0.145833" stop-color="#4E9CFB"/>
<stop offset="0.458333" stop-color="#DA7FDC"/>
<stop offset="0.723958" stop-color="#989AFA"/>
</linearGradient>
<linearGradient id="paint6_linear_26_391" x1="44.4025" y1="40.2844" x2="29.4246" y2="52.5586" gradientUnits="userSpaceOnUse">
<stop offset="0.145833" stop-color="#4E9CFB"/>
<stop offset="0.458333" stop-color="#DA7FDC"/>
<stop offset="0.723958" stop-color="#989AFA"/>
</linearGradient>
<linearGradient id="paint7_linear_26_391" x1="60.6662" y1="-0.450663" x2="59.653" y2="7.58992" gradientUnits="userSpaceOnUse">
<stop offset="0.145833" stop-color="#4E9CFB"/>
<stop offset="0.458333" stop-color="#DA7FDC"/>
<stop offset="0.723958" stop-color="#989AFA"/>
</linearGradient>
<linearGradient id="paint8_linear_26_391" x1="64.2807" y1="5.94167" x2="61.5383" y2="6.39826" gradientUnits="userSpaceOnUse">
<stop offset="0.145833" stop-color="#4E9CFB"/>
<stop offset="0.458333" stop-color="#DA7FDC"/>
<stop offset="0.723958" stop-color="#989AFA"/>
</linearGradient>
</defs>
</svg>
