<svg width="400" height="614" viewBox="0 0 400 614" fill="none" xmlns="http://www.w3.org/2000/svg">
<path d="M325.481 392.902V390.448C325.466 381.093 323.441 371.85 319.543 363.345C323.558 365.216 327.761 366.652 332.082 367.629C345.536 370.675 359.626 369.076 372.055 363.092C367.985 371.674 365.858 381.048 365.824 390.546V393.155C365.865 402.14 367.858 411.009 371.665 419.148C363.5 415.347 354.601 413.377 345.594 413.377C336.587 413.377 327.689 415.347 319.523 419.148C323.41 410.942 325.445 401.981 325.481 392.902V392.902Z" fill="url(#paint0_linear_25_202)"/>
<path fill-rule="evenodd" clip-rule="evenodd" d="M326.481 390.447L326.481 390.448L326.481 392.902H325.481V390.448C325.467 381.596 323.653 372.844 320.155 364.723C319.956 364.261 319.752 363.802 319.543 363.345C319.998 363.558 320.456 363.764 320.916 363.965C324.513 365.536 328.251 366.763 332.082 367.629C345.032 370.561 358.57 369.19 370.65 363.747C371.12 363.535 371.589 363.317 372.055 363.092C371.833 363.56 371.617 364.029 371.407 364.501C367.76 372.695 365.856 381.565 365.824 390.546V393.155C365.862 401.633 367.639 410.009 371.039 417.765C371.242 418.228 371.451 418.689 371.665 419.148C371.206 418.934 370.745 418.726 370.281 418.524C362.499 415.132 354.095 413.377 345.594 413.377C337.096 413.377 328.696 415.13 320.915 418.521C320.449 418.724 319.985 418.933 319.523 419.148C319.741 418.688 319.954 418.225 320.16 417.76C323.632 409.937 325.447 401.472 325.481 392.902L326.481 392.906C326.447 401.258 324.75 409.511 321.499 417.185C329.128 414.015 337.316 412.377 345.594 412.377C353.879 412.377 362.072 414.017 369.706 417.192C366.523 409.586 364.861 401.421 364.824 393.159L364.824 393.155L364.824 390.542C364.855 381.789 366.637 373.139 370.056 365.101C358.035 370.263 344.665 371.504 331.861 368.604C328.311 367.802 324.837 366.694 321.481 365.293C324.765 373.265 326.467 381.808 326.481 390.447Z" fill="url(#paint1_linear_25_202)"/>
<path d="M113.897 120.763C114.968 124.458 115.691 128.245 116.058 132.075C120.861 125.198 127.099 119.446 134.341 115.214L139.676 112.137C147.115 107.884 155.396 105.312 163.936 104.602C161.167 102.643 158.563 100.461 156.148 98.0796C145.923 87.946 139.582 74.5423 138.235 60.2095C133.149 67.2315 126.641 73.1028 119.134 77.4409L114.87 79.8747C107.309 84.2372 98.9068 86.9448 90.2207 87.8186C101.591 95.8273 109.931 107.433 113.897 120.763V120.763Z" fill="url(#paint2_linear_25_202)"/>
<path fill-rule="evenodd" clip-rule="evenodd" d="M113.897 120.763C114.828 123.976 115.497 127.259 115.896 130.579C115.956 131.077 116.01 131.576 116.058 132.075C116.345 131.664 116.638 131.256 116.935 130.853C121.611 124.515 127.532 119.192 134.341 115.214L139.676 112.137C146.676 108.135 154.422 105.621 162.428 104.747C162.93 104.692 163.432 104.644 163.936 104.602C163.524 104.31 163.115 104.013 162.71 103.712C160.396 101.988 158.203 100.106 156.148 98.0796C146.274 88.2939 140.022 75.4585 138.391 61.682C138.333 61.1923 138.281 60.7015 138.235 60.2095C137.945 60.6095 137.651 61.0058 137.352 61.3983C132.405 67.8954 126.213 73.35 119.134 77.4409L114.87 79.8747C107.739 83.9886 99.8616 86.6309 91.7027 87.6514C91.2097 87.7131 90.7157 87.7689 90.2207 87.8186C90.6276 88.1052 91.0305 88.3964 91.4296 88.6921C102.182 96.66 110.073 107.91 113.897 120.763ZM92.8462 88.5077C103.353 96.5631 111.068 107.746 114.855 120.478L113.897 120.763L114.857 120.484C115.707 123.416 116.341 126.405 116.756 129.427C121.411 123.346 127.21 118.222 133.836 114.35L133.841 114.347L139.179 111.269C145.994 107.373 153.502 104.864 161.272 103.877C159.229 102.302 157.283 100.604 155.446 98.7916L155.444 98.7899C145.65 89.0838 139.363 76.4255 137.526 62.8071C132.605 69.0567 126.535 74.3191 119.635 78.3067L119.63 78.3094L115.37 80.7409C115.369 80.7413 115.369 80.7417 115.368 80.7421C108.419 84.7504 100.773 87.3838 92.8462 88.5077Z" fill="url(#paint3_linear_25_202)"/>
<path d="M260.899 424.171C253.686 437.331 242.419 447.813 228.773 454.059C215.127 460.305 199.83 461.981 185.155 458.838C170.48 455.695 157.211 447.902 147.32 436.615C137.428 425.329 131.443 411.152 130.252 396.192C129.743 389.024 127.497 382.087 123.708 375.981C119.919 369.875 114.7 364.783 108.503 361.145H108.387C103.365 358.274 97.8152 356.446 92.0703 355.771C102.895 347.423 110.658 335.732 114.15 322.515C114.817 319.954 115.318 317.353 115.649 314.727C119.134 319.324 123.503 323.177 128.5 326.059L128.889 326.273C135.081 329.8 142.036 331.772 149.158 332.02C156.28 332.267 163.355 330.783 169.777 327.695C183.09 321.351 198.072 319.393 212.569 322.1C227.065 324.808 240.33 332.042 250.457 342.763C260.583 353.484 267.049 367.14 268.925 381.768C270.801 396.395 267.991 411.241 260.899 424.171V424.171ZM223.399 367.103C218.743 362.43 212.807 359.242 206.34 357.943C199.873 356.644 193.166 357.291 187.068 359.803C180.969 362.316 175.752 366.58 172.076 372.057C168.4 377.534 166.431 383.978 166.418 390.574C166.404 397.17 168.346 403.622 171.999 409.114C175.652 414.606 180.852 418.892 186.94 421.429C193.029 423.966 199.733 424.642 206.205 423.369C212.677 422.096 218.627 418.933 223.301 414.28C229.563 408.036 233.089 399.56 233.104 390.717C233.118 381.874 229.621 373.387 223.379 367.122L223.399 367.103Z" fill="url(#paint4_linear_25_202)"/>
<path fill-rule="evenodd" clip-rule="evenodd" d="M108.503 361.145C114.7 364.783 119.919 369.875 123.708 375.981C127.497 382.087 129.743 389.024 130.252 396.192C131.443 411.152 137.428 425.329 147.32 436.615C157.211 447.902 170.48 455.695 185.155 458.838C199.83 461.981 215.127 460.305 228.773 454.059C242.419 447.813 253.686 437.331 260.899 424.171C267.991 411.241 270.801 396.395 268.925 381.768C267.049 367.14 260.583 353.484 250.457 342.763C240.33 332.042 227.065 324.808 212.569 322.1C198.072 319.393 183.09 321.351 169.777 327.695C163.355 330.783 156.28 332.267 149.158 332.02C142.036 331.772 135.081 329.8 128.889 326.273L128.5 326.059C123.906 323.41 119.844 319.94 116.511 315.826C116.218 315.465 115.931 315.099 115.649 314.727C115.591 315.19 115.527 315.652 115.458 316.113C115.137 318.268 114.7 320.406 114.15 322.515C110.777 335.281 103.42 346.623 93.1683 354.904C92.8059 355.197 92.4399 355.486 92.0703 355.771C92.5331 355.825 92.9946 355.887 93.4547 355.957C98.7059 356.748 103.769 358.505 108.387 361.145H108.503ZM108.651 360.145H108.775L109.01 360.283C115.347 364.003 120.683 369.21 124.558 375.454C128.432 381.696 130.728 388.788 131.249 396.116C132.423 410.861 138.323 424.833 148.072 435.956C157.821 447.081 170.9 454.763 185.365 457.86C199.829 460.958 214.907 459.306 228.357 453.15C241.807 446.994 252.912 436.662 260.022 423.69C267.013 410.946 269.783 396.313 267.933 381.895C266.084 367.477 259.71 354.017 249.73 343.45C239.749 332.882 226.674 325.752 212.385 323.083C198.097 320.414 183.331 322.345 170.209 328.597C163.642 331.755 156.406 333.272 149.123 333.019C141.842 332.766 134.731 330.751 128.401 327.146L128.009 326.93L128 326.925C123.561 324.365 119.606 321.056 116.308 317.15C115.998 319.04 115.601 320.914 115.118 322.768L115.117 322.771C111.766 335.451 104.548 346.75 94.4935 355.111C99.4612 355.964 104.251 357.665 108.651 360.145ZM223.379 367.122L223.399 367.103C223.369 367.073 223.339 367.043 223.31 367.014C223.103 366.808 222.894 366.605 222.682 366.405C218.141 362.112 212.48 359.177 206.34 357.943C199.873 356.644 193.166 357.291 187.068 359.803C180.969 362.316 175.752 366.58 172.076 372.057C168.4 377.534 166.431 383.978 166.418 390.574C166.404 397.17 168.346 403.622 171.999 409.114C175.652 414.606 180.852 418.892 186.94 421.429C193.029 423.966 199.733 424.642 206.205 423.369C212.677 422.096 218.627 418.933 223.301 414.28C229.563 408.036 233.089 399.56 233.104 390.717C233.118 381.874 229.621 373.387 223.379 367.122ZM224.812 367.104L224.782 367.134C230.775 373.509 234.118 381.944 234.104 390.719C234.089 399.827 230.457 408.557 224.007 414.988C219.193 419.781 213.064 423.039 206.398 424.35C199.732 425.661 192.827 424.966 186.556 422.352C180.285 419.739 174.929 415.325 171.167 409.668C167.404 404.011 165.404 397.366 165.418 390.572C165.432 383.778 167.46 377.141 171.246 371.5C175.031 365.858 180.405 361.466 186.687 358.879C192.968 356.291 199.876 355.625 206.537 356.963C213.198 358.301 219.312 361.584 224.107 366.397L224.812 367.104Z" fill="url(#paint5_linear_25_202)"/>
<path d="M92.7521 268.563C100.22 276.156 105.283 285.782 107.308 296.238C109.332 306.695 108.228 317.515 104.134 327.347C100.04 337.179 93.1367 345.585 84.2892 351.514C75.4417 357.442 65.0422 360.63 54.3921 360.678C43.742 360.726 33.3142 357.633 24.4134 351.784C15.5127 345.936 8.53422 337.592 4.35125 327.798C0.168277 318.004 -1.03345 307.193 0.896424 296.719C2.8263 286.245 7.80208 276.573 15.2012 268.913C27.1923 256.677 33.9456 240.251 34.0291 223.118V220.509C33.8771 203.78 27.2063 187.771 15.4348 175.883C8.0267 168.23 3.03912 158.563 1.0958 148.091C-0.84751 137.619 0.339691 126.806 4.50894 117.005C8.67819 107.204 15.6444 98.8496 24.5365 92.9866C33.4286 87.1236 43.8519 84.0122 54.5029 84.0416C65.1539 84.071 75.5598 87.2398 84.4194 93.1518C93.2791 99.0638 100.199 107.456 104.314 117.28C108.429 127.104 109.557 137.924 107.556 148.385C105.555 158.846 100.514 168.486 93.0636 176.097C81.2249 187.972 74.514 204.015 74.372 220.782V223.235C74.3232 240.169 80.9232 256.445 92.7521 268.563V268.563ZM61.3267 164.376C66.5071 163.004 71.1641 160.127 74.7084 156.107C78.2526 152.088 80.5249 147.108 81.2375 141.796C81.9501 136.485 81.071 131.082 78.7116 126.27C76.3522 121.459 72.6184 117.455 67.9828 114.767C63.3472 112.078 58.0182 110.825 52.6703 111.166C47.3223 111.507 42.1957 113.427 37.9394 116.683C33.683 119.939 30.4883 124.385 28.7594 129.457C27.0305 134.529 26.8452 140 28.2269 145.178C30.0767 152.109 34.6008 158.024 40.8063 161.623C47.0119 165.222 54.3919 166.212 61.3267 164.376V164.376ZM61.0736 280.42C55.8948 279.05 50.4259 279.246 45.3585 280.984C40.2912 282.721 35.8531 285.923 32.6055 290.184C29.3579 294.444 27.4468 299.572 27.1138 304.919C26.7808 310.265 28.0409 315.591 30.7348 320.221C33.4286 324.852 37.4352 328.579 42.2478 330.933C47.0603 333.286 52.4627 334.159 57.7715 333.442C63.0803 332.724 68.0572 330.449 72.0726 326.903C76.088 323.357 78.9616 318.699 80.3299 313.52C82.1641 306.577 81.1659 299.19 77.5549 292.983C73.9439 286.776 68.0156 282.257 61.0736 280.42V280.42Z" fill="url(#paint6_linear_25_202)"/>
<path fill-rule="evenodd" clip-rule="evenodd" d="M92.7521 268.563C80.9232 256.445 74.3232 240.169 74.372 223.235V220.782C74.514 204.015 81.2249 187.972 93.0636 176.097C100.514 168.486 105.555 158.846 107.556 148.385C109.557 137.924 108.429 127.104 104.314 117.28C100.199 107.456 93.2791 99.0638 84.4194 93.1518C75.5598 87.2398 65.1539 84.071 54.5029 84.0416C43.8519 84.0122 33.4286 87.1236 24.5365 92.9866C15.6444 98.8496 8.67819 107.204 4.50894 117.005C0.339691 126.806 -0.84751 137.619 1.0958 148.091C3.03912 158.563 8.0267 168.23 15.4348 175.883C27.2063 187.771 33.8771 203.78 34.0291 220.509V223.118C33.9456 240.251 27.1923 256.676 15.2012 268.913C7.80208 276.573 2.8263 286.245 0.896424 296.719C-1.03345 307.193 0.168277 318.004 4.35125 327.798C8.53422 337.592 15.5127 345.936 24.4134 351.784C33.3142 357.633 43.742 360.726 54.3921 360.678C65.0422 360.63 75.4417 357.442 84.2892 351.514C93.1367 345.585 100.04 337.179 104.134 327.347C108.228 317.515 109.332 306.695 107.308 296.238C105.283 285.782 100.22 276.156 92.7521 268.563ZM15.9179 269.61C8.65687 277.129 3.77389 286.621 1.87987 296.901C-0.0143654 307.181 1.16517 317.792 5.27089 327.405C9.37661 337.019 16.2262 345.208 24.9626 350.948C33.699 356.689 43.9342 359.725 54.3876 359.678C64.841 359.631 75.0484 356.502 83.7325 350.683C92.4167 344.864 99.192 336.613 103.211 326.963C107.229 317.313 108.313 306.691 106.326 296.429C104.339 286.166 99.3692 276.717 92.0391 269.264L92.7521 268.563L92.0365 269.261C80.0246 256.956 73.3225 240.428 73.372 223.232V220.773C73.5163 203.746 80.3307 187.454 92.3523 175.394C99.6632 167.924 104.61 158.464 106.574 148.197C108.538 137.929 107.431 127.309 103.392 117.667C99.3527 108.024 92.5604 99.7864 83.8644 93.9836C75.1683 88.1807 64.9545 85.0704 54.5001 85.0416C44.0458 85.0127 33.815 88.0667 25.087 93.8214C16.3591 99.5762 9.52143 107.776 5.42915 117.397C1.33686 127.017 0.171581 137.63 2.07902 147.909C3.9861 158.186 8.88018 167.673 16.1493 175.183C28.1016 187.255 34.8747 203.513 35.0291 220.5L35.0292 220.509L35.0291 223.123C34.9444 240.514 28.0894 257.188 15.9179 269.61ZM75.4584 156.769C71.7833 160.937 66.9543 163.92 61.5827 165.343C54.3918 167.247 46.7393 166.22 40.3046 162.488C33.8699 158.756 29.1788 152.623 27.2607 145.436C25.828 140.067 26.0201 134.394 27.8128 129.134C29.6056 123.875 32.9183 119.265 37.3318 115.889C41.7453 112.513 47.0612 110.522 52.6066 110.168C58.152 109.815 63.6778 111.114 68.4845 113.902C73.2913 116.69 77.1629 120.841 79.6095 125.83C82.056 130.819 82.9675 136.422 82.2286 141.929C81.4897 147.437 79.1335 152.601 75.4584 156.769ZM45.0341 280.038C50.2886 278.236 55.9594 278.032 61.3295 279.453C68.5278 281.358 74.6749 286.044 78.4193 292.48C82.1636 298.916 83.1986 306.576 81.2968 313.775C79.8779 319.146 76.8982 323.975 72.7346 327.652C68.5709 331.329 63.4103 333.689 57.9054 334.433C52.4005 335.177 46.7987 334.271 41.8085 331.831C36.8183 329.391 32.6637 325.526 29.8704 320.724C27.0771 315.923 25.7704 310.401 26.1157 304.857C26.461 299.312 28.4427 293.995 31.8102 289.577C35.1777 285.16 39.7797 281.84 45.0341 280.038ZM74.7084 156.107C71.1641 160.127 66.5071 163.004 61.3267 164.376C54.3919 166.212 47.0119 165.222 40.8063 161.623C34.6008 158.024 30.0767 152.109 28.2269 145.178C26.8452 140 27.0305 134.529 28.7594 129.457C30.4883 124.385 33.683 119.939 37.9394 116.683C42.1957 113.427 47.3223 111.507 52.6703 111.166C58.0182 110.825 63.3472 112.078 67.9828 114.767C72.6184 117.455 76.3522 121.459 78.7116 126.27C81.071 131.082 81.9501 136.485 81.2375 141.796C80.5249 147.108 78.2526 152.088 74.7084 156.107ZM45.3585 280.984C50.4259 279.246 55.8948 279.05 61.0736 280.42C68.0156 282.257 73.9439 286.776 77.5549 292.983C81.1659 299.19 82.1641 306.577 80.3299 313.52C78.9616 318.699 76.088 323.357 72.0726 326.903C68.0572 330.449 63.0803 332.724 57.7715 333.442C52.4627 334.159 47.0603 333.286 42.2478 330.933C37.4352 328.579 33.4286 324.852 30.7348 320.221C28.0409 315.591 26.7808 310.265 27.1138 304.919C27.4468 299.572 29.3579 294.444 32.6055 290.184C35.8531 285.923 40.2912 282.721 45.3585 280.984Z" fill="url(#paint7_linear_25_202)"/>
<path d="M398.497 150.182C395.85 161.941 389.358 172.481 380.046 180.134C370.735 187.787 359.137 192.116 347.088 192.436C335.04 192.755 323.229 189.047 313.525 181.898C303.821 174.749 296.779 164.568 293.512 152.967C288.819 136.428 277.859 122.374 262.963 113.792L262.457 113.5C247.721 104.868 230.184 102.372 213.625 106.549C203.335 109.227 192.485 108.817 182.427 105.369C172.368 101.921 163.548 95.5882 157.066 87.1602C150.583 78.7323 146.725 68.5824 145.973 57.9763C145.222 47.3703 147.609 36.7777 152.838 27.5196C158.067 18.2615 165.905 10.7477 175.376 5.91536C184.848 1.08305 195.532 -0.85389 206.096 0.346121C216.661 1.54613 226.639 5.82998 234.785 12.6634C242.931 19.4967 248.885 28.5772 251.904 38.7722C256.65 55.4885 267.654 69.7341 282.628 78.5504L283.173 78.8619C298.284 87.4088 316.101 89.8207 332.94 85.5987C341.889 83.4569 351.236 83.6293 360.1 86.0996C368.963 88.5699 377.052 93.2567 383.603 99.7183C390.154 106.18 394.952 114.203 397.544 123.032C400.136 131.861 400.438 141.205 398.419 150.182H398.497ZM219.077 34.956C215.289 31.1678 210.463 28.5879 205.21 27.5425C199.956 26.4971 194.51 27.0332 189.561 29.0829C184.612 31.1326 180.382 34.604 177.405 39.0579C174.429 43.5119 172.841 48.7484 172.841 54.1052C172.841 59.462 174.429 64.6985 177.405 69.1524C180.382 73.6064 184.612 77.0777 189.561 79.1275C194.51 81.1772 199.956 81.7133 205.21 80.6679C210.463 79.6225 215.289 77.0426 219.077 73.2544C224.155 68.1754 227.008 61.2873 227.008 54.1052C227.008 46.923 224.155 40.035 219.077 34.956V34.956ZM352.644 112.098C347.467 110.712 341.995 110.894 336.921 112.62C331.847 114.346 327.399 117.538 324.141 121.793C320.882 126.048 318.959 131.174 318.615 136.523C318.271 141.871 319.522 147.201 322.209 151.839C324.896 156.476 328.898 160.212 333.709 162.573C338.52 164.935 343.924 165.816 349.236 165.105C354.548 164.394 359.529 162.123 363.55 158.579C367.571 155.035 370.45 150.378 371.823 145.198C373.654 138.268 372.663 130.896 369.068 124.695C365.474 118.494 359.567 113.972 352.644 112.117V112.098Z" fill="url(#paint8_linear_25_202)"/>
<path fill-rule="evenodd" clip-rule="evenodd" d="M213.625 106.549C230.184 102.372 247.721 104.868 262.457 113.5L262.963 113.792C277.859 122.374 288.819 136.428 293.512 152.967C296.779 164.568 303.821 174.749 313.525 181.898C323.229 189.047 335.04 192.755 347.088 192.436C359.137 192.116 370.735 187.787 380.046 180.134C389.093 172.699 395.479 162.538 398.262 151.182C398.316 150.963 398.368 150.743 398.419 150.523C398.444 150.415 398.469 150.307 398.493 150.199C398.495 150.193 398.496 150.188 398.497 150.182H398.419C398.421 150.177 398.422 150.171 398.423 150.166C398.448 150.054 398.473 149.942 398.497 149.83C398.544 149.615 398.59 149.399 398.634 149.182C400.412 140.513 400.04 131.534 397.544 123.032C394.952 114.203 390.154 106.18 383.603 99.7183C377.052 93.2567 368.963 88.5699 360.1 86.0996C351.236 83.6293 341.889 83.4569 332.94 85.5987C316.101 89.8207 298.284 87.4088 283.173 78.8619L282.628 78.5504C267.654 69.7341 256.65 55.4885 251.904 38.7722C248.885 28.5772 242.931 19.4967 234.785 12.6634C226.639 5.82998 216.661 1.54613 206.096 0.346121C195.532 -0.85389 184.848 1.08305 175.376 5.91536C165.905 10.7477 158.067 18.2615 152.838 27.5196C147.609 36.7777 145.222 47.3703 145.973 57.9763C146.725 68.5824 150.583 78.7323 157.066 87.1602C163.548 95.5882 172.368 101.921 182.427 105.369C192.485 108.817 203.335 109.227 213.625 106.549ZM250.943 39.0507C247.98 29.0462 242.136 20.1355 234.142 13.4295C226.147 6.72232 216.353 2.51758 205.984 1.33973C195.614 0.161882 185.127 2.06305 175.831 6.80612C166.535 11.5492 158.841 18.9242 153.708 28.0113C148.576 37.0985 146.233 47.4955 146.971 57.9056C147.709 68.3158 151.495 78.2783 157.858 86.5506C164.221 94.8228 172.878 101.039 182.751 104.423C192.623 107.807 203.273 108.21 213.373 105.581L213.38 105.579C230.192 101.339 247.997 103.873 262.959 112.635C262.96 112.636 262.961 112.636 262.962 112.637L263.462 112.925M250.943 39.0507C255.761 56.012 266.926 70.4664 282.121 79.4122L282.677 79.7301L282.681 79.7323C298.013 88.4046 316.092 90.8526 333.178 86.5701C341.96 84.469 351.133 84.6386 359.831 87.0629C368.531 89.4876 376.471 94.0879 382.901 100.43C389.331 106.773 394.041 114.648 396.585 123.314C399.129 131.98 399.425 141.151 397.444 149.963L397.169 151.182H397.232C394.47 162.232 388.228 172.115 379.411 179.362C370.272 186.873 358.888 191.122 347.062 191.436C335.236 191.75 323.643 188.11 314.118 181.093C304.593 174.076 297.681 164.083 294.475 152.696L294.474 152.694C289.71 135.905 278.584 121.637 263.462 112.925M352.644 112.117C359.567 113.972 365.474 118.494 369.068 124.695C372.663 130.896 373.654 138.268 371.823 145.198C370.45 150.378 367.571 155.035 363.55 158.579C359.529 162.123 354.548 164.394 349.236 165.105C343.924 165.816 338.52 164.935 333.709 162.573C328.898 160.212 324.896 156.476 322.209 151.839C319.522 147.201 318.271 141.871 318.615 136.523C318.959 131.174 320.882 126.048 324.141 121.793C327.399 117.538 331.847 114.346 336.921 112.62C341.995 110.894 347.467 110.713 352.644 112.098V112.117ZM353.644 111.33V111.361C360.503 113.401 366.335 117.986 369.933 124.194C373.661 130.623 374.688 138.268 372.789 145.453C371.366 150.825 368.381 155.655 364.211 159.329C360.042 163.004 354.877 165.359 349.368 166.096C343.86 166.833 338.257 165.92 333.268 163.471C328.28 161.022 324.129 157.149 321.343 152.34C318.557 147.532 317.26 142.005 317.617 136.459C317.974 130.913 319.968 125.597 323.347 121.185C326.726 116.773 331.338 113.463 336.599 111.673C341.86 109.884 347.534 109.695 352.903 111.132L353.644 111.33ZM205.405 26.5617C210.853 27.6457 215.856 30.3209 219.784 34.2489C225.049 39.5154 228.008 46.6578 228.008 54.1052C228.008 61.5525 225.049 68.6949 219.784 73.9614C215.856 77.8895 210.853 80.5647 205.405 81.6487C199.957 82.7327 194.31 82.1768 189.178 80.0514C184.046 77.9259 179.66 74.3264 176.574 69.708C173.488 65.0896 171.841 59.6598 171.841 54.1052C171.841 48.5506 173.488 43.1208 176.574 38.5024C179.66 33.884 184.046 30.2844 189.178 28.159C194.31 26.0336 199.957 25.4777 205.405 26.5617ZM205.21 27.5425C210.463 28.5879 215.289 31.1678 219.077 34.956C224.155 40.035 227.008 46.923 227.008 54.1052C227.008 61.2873 224.155 68.1754 219.077 73.2544C215.289 77.0426 210.463 79.6225 205.21 80.6679C199.956 81.7133 194.51 81.1772 189.561 79.1275C184.612 77.0777 180.382 73.6064 177.405 69.1524C174.429 64.6985 172.841 59.462 172.841 54.1052C172.841 48.7484 174.429 43.5119 177.405 39.0579C180.382 34.604 184.612 31.1326 189.561 29.0829C194.51 27.0332 199.956 26.4971 205.21 27.5425Z" fill="url(#paint9_linear_25_202)"/>
<path d="M397.484 323.041C393.932 334.586 386.623 344.612 376.719 351.526C366.815 358.441 354.884 361.846 342.822 361.202C330.76 360.557 319.26 355.9 310.149 347.969C301.039 340.039 294.84 329.291 292.538 317.434C291.362 311.245 288.87 305.382 285.232 300.239C281.595 295.096 276.895 290.794 271.451 287.625L271.062 287.41C264.87 283.883 257.915 281.911 250.793 281.664C243.671 281.416 236.596 282.9 230.174 285.989C216.739 292.385 201.61 294.317 186.999 291.502C172.388 288.686 159.06 281.272 148.964 270.342C138.867 259.412 132.531 245.539 130.881 230.751C129.231 215.963 132.355 201.034 139.794 188.148C147.234 175.261 158.6 165.092 172.231 159.126C185.863 153.16 201.045 151.71 215.559 154.988C230.074 158.266 243.159 166.101 252.903 177.346C262.647 188.592 268.539 202.659 269.718 217.492C270.227 224.66 272.473 231.597 276.262 237.703C280.052 243.809 285.27 248.901 291.467 252.539H291.584C297.105 255.676 303.236 257.59 309.562 258.151C315.887 258.712 322.259 257.907 328.247 255.79C337.7 252.546 347.866 251.98 357.621 254.155C367.376 256.33 376.338 261.161 383.517 268.115C390.696 275.068 395.812 283.872 398.297 293.552C400.783 303.232 400.542 313.412 397.601 322.964L397.484 323.041ZM223.749 199.501C219.093 194.828 213.157 191.641 206.69 190.342C200.223 189.042 193.516 189.69 187.418 192.202C181.319 194.714 176.102 198.978 172.426 204.455C168.75 209.932 166.781 216.376 166.768 222.972C166.754 229.568 168.696 236.02 172.349 241.512C176.002 247.004 181.202 251.29 187.29 253.828C193.379 256.365 200.083 257.04 206.555 255.767C213.027 254.495 218.977 251.332 223.651 246.678C226.756 243.587 229.222 239.915 230.907 235.871C232.592 231.827 233.464 227.491 233.473 223.11C233.482 218.729 232.628 214.389 230.96 210.338C229.291 206.287 226.841 202.605 223.749 199.501V199.501ZM352.624 280.927C347.445 279.556 341.976 279.752 336.909 281.49C331.841 283.228 327.403 286.43 324.156 290.69C320.908 294.951 318.997 300.079 318.664 305.425C318.331 310.772 319.591 316.098 322.285 320.728C324.979 325.359 328.985 329.086 333.798 331.439C338.61 333.793 344.013 334.666 349.322 333.948C354.63 333.231 359.607 330.955 363.623 327.409C367.638 323.863 370.512 319.206 371.88 314.027C373.714 307.084 372.716 299.697 369.105 293.49C365.494 287.283 359.566 282.764 352.624 280.927V280.927Z" fill="url(#paint10_linear_25_202)"/>
<path fill-rule="evenodd" clip-rule="evenodd" d="M397.601 322.964C400.542 313.412 400.783 303.232 398.297 293.552C395.812 283.872 390.697 275.068 383.517 268.115C376.338 261.161 367.376 256.33 357.621 254.155C347.866 251.98 337.7 252.546 328.247 255.79C322.259 257.907 315.887 258.712 309.562 258.151C303.236 257.59 297.105 255.676 291.584 252.539H291.467C285.27 248.901 280.052 243.809 276.262 237.703C272.473 231.597 270.227 224.66 269.718 217.492C268.539 202.659 262.647 188.592 252.903 177.346C243.159 166.101 230.074 158.266 215.559 154.988C201.045 151.71 185.863 153.16 172.231 159.126C158.6 165.092 147.234 175.261 139.794 188.148C132.355 201.034 129.231 215.963 130.881 230.751C132.531 245.539 138.867 259.412 148.964 270.342C159.06 281.272 172.388 288.686 186.999 291.502C201.61 294.317 216.739 292.385 230.174 285.989C236.596 282.9 243.671 281.416 250.793 281.664C257.915 281.911 264.87 283.883 271.062 287.41L271.451 287.625C276.895 290.794 281.595 295.096 285.232 300.239C288.87 305.382 291.362 311.245 292.538 317.434C294.84 329.291 301.039 340.039 310.149 347.969C319.26 355.9 330.76 360.557 342.822 361.202C354.884 361.846 366.815 358.441 376.719 351.526C386.623 344.612 393.932 334.586 397.484 323.041L397.601 322.964ZM396.748 322.33C399.537 313.053 399.739 303.188 397.329 293.801C394.889 284.299 389.868 275.658 382.822 268.833C375.775 262.008 366.978 257.266 357.403 255.131C347.83 252.996 337.853 253.551 328.576 256.735C322.455 258.898 315.94 259.721 309.473 259.147C303.093 258.581 296.907 256.669 291.321 253.539H291.195L290.961 253.401C284.624 249.681 279.287 244.474 275.413 238.23C271.539 231.987 269.242 224.896 268.721 217.568C267.559 202.949 261.751 189.085 252.147 178.001C242.543 166.917 229.645 159.195 215.339 155.964C201.033 152.733 186.068 154.162 172.632 160.042C159.196 165.923 147.993 175.946 140.66 188.648C133.327 201.35 130.249 216.064 131.875 230.64C133.501 245.216 139.747 258.89 149.698 269.663C159.65 280.437 172.787 287.745 187.189 290.52C201.59 293.294 216.5 291.391 229.742 285.087C236.31 281.929 243.545 280.411 250.828 280.664C258.109 280.918 265.22 282.933 271.55 286.538C271.553 286.539 271.555 286.54 271.557 286.542L271.944 286.754L271.955 286.76C277.522 290.002 282.328 294.402 286.049 299.661C289.769 304.92 292.317 310.916 293.52 317.244C295.779 328.882 301.864 339.432 310.806 347.215C319.749 354.999 331.036 359.57 342.875 360.203C354.714 360.836 366.425 357.493 376.146 350.706C385.867 343.92 393.041 334.079 396.528 322.747L396.633 322.407L396.748 322.33ZM206.887 189.361C213.548 190.699 219.662 193.982 224.457 198.795C227.642 201.992 230.166 205.785 231.884 209.957C233.603 214.13 234.483 218.6 234.473 223.112C234.464 227.624 233.566 232.091 231.83 236.256C230.094 240.421 227.555 244.203 224.357 247.387C219.542 252.18 213.414 255.438 206.748 256.749C200.082 258.059 193.177 257.364 186.906 254.751C180.635 252.137 175.279 247.723 171.517 242.066C167.754 236.409 165.754 229.764 165.768 222.97C165.782 216.176 167.81 209.539 171.596 203.898C175.381 198.257 180.755 193.865 187.037 191.277C193.318 188.69 200.226 188.023 206.887 189.361ZM336.584 280.544C341.839 278.742 347.51 278.539 352.88 279.96C360.078 281.865 366.225 286.551 369.969 292.987C373.714 299.423 374.749 307.083 372.847 314.282C371.428 319.653 368.448 324.482 364.285 328.159C360.121 331.836 354.96 334.196 349.456 334.939C343.951 335.683 338.349 334.778 333.359 332.338C328.368 329.898 324.214 326.032 321.421 321.231C318.627 316.429 317.321 310.907 317.666 305.363C318.011 299.819 319.993 294.502 323.36 290.084C326.728 285.666 331.33 282.346 336.584 280.544ZM206.69 190.342C213.157 191.641 219.093 194.828 223.749 199.501C226.841 202.605 229.291 206.287 230.96 210.338C232.628 214.389 233.482 218.729 233.473 223.11C233.464 227.491 232.592 231.827 230.907 235.871C229.222 239.915 226.756 243.587 223.651 246.678C218.977 251.332 213.027 254.495 206.555 255.767C200.083 257.04 193.379 256.365 187.29 253.828C181.202 251.29 176.002 247.005 172.349 241.512C168.696 236.02 166.754 229.568 166.768 222.972C166.781 216.376 168.75 209.932 172.426 204.455C176.102 198.978 181.319 194.714 187.418 192.202C193.516 189.69 200.223 189.042 206.69 190.342ZM336.909 281.49C341.976 279.752 347.445 279.556 352.624 280.927C359.566 282.764 365.494 287.283 369.105 293.49C372.716 299.697 373.714 307.084 371.88 314.027C370.512 319.206 367.638 323.863 363.623 327.409C359.607 330.955 354.63 333.231 349.322 333.948C344.013 334.666 338.61 333.793 333.798 331.439C328.985 329.086 324.979 325.359 322.285 320.728C319.591 316.098 318.331 310.772 318.664 305.425C318.997 300.079 320.908 294.951 324.156 290.69C327.403 286.43 331.841 283.228 336.909 281.49Z" fill="url(#paint11_linear_25_202)"/>
<path d="M361.386 527.268C351.457 530.328 340.856 530.456 330.856 527.638C323.174 525.556 315.153 525.031 307.265 526.094C299.377 527.157 291.782 529.787 284.925 533.829L280.739 536.244C273.814 540.162 267.741 545.426 262.88 551.726C258.018 558.025 254.465 565.233 252.429 572.926C249.777 583.332 244.092 592.715 236.096 599.884C228.1 607.052 218.153 611.682 207.52 613.184C196.887 614.687 186.047 612.996 176.378 608.325C166.708 603.653 158.645 596.213 153.213 586.95C147.781 577.686 145.225 567.017 145.87 556.297C146.515 545.578 150.332 535.292 156.836 526.746C163.339 518.201 172.236 511.781 182.396 508.303C192.556 504.825 203.521 504.446 213.897 507.213C229.453 511.53 246.086 509.492 260.139 501.547L265.474 498.471C272.293 494.458 278.25 489.135 283.002 482.81C287.754 476.484 291.207 469.28 293.161 461.613C295.572 452.487 300.326 444.15 306.951 437.427C313.577 430.705 321.844 425.83 330.934 423.286C340.023 420.743 349.62 420.618 358.772 422.926C367.925 425.233 376.316 429.892 383.113 436.441C389.91 442.99 394.879 451.201 397.525 460.261C400.172 469.321 400.405 478.916 398.201 488.094C395.998 497.272 391.435 505.715 384.963 512.586C378.492 519.457 370.337 524.518 361.308 527.268H361.386ZM219.037 540.371C215.25 536.583 210.424 534.003 205.17 532.958C199.916 531.912 194.47 532.448 189.521 534.498C184.572 536.548 180.342 540.019 177.366 544.473C174.39 548.927 172.801 554.164 172.801 559.52C172.801 564.877 174.39 570.114 177.366 574.568C180.342 579.022 184.572 582.493 189.521 584.543C194.47 586.592 199.916 587.129 205.17 586.083C210.424 585.038 215.25 582.458 219.037 578.67C224.113 573.588 226.962 566.699 226.958 559.516C226.955 552.334 224.098 545.448 219.018 540.371H219.037ZM371.686 468.506C370.314 463.325 367.436 458.668 363.417 455.124C359.398 451.58 354.417 449.308 349.106 448.595C343.795 447.882 338.391 448.761 333.58 451.121C328.768 453.48 324.765 457.214 322.076 461.85C319.388 466.485 318.135 471.814 318.476 477.162C318.817 482.51 320.737 487.637 323.993 491.893C327.249 496.149 331.694 499.344 336.767 501.073C341.839 502.802 347.31 502.987 352.488 501.606C359.415 499.752 365.325 495.226 368.92 489.021C372.515 482.816 373.503 475.438 371.666 468.506H371.686Z" fill="url(#paint12_linear_25_202)"/>
<path fill-rule="evenodd" clip-rule="evenodd" d="M330.856 527.638C340.783 530.436 351.303 530.33 361.169 527.334C361.215 527.32 361.262 527.306 361.308 527.292C361.31 527.291 361.312 527.29 361.315 527.289C361.338 527.282 361.362 527.275 361.386 527.268H361.308C361.332 527.26 361.355 527.253 361.379 527.246C361.381 527.245 361.384 527.244 361.386 527.244C361.433 527.229 361.479 527.215 361.526 527.201C370.469 524.437 378.544 519.402 384.963 512.586C391.435 505.715 395.998 497.272 398.201 488.094C400.405 478.916 400.172 469.321 397.525 460.261C394.879 451.201 389.91 442.99 383.113 436.441C376.316 429.892 367.925 425.233 358.772 422.926C349.62 420.618 340.023 420.743 330.934 423.286C321.844 425.83 313.577 430.705 306.951 437.427C300.326 444.15 295.572 452.487 293.161 461.613C291.207 469.28 287.754 476.484 283.002 482.81C278.25 489.135 272.293 494.458 265.474 498.471L260.139 501.547C246.086 509.492 229.453 511.53 213.897 507.213C203.521 504.446 192.556 504.825 182.396 508.303C172.236 511.781 163.339 518.201 156.836 526.746C150.332 535.292 146.515 545.578 145.87 556.297C145.225 567.017 147.781 577.686 153.213 586.95C158.645 596.213 166.708 603.653 176.378 608.325C186.047 612.996 196.887 614.687 207.52 613.184C218.153 611.682 228.1 607.052 236.096 599.884C244.092 592.715 249.777 583.332 252.429 572.926C254.465 565.233 258.018 558.025 262.88 551.726C267.741 545.426 273.814 540.162 280.739 536.244L284.925 533.829C291.782 529.787 299.377 527.157 307.265 526.094C315.153 525.031 323.174 525.556 330.856 527.638ZM294.129 461.864C292.142 469.657 288.632 476.98 283.802 483.41C278.97 489.842 272.914 495.253 265.981 499.333L265.974 499.337L260.631 502.418C246.349 510.492 229.444 512.564 213.634 508.178C203.451 505.463 192.691 505.836 182.72 509.25C172.748 512.663 164.015 518.964 157.631 527.352C151.248 535.74 147.502 545.836 146.868 556.357C146.235 566.879 148.744 577.351 154.076 586.444C159.407 595.536 167.321 602.839 176.813 607.424C186.304 612.009 196.944 613.67 207.38 612.194C217.817 610.719 227.58 606.175 235.429 599.139C243.277 592.103 248.857 582.893 251.46 572.679L251.462 572.67C253.532 564.849 257.145 557.52 262.088 551.115C267.03 544.711 273.203 539.36 280.243 535.375C280.244 535.375 280.245 535.374 280.247 535.373L284.417 532.968C284.419 532.967 284.42 532.966 284.421 532.965C291.392 528.857 299.113 526.184 307.132 525.103C315.152 524.022 323.307 524.555 331.118 526.672L331.127 526.675C340.918 529.435 351.296 529.316 361.02 526.334L361.017 526.311C369.88 523.613 377.883 518.645 384.235 511.901C390.587 505.156 395.066 496.869 397.229 487.86C399.392 478.852 399.163 469.434 396.565 460.542C393.968 451.649 389.091 443.589 382.419 437.161C375.747 430.733 367.511 426.16 358.528 423.895C349.544 421.631 340.125 421.753 331.203 424.249C322.281 426.746 314.167 431.531 307.664 438.129C301.162 444.727 296.496 452.909 294.129 461.864ZM219.027 540.381C219.031 540.384 219.034 540.387 219.037 540.391C219.356 540.711 219.667 541.037 219.969 541.371C224.453 546.333 226.955 552.795 226.958 559.516C226.962 566.699 224.113 573.588 219.037 578.67C215.25 582.458 210.424 585.038 205.17 586.083C199.916 587.129 194.47 586.592 189.521 584.543C184.572 582.493 180.342 579.022 177.366 574.568C174.39 570.114 172.801 564.877 172.801 559.52C172.801 554.164 174.39 548.927 177.366 544.473C180.342 540.019 184.572 536.548 189.521 534.498C194.47 532.448 199.916 531.912 205.17 532.958C209.948 533.908 214.371 536.128 217.982 539.371C218.335 539.688 218.68 540.015 219.018 540.352C219.021 540.355 219.024 540.358 219.027 540.362C219.031 540.365 219.034 540.368 219.037 540.371H219.018C219.021 540.374 219.024 540.378 219.027 540.381ZM221.298 541.371H221.451L219.744 539.664C215.817 535.736 210.813 533.061 205.365 531.977C199.917 530.893 194.27 531.449 189.139 533.574C184.007 535.7 179.62 539.299 176.534 543.918C173.448 548.536 171.801 553.966 171.801 559.52C171.801 565.075 173.448 570.505 176.534 575.123C179.62 579.742 184.007 583.341 189.139 585.467C194.27 587.592 199.917 588.148 205.365 587.064C210.813 585.98 215.817 583.305 219.744 579.377C225.007 574.107 227.962 566.963 227.958 559.516C227.955 552.846 225.579 546.421 221.298 541.371ZM371.667 468.511C371.674 468.534 371.68 468.557 371.686 468.58C371.766 468.887 371.841 469.196 371.911 469.506C373.402 476.143 372.343 483.113 368.92 489.021C365.325 495.226 359.415 499.752 352.488 501.606C347.31 502.987 341.839 502.802 336.767 501.073C331.694 499.344 327.249 496.149 323.993 491.893C320.737 487.637 318.817 482.51 318.476 477.162C318.135 471.814 319.388 466.485 322.076 461.85C324.765 457.214 328.768 453.48 333.58 451.121C338.391 448.761 343.795 447.882 349.106 448.595C354.417 449.308 359.398 451.58 363.417 455.124C367.176 458.439 369.936 462.727 371.4 467.506C371.494 467.813 371.583 468.122 371.666 468.433C371.672 468.455 371.678 468.478 371.684 468.501C371.685 468.502 371.685 468.504 371.686 468.506H371.666C371.667 468.507 371.667 468.509 371.667 468.511ZM372.935 469.506H372.985L372.652 468.25C371.23 462.878 368.246 458.049 364.078 454.374C359.911 450.699 354.746 448.343 349.239 447.604C343.732 446.865 338.129 447.776 333.14 450.223C328.15 452.67 323.999 456.541 321.211 461.348C318.423 466.155 317.124 471.68 317.478 477.226C317.832 482.771 319.823 488.087 323.199 492.501C326.575 496.914 331.184 500.227 336.444 502.02C341.704 503.812 347.377 504.004 352.746 502.572C359.929 500.649 366.057 495.956 369.785 489.522C373.297 483.461 374.409 476.322 372.935 469.506Z" fill="url(#paint13_linear_25_202)"/>
<path d="M164.305 508.77C161.332 510.842 158.543 513.167 155.972 515.721C145.575 526.066 139.222 539.788 138.059 554.409C132.616 546.52 125.503 539.926 117.226 535.094L116.681 534.783C101.551 526.227 83.7102 523.822 66.8556 528.065C56.5255 530.547 45.6937 529.936 35.708 526.309C25.7224 522.682 17.024 516.198 10.6952 507.665C4.36636 499.132 0.686635 488.926 0.113934 478.317C-0.458767 467.709 2.10084 457.166 7.47423 448.001C12.8476 438.836 20.7975 431.453 30.3346 426.772C39.8716 422.091 50.5748 420.318 61.112 421.673C71.6492 423.028 81.5552 427.452 89.5973 434.394C97.6394 441.337 103.462 450.491 106.342 460.717C111.035 477.255 121.995 491.31 136.891 499.892L137.397 500.184C145.65 504.936 154.825 507.864 164.305 508.77V508.77ZM61.1118 449.229C55.9345 447.844 50.4626 448.026 45.3886 449.751C40.3147 451.477 35.8669 454.67 32.6082 458.925C29.3495 463.18 27.4265 468.306 27.0826 473.654C26.7387 479.003 27.9893 484.333 30.6762 488.97C33.3631 493.607 37.3654 497.343 42.1766 499.705C46.9877 502.066 52.3913 502.947 57.7033 502.236C63.0154 501.525 67.9971 499.254 72.0178 495.71C76.0385 492.167 78.9174 487.51 80.2902 482.329C82.1305 475.41 81.1563 468.044 77.5806 461.841C74.005 455.639 68.1188 451.104 61.2091 449.229H61.1118Z" fill="url(#paint14_linear_25_202)"/>
<path fill-rule="evenodd" clip-rule="evenodd" d="M155.267 515.012L155.267 515.012C157.268 513.025 159.398 511.174 161.642 509.471C152.933 508.301 144.527 505.444 136.898 501.05L136.392 500.758C136.392 500.758 136.392 500.758 136.392 500.758C121.27 492.046 110.144 477.779 105.38 460.99L105.379 460.988C102.553 450.95 96.8375 441.965 88.9439 435.151C81.0503 428.337 71.3271 423.995 60.9844 422.665C50.6417 421.334 40.1362 423.075 30.7752 427.67C21.4142 432.265 13.6111 439.511 8.33689 448.507C3.06271 457.502 0.550352 467.85 1.11248 478.263C1.67461 488.676 5.2864 498.693 11.4984 507.069C17.7104 515.445 26.2482 521.809 36.0495 525.369C45.849 528.929 56.4789 529.529 66.6167 527.094C83.7189 522.79 101.822 525.231 117.173 533.912L117.177 533.914L117.73 534.23C125.368 538.689 132.03 544.626 137.329 551.684C139.028 537.822 145.33 524.899 155.267 515.012ZM138.201 552.872C138.147 553.383 138.1 553.895 138.059 554.409C137.767 553.985 137.469 553.565 137.167 553.149C131.849 545.816 125.059 539.666 117.226 535.094L116.681 534.783C101.551 526.227 83.7102 523.822 66.8556 528.065C56.5255 530.547 45.6937 529.936 35.708 526.309C25.7224 522.682 17.024 516.198 10.6952 507.665C4.36636 499.132 0.686635 488.926 0.113934 478.317C-0.458767 467.709 2.10084 457.166 7.47423 448.001C12.8476 438.836 20.7975 431.453 30.3346 426.772C39.8716 422.091 50.5748 420.318 61.112 421.673C71.6492 423.028 81.5552 427.452 89.5973 434.394C97.6394 441.337 103.462 450.491 106.342 460.717C111.035 477.255 121.995 491.31 136.891 499.892L137.397 500.184C145.213 504.685 153.858 507.55 162.804 508.61C163.304 508.669 163.804 508.722 164.305 508.77C163.892 509.058 163.483 509.35 163.077 509.648C160.562 511.492 158.186 513.522 155.972 515.721C145.94 525.703 139.673 538.829 138.201 552.872ZM61.2091 449.229C68.1188 451.104 74.005 455.639 77.5806 461.841C81.1563 468.044 82.1305 475.41 80.2902 482.329C78.9174 487.51 76.0385 492.167 72.0178 495.71C67.9971 499.254 63.0154 501.525 57.7033 502.236C52.3913 502.947 46.9877 502.066 42.1766 499.705C37.3654 497.343 33.3631 493.607 30.6762 488.97C27.9893 484.333 26.7387 479.003 27.0826 473.654C27.4265 468.306 29.3495 463.18 32.6082 458.925C35.8669 454.67 40.3147 451.477 45.3886 449.751C50.4626 448.026 55.9345 447.844 61.1118 449.229H61.2091ZM61.2421 448.229C55.9116 446.83 50.286 447.029 45.0666 448.805C39.8053 450.594 35.1933 453.905 31.8143 458.317C28.4353 462.729 26.4413 468.044 26.0847 473.59C25.7281 479.136 27.0249 484.663 29.811 489.471C32.5971 494.28 36.7472 498.154 41.7359 500.602C46.7247 503.051 52.3278 503.965 57.836 503.227C63.3442 502.49 68.5098 500.135 72.679 496.461C76.8479 492.786 79.8331 487.958 81.2566 482.586C83.1648 475.412 82.1546 467.774 78.447 461.342C74.7393 454.91 68.6358 450.208 61.471 448.264L61.3424 448.229H61.2421Z" fill="url(#paint15_linear_25_202)"/>
<defs>
<linearGradient id="paint0_linear_25_202" x1="370.304" y1="354.535" x2="302.361" y2="394.7" gradientUnits="userSpaceOnUse">
<stop offset="0.145833" stop-color="#4E9CFB"/>
<stop offset="0.458333" stop-color="#DA7FDC"/>
<stop offset="0.723958" stop-color="#989AFA"/>
</linearGradient>
<linearGradient id="paint1_linear_25_202" x1="370.304" y1="354.535" x2="302.361" y2="394.7" gradientUnits="userSpaceOnUse">
<stop offset="0.145833" stop-color="#4E9CFB"/>
<stop offset="0.458333" stop-color="#DA7FDC"/>
<stop offset="0.723958" stop-color="#989AFA"/>
</linearGradient>
<linearGradient id="paint2_linear_25_202" x1="161.479" y1="49.2391" x2="70.789" y2="107.921" gradientUnits="userSpaceOnUse">
<stop offset="0.145833" stop-color="#4E9CFB"/>
<stop offset="0.458333" stop-color="#DA7FDC"/>
<stop offset="0.723958" stop-color="#989AFA"/>
</linearGradient>
<linearGradient id="paint3_linear_25_202" x1="161.479" y1="49.2391" x2="70.789" y2="107.921" gradientUnits="userSpaceOnUse">
<stop offset="0.145833" stop-color="#4E9CFB"/>
<stop offset="0.458333" stop-color="#DA7FDC"/>
<stop offset="0.723958" stop-color="#989AFA"/>
</linearGradient>
<linearGradient id="paint4_linear_25_202" x1="263.578" y1="292.492" x2="68.8715" y2="442.103" gradientUnits="userSpaceOnUse">
<stop offset="0.145833" stop-color="#4E9CFB"/>
<stop offset="0.458333" stop-color="#DA7FDC"/>
<stop offset="0.723958" stop-color="#989AFA"/>
</linearGradient>
<linearGradient id="paint5_linear_25_202" x1="263.578" y1="292.492" x2="68.8715" y2="442.103" gradientUnits="userSpaceOnUse">
<stop offset="0.145833" stop-color="#4E9CFB"/>
<stop offset="0.458333" stop-color="#DA7FDC"/>
<stop offset="0.723958" stop-color="#989AFA"/>
</linearGradient>
<linearGradient id="paint6_linear_25_202" x1="104.903" y1="41.8123" x2="-73.5756" y2="85.979" gradientUnits="userSpaceOnUse">
<stop offset="0.145833" stop-color="#4E9CFB"/>
<stop offset="0.458333" stop-color="#DA7FDC"/>
<stop offset="0.723958" stop-color="#989AFA"/>
</linearGradient>
<linearGradient id="paint7_linear_25_202" x1="104.903" y1="41.8123" x2="-73.5756" y2="85.979" gradientUnits="userSpaceOnUse">
<stop offset="0.145833" stop-color="#4E9CFB"/>
<stop offset="0.458333" stop-color="#DA7FDC"/>
<stop offset="0.723958" stop-color="#989AFA"/>
</linearGradient>
<linearGradient id="paint8_linear_25_202" x1="391.275" y1="-29.3784" x2="129.46" y2="188.513" gradientUnits="userSpaceOnUse">
<stop offset="0.145833" stop-color="#4E9CFB"/>
<stop offset="0.458333" stop-color="#DA7FDC"/>
<stop offset="0.723958" stop-color="#989AFA"/>
</linearGradient>
<linearGradient id="paint9_linear_25_202" x1="391.275" y1="-29.3784" x2="129.46" y2="188.513" gradientUnits="userSpaceOnUse">
<stop offset="0.145833" stop-color="#4E9CFB"/>
<stop offset="0.458333" stop-color="#DA7FDC"/>
<stop offset="0.723958" stop-color="#989AFA"/>
</linearGradient>
<linearGradient id="paint10_linear_25_202" x1="391.014" y1="121.523" x2="109.007" y2="352.055" gradientUnits="userSpaceOnUse">
<stop offset="0.145833" stop-color="#4E9CFB"/>
<stop offset="0.458333" stop-color="#DA7FDC"/>
<stop offset="0.723958" stop-color="#989AFA"/>
</linearGradient>
<linearGradient id="paint11_linear_25_202" x1="391.014" y1="121.523" x2="109.007" y2="352.055" gradientUnits="userSpaceOnUse">
<stop offset="0.145833" stop-color="#4E9CFB"/>
<stop offset="0.458333" stop-color="#DA7FDC"/>
<stop offset="0.723958" stop-color="#989AFA"/>
</linearGradient>
<linearGradient id="paint12_linear_25_202" x1="391.234" y1="391.907" x2="129.435" y2="609.827" gradientUnits="userSpaceOnUse">
<stop offset="0.145833" stop-color="#4E9CFB"/>
<stop offset="0.458333" stop-color="#DA7FDC"/>
<stop offset="0.723958" stop-color="#989AFA"/>
</linearGradient>
<linearGradient id="paint13_linear_25_202" x1="391.234" y1="391.907" x2="129.435" y2="609.827" gradientUnits="userSpaceOnUse">
<stop offset="0.145833" stop-color="#4E9CFB"/>
<stop offset="0.458333" stop-color="#DA7FDC"/>
<stop offset="0.723958" stop-color="#989AFA"/>
</linearGradient>
<linearGradient id="paint14_linear_25_202" x1="158.83" y1="400.9" x2="-19.7593" y2="539.859" gradientUnits="userSpaceOnUse">
<stop offset="0.145833" stop-color="#4E9CFB"/>
<stop offset="0.458333" stop-color="#DA7FDC"/>
<stop offset="0.723958" stop-color="#989AFA"/>
</linearGradient>
<linearGradient id="paint15_linear_25_202" x1="158.83" y1="400.9" x2="-19.7593" y2="539.859" gradientUnits="userSpaceOnUse">
<stop offset="0.145833" stop-color="#4E9CFB"/>
<stop offset="0.458333" stop-color="#DA7FDC"/>
<stop offset="0.723958" stop-color="#989AFA"/>
</linearGradient>
</defs>
</svg>
