<svg width="400" height="614" viewBox="0 0 400 614" fill="none" xmlns="http://www.w3.org/2000/svg">
<path d="M325.981 390.447L325.981 390.448L325.981 392.902H325.481L325.981 392.904C325.946 401.608 324.09 410.204 320.538 418.14C328.431 414.671 336.963 412.877 345.594 412.877C354.229 412.877 362.764 414.673 370.659 418.144C367.181 410.276 365.363 401.769 365.324 393.157L365.324 393.155L365.324 390.546V390.544C365.356 381.43 367.302 372.43 371.028 364.125C358.805 369.677 345.089 371.087 331.972 368.117L325.981 390.447ZM325.981 390.447C325.967 381.461 324.112 372.578 320.536 364.344M325.981 390.447L320.536 364.344M320.536 364.344C324.217 365.966 328.046 367.229 331.971 368.117L320.536 364.344Z" fill="url(#paint0_linear_25_202)" stroke="#544E87"/>
<path d="M116.416 130.715C116.016 127.302 115.334 123.926 114.377 120.624L113.897 120.763L114.376 120.62C110.503 107.599 102.488 96.2111 91.567 88.172C99.8621 87.1614 107.873 84.4885 115.119 80.3084C115.12 80.3082 115.12 80.308 115.12 80.3078L119.382 77.8751L119.385 77.8738C126.579 73.7161 132.864 68.1613 137.871 61.541C139.479 75.5054 145.793 88.522 155.796 98.4347L155.797 98.4356C157.915 100.524 160.178 102.46 162.568 104.229C154.425 105.091 146.544 107.634 139.428 111.703L139.426 111.704L134.091 114.78L134.089 114.782C127.164 118.828 121.15 124.253 116.416 130.715Z" fill="url(#paint1_linear_25_202)" stroke="#544E87"/>
<path d="M108.519 360.645C103.816 357.975 98.6583 356.208 93.3126 355.43C103.736 347.07 111.215 335.582 114.633 322.643L114.634 322.642C115.206 320.444 115.657 318.217 115.985 315.971C119.382 320.207 123.54 323.776 128.25 326.492L128.25 326.492L128.259 326.497L128.642 326.708C128.643 326.708 128.644 326.709 128.645 326.71C134.906 330.276 141.939 332.269 149.141 332.52C156.343 332.77 163.498 331.269 169.993 328.146C183.21 321.848 198.085 319.903 212.477 322.592C226.87 325.28 240.039 332.462 250.093 343.106C260.147 353.751 266.566 367.309 268.429 381.831C270.292 396.354 267.502 411.093 260.46 423.93L260.899 424.171L260.46 423.93C253.299 436.997 242.113 447.404 228.565 453.604C215.017 459.805 199.829 461.469 185.26 458.349C170.69 455.229 157.516 447.491 147.696 436.286C137.876 425.081 131.933 411.006 130.751 396.154C130.236 388.906 127.964 381.892 124.133 375.717C120.301 369.542 115.024 364.393 108.757 360.714L108.639 360.645H108.519ZM224.083 367.126L224.105 367.104L223.753 366.75C219.028 362.007 213.002 358.772 206.439 357.453C199.875 356.134 193.067 356.791 186.877 359.341C180.687 361.891 175.391 366.219 171.661 371.778C167.93 377.337 165.931 383.878 165.918 390.573C165.904 397.268 167.875 403.816 171.583 409.391C175.291 414.965 180.568 419.315 186.748 421.891C192.928 424.466 199.732 425.151 206.302 423.86C212.871 422.568 218.909 419.358 223.654 414.634L223.654 414.634C230.01 408.296 233.589 399.694 233.604 390.718C233.618 381.909 230.199 373.448 224.083 367.126Z" fill="url(#paint2_linear_25_202)" stroke="#544E87"/>
<path d="M1.38815 296.81C3.30014 286.433 8.22971 276.851 15.5601 269.261C27.6411 256.932 34.445 240.382 34.5291 223.121V223.118L34.5291 220.509L34.5291 220.505C34.3759 203.647 27.6539 187.513 15.7921 175.533C8.45344 167.951 3.51261 158.375 1.58741 148C-0.337964 137.624 0.838278 126.911 4.96904 117.201C9.09981 107.49 16.0018 99.2129 24.8118 93.404C33.6218 87.5951 43.9489 84.5125 54.5015 84.5416C65.0542 84.5707 75.3641 87.7103 84.1419 93.5677C92.9197 99.4251 99.7759 107.74 103.853 117.474C107.93 127.207 109.047 137.926 107.065 148.291C105.082 158.655 100.089 168.204 92.7082 175.746C80.7779 187.713 74.0152 203.88 73.872 220.778V220.782V223.234C73.8229 240.299 80.4739 256.701 92.3943 268.912L92.7511 268.564L92.3956 268.913C99.7947 276.436 104.811 285.974 106.817 296.334C108.822 306.693 107.729 317.414 103.672 327.155C99.6157 336.896 92.7767 345.224 84.0109 351.098C75.245 356.972 64.9416 360.13 54.3899 360.178C43.8381 360.226 33.5066 357.161 24.688 351.366C15.8694 345.572 8.95542 337.306 4.81107 327.602C0.666724 317.898 -0.523909 307.187 1.38815 296.81ZM61.4547 164.859C66.7307 163.462 71.4737 160.532 75.0834 156.438C78.6931 152.344 81.0073 147.272 81.733 141.863C82.4588 136.453 81.5635 130.95 79.1605 126.05C76.7575 121.15 72.9548 117.072 68.2337 114.334C63.5125 111.596 58.0851 110.32 52.6384 110.667C47.1917 111.015 41.9705 112.97 37.6356 116.286C33.3007 119.602 30.0469 124.13 28.2861 129.296C26.5253 134.462 26.3366 140.034 27.7438 145.307C29.6277 152.366 34.2353 158.39 40.5555 162.055C46.8756 165.721 54.3919 166.729 61.4547 164.859ZM61.2015 279.937C55.9271 278.541 50.3572 278.741 45.1963 280.511C40.0354 282.281 35.5154 285.541 32.2078 289.881C28.9003 294.22 26.9539 299.442 26.6147 304.888C26.2756 310.333 27.559 315.757 30.3026 320.473C33.0462 325.189 37.1267 328.985 42.0281 331.382C46.9295 333.778 52.4316 334.668 57.8385 333.937C63.2453 333.207 68.314 330.889 72.4036 327.277C76.4931 323.666 79.4198 318.923 80.8133 313.648C82.6814 306.577 81.6648 299.053 77.9871 292.732C74.3094 286.41 68.2717 281.808 61.2015 279.937Z" fill="url(#paint3_linear_25_202)" stroke="#544E87"/>
<path d="M397.794 150.682H397.868C395.161 162.087 388.793 172.298 379.729 179.748C370.503 187.33 359.013 191.619 347.075 191.936C335.138 192.252 323.436 188.578 313.821 181.496C304.207 174.413 297.23 164.326 293.994 152.831L293.993 152.83C289.265 136.167 278.222 122.005 263.213 113.359L262.71 113.068C262.709 113.068 262.709 113.068 262.708 113.068C247.859 104.371 230.188 101.855 213.503 106.064L213.499 106.065C203.304 108.719 192.554 108.312 182.589 104.896C172.623 101.48 163.885 95.2055 157.462 86.8554C151.039 78.5053 147.217 68.4491 146.472 57.941C145.727 47.4329 148.093 36.9381 153.273 27.7654C158.454 18.5928 166.22 11.1484 175.604 6.36074C184.987 1.57305 195.573 -0.346004 206.04 0.842927C216.507 2.03186 226.393 6.27615 234.463 13.0464C242.534 19.8162 248.432 28.8119 251.424 38.9117C256.206 55.7504 267.29 70.1003 282.375 78.9813L282.38 78.9845L282.925 79.296L282.927 79.2971C298.148 87.9067 316.096 90.3367 333.059 86.0844C341.924 83.963 351.184 84.134 359.965 86.5812C368.747 89.0287 376.761 93.6723 383.252 100.074C389.743 106.476 394.496 114.426 397.065 123.173C399.633 131.921 399.931 141.178 397.931 150.073L397.794 150.682ZM353.144 111.737V111.714L352.773 111.615C347.501 110.204 341.928 110.389 336.76 112.147C331.592 113.904 327.062 117.156 323.744 121.489C320.425 125.823 318.466 131.044 318.116 136.491C317.766 141.938 319.04 147.367 321.776 152.089C324.512 156.812 328.589 160.617 333.489 163.022C338.389 165.427 343.892 166.325 349.302 165.6C354.712 164.876 359.786 162.563 363.881 158.954C367.976 155.345 370.908 150.602 372.306 145.326L372.306 145.326C374.171 138.268 373.162 130.759 369.501 124.444C365.904 118.24 360.035 113.685 353.144 111.737ZM219.43 34.6024C215.573 30.7444 210.658 28.1168 205.307 27.0521C199.956 25.9874 194.41 26.5334 189.37 28.621C184.329 30.7085 180.021 34.244 176.99 38.7802C173.959 43.3163 172.341 48.6495 172.341 54.1052C172.341 59.5609 173.959 64.894 176.99 69.4302C180.021 73.9664 184.329 77.5018 189.37 79.5894C194.41 81.677 199.956 82.223 205.307 81.1583C210.658 80.0936 215.573 77.466 219.43 73.6079C224.602 68.4352 227.508 61.4199 227.508 54.1052C227.508 46.7904 224.602 39.7752 219.43 34.6024Z" fill="url(#paint4_linear_25_202)" stroke="#544E87"/>
<path d="M397.058 322.724L397.175 322.646C400.039 313.232 400.261 303.21 397.813 293.676C395.35 284.085 390.282 275.363 383.17 268.474C376.057 261.585 367.177 256.798 357.512 254.643C347.848 252.488 337.776 253.048 328.411 256.263C322.357 258.402 315.914 259.216 309.518 258.649C303.165 258.086 297.006 256.173 291.452 253.039H291.331L291.214 252.97C284.947 249.291 279.669 244.141 275.838 237.966C272.006 231.792 269.735 224.779 269.22 217.531M397.058 322.724L269.718 217.492M397.058 322.724L397.006 322.894C393.486 334.332 386.245 344.266 376.432 351.116C366.62 357.967 354.799 361.341 342.849 360.702C330.898 360.064 319.505 355.449 310.478 347.592C301.451 339.735 295.309 329.087 293.029 317.339L397.058 322.724ZM269.22 217.531C269.22 217.53 269.22 217.529 269.22 217.527L269.718 217.492M269.22 217.531C269.22 217.531 269.22 217.531 269.22 217.532L269.718 217.492M269.22 217.531C268.049 202.804 262.199 188.838 252.525 177.674C242.851 166.509 229.859 158.731 215.449 155.476C201.039 152.221 185.966 153.661 172.432 159.584C158.898 165.507 147.613 175.604 140.227 188.398C132.841 201.192 129.74 216.013 131.378 230.695C133.016 245.377 139.307 259.151 149.331 270.003C159.355 280.854 172.588 288.216 187.094 291.011C201.6 293.806 216.62 291.888 229.958 285.538M269.718 217.492C268.539 202.659 262.647 188.592 252.903 177.346C243.159 166.101 230.074 158.266 215.559 154.988C201.045 151.71 185.863 153.16 172.231 159.126C158.6 165.092 147.234 175.261 139.794 188.148C132.355 201.034 129.231 215.963 130.881 230.751C132.531 245.539 138.867 259.412 148.964 270.342C159.06 281.272 172.388 288.686 186.999 291.502C201.61 294.317 216.739 292.385 230.174 285.989M229.958 285.538C229.958 285.538 229.958 285.538 229.957 285.538L230.174 285.989M229.958 285.538C236.453 282.415 243.608 280.914 250.81 281.164C258.012 281.414 265.045 283.408 271.306 286.974M229.958 285.538C229.958 285.538 229.959 285.538 229.959 285.538L230.174 285.989M230.174 285.989L271.306 286.974M271.306 286.974L271.303 286.972L271.062 287.41L271.309 286.976C271.308 286.975 271.307 286.975 271.306 286.974ZM224.103 199.148C219.378 194.405 213.352 191.17 206.789 189.851C200.225 188.533 193.417 189.19 187.227 191.74C181.037 194.289 175.741 198.618 172.011 204.177C168.28 209.736 166.281 216.276 166.268 222.971C166.254 229.666 168.225 236.215 171.933 241.789C175.641 247.364 180.918 251.714 187.098 254.289C193.278 256.864 200.082 257.55 206.652 256.258C213.221 254.966 219.259 251.756 224.004 247.033C227.155 243.895 229.658 240.168 231.368 236.063C233.079 231.959 233.964 227.558 233.973 223.111C233.982 218.664 233.115 214.259 231.422 210.148C229.728 206.036 227.241 202.299 224.103 199.148ZM352.752 280.443C347.477 279.048 341.907 279.247 336.746 281.017C331.586 282.787 327.066 286.048 323.758 290.387C320.45 294.726 318.504 299.949 318.165 305.394C317.826 310.84 319.109 316.264 321.853 320.979C324.596 325.695 328.677 329.492 333.578 331.889C338.48 334.285 343.982 335.174 349.389 334.444C354.795 333.713 359.864 331.396 363.954 327.784C368.043 324.173 370.97 319.429 372.363 314.154C374.232 307.083 373.215 299.56 369.537 293.238C365.86 286.917 359.822 282.314 352.752 280.443Z" fill="url(#paint5_linear_25_202)" stroke="#544E87"/>
<path d="M293.645 461.738C291.674 469.468 288.193 476.732 283.402 483.11C278.61 489.488 272.603 494.856 265.728 498.902L265.724 498.904L260.389 501.98L260.385 501.982C246.217 509.992 229.448 512.047 213.765 507.695C203.486 504.955 192.623 505.331 182.558 508.776C172.492 512.222 163.677 518.583 157.233 527.049C150.79 535.516 147.008 545.707 146.369 556.327C145.73 566.948 148.263 577.519 153.644 586.697C159.026 595.875 167.015 603.246 176.595 607.874C186.175 612.503 196.915 614.178 207.45 612.689C217.985 611.2 227.84 606.613 235.762 599.511C243.685 592.409 249.317 583.113 251.944 572.802L251.946 572.798C253.998 565.041 257.581 557.773 262.484 551.42C267.386 545.069 273.508 539.761 280.491 535.81C280.491 535.809 280.492 535.809 280.493 535.808L284.671 533.398C284.672 533.398 284.673 533.398 284.673 533.397C291.587 529.322 299.245 526.671 307.198 525.599C315.152 524.526 323.24 525.055 330.987 527.155L330.992 527.156C340.874 529.942 351.35 529.822 361.166 526.812L361.162 526.789C370.109 524.065 378.188 519.051 384.599 512.243C391.011 505.436 395.532 497.071 397.715 487.977C399.898 478.884 399.667 469.378 397.045 460.401C394.423 451.425 389.501 443.289 382.766 436.801C376.031 430.312 367.718 425.697 358.65 423.411C349.582 421.124 340.074 421.248 331.068 423.768C322.063 426.288 313.872 431.118 307.308 437.778C300.744 444.438 296.034 452.698 293.645 461.738ZM293.645 461.738C293.645 461.739 293.645 461.74 293.645 461.741L293.161 461.613L293.646 461.737C293.646 461.737 293.645 461.737 293.645 461.738ZM220.19 540.871H220.244L219.391 540.018C215.533 536.16 210.618 533.532 205.268 532.467C199.917 531.403 194.37 531.949 189.33 534.036C184.289 536.124 179.981 539.659 176.95 544.195C173.919 548.732 172.301 554.065 172.301 559.52C172.301 564.976 173.919 570.309 176.95 574.845C179.981 579.382 184.289 582.917 189.33 585.005C194.37 587.092 199.917 587.638 205.268 586.574C210.618 585.509 215.533 582.881 219.391 579.023L219.391 579.023C224.56 573.848 227.462 566.831 227.458 559.516C227.455 552.597 224.851 545.946 220.19 540.871ZM369.353 489.271C372.906 483.139 373.958 475.882 372.308 469.006H372.335L372.169 468.378C370.772 463.102 367.841 458.359 363.748 454.749C359.654 451.139 354.582 448.825 349.172 448.099C343.763 447.374 338.26 448.269 333.36 450.672C328.459 453.075 324.382 456.878 321.644 461.599C318.906 466.32 317.629 471.747 317.977 477.194C318.324 482.641 320.28 487.862 323.596 492.197C326.912 496.532 331.439 499.785 336.605 501.546C341.771 503.307 347.343 503.496 352.617 502.089L352.617 502.089C359.673 500.2 365.691 495.591 369.353 489.271Z" fill="url(#paint6_linear_25_202)" stroke="#544E87"/>
<path d="M155.62 515.366L155.619 515.367C145.461 525.474 139.131 538.781 137.684 553.01C132.308 545.553 125.426 539.301 117.478 534.662L117.474 534.66L116.929 534.349L116.927 534.347C101.687 525.729 83.7145 523.306 66.736 527.58C56.5021 530.038 45.7713 529.433 35.8788 525.839C25.9853 522.245 17.3672 515.821 11.0968 507.367C4.82638 498.912 1.18062 488.801 0.613207 478.29C0.0457929 467.779 2.58177 457.334 7.90556 448.254C13.2293 439.173 21.1059 431.859 30.5549 427.221C40.0039 422.583 50.6082 420.826 61.0482 422.169C71.4882 423.512 81.3027 427.895 89.2706 434.773C97.2384 441.651 103.008 450.72 105.86 460.852L105.861 460.853C110.589 477.517 121.632 491.678 136.641 500.325C136.641 500.325 136.641 500.325 136.641 500.325L137.147 500.617L137.148 500.617C145.079 505.185 153.857 508.08 162.94 509.129C160.345 511.019 157.898 513.104 155.62 515.366ZM61.3401 448.747L61.2757 448.729H61.2091H61.1772C55.9232 447.337 50.3744 447.527 45.2276 449.278C40.06 451.036 35.5301 454.287 32.2112 458.621C28.8924 462.954 26.9339 468.175 26.5836 473.622C26.2334 479.069 27.5071 484.498 30.2436 489.221C32.9801 493.944 37.0563 497.748 41.9562 500.154C46.8562 502.559 52.3595 503.456 57.7697 502.732C63.1798 502.008 68.2535 499.695 72.3484 496.086C76.4433 492.476 79.3754 487.734 80.7735 482.457C82.6476 475.411 81.6554 467.909 78.0138 461.592C74.3721 455.275 68.3773 450.656 61.3401 448.747Z" fill="url(#paint7_linear_25_202)" stroke="#544E87"/>
<defs>
<linearGradient id="paint0_linear_25_202" x1="370.304" y1="354.535" x2="302.361" y2="394.7" gradientUnits="userSpaceOnUse">
<stop offset="0.145833" stop-color="#4E9CFB"/>
<stop offset="0.458333" stop-color="#DA7FDC"/>
<stop offset="0.723958" stop-color="#989AFA"/>
</linearGradient>
<linearGradient id="paint1_linear_25_202" x1="161.479" y1="49.2391" x2="70.789" y2="107.921" gradientUnits="userSpaceOnUse">
<stop offset="0.145833" stop-color="#4E9CFB"/>
<stop offset="0.458333" stop-color="#DA7FDC"/>
<stop offset="0.723958" stop-color="#989AFA"/>
</linearGradient>
<linearGradient id="paint2_linear_25_202" x1="263.578" y1="292.492" x2="68.8715" y2="442.103" gradientUnits="userSpaceOnUse">
<stop offset="0.145833" stop-color="#4E9CFB"/>
<stop offset="0.458333" stop-color="#DA7FDC"/>
<stop offset="0.723958" stop-color="#989AFA"/>
</linearGradient>
<linearGradient id="paint3_linear_25_202" x1="104.903" y1="41.8123" x2="-73.5756" y2="85.979" gradientUnits="userSpaceOnUse">
<stop offset="0.145833" stop-color="#4E9CFB"/>
<stop offset="0.458333" stop-color="#DA7FDC"/>
<stop offset="0.723958" stop-color="#989AFA"/>
</linearGradient>
<linearGradient id="paint4_linear_25_202" x1="391.275" y1="-29.3784" x2="129.46" y2="188.513" gradientUnits="userSpaceOnUse">
<stop offset="0.145833" stop-color="#4E9CFB"/>
<stop offset="0.458333" stop-color="#DA7FDC"/>
<stop offset="0.723958" stop-color="#989AFA"/>
</linearGradient>
<linearGradient id="paint5_linear_25_202" x1="391.014" y1="121.523" x2="109.007" y2="352.055" gradientUnits="userSpaceOnUse">
<stop offset="0.145833" stop-color="#4E9CFB"/>
<stop offset="0.458333" stop-color="#DA7FDC"/>
<stop offset="0.723958" stop-color="#989AFA"/>
</linearGradient>
<linearGradient id="paint6_linear_25_202" x1="391.234" y1="391.907" x2="129.435" y2="609.827" gradientUnits="userSpaceOnUse">
<stop offset="0.145833" stop-color="#4E9CFB"/>
<stop offset="0.458333" stop-color="#DA7FDC"/>
<stop offset="0.723958" stop-color="#989AFA"/>
</linearGradient>
<linearGradient id="paint7_linear_25_202" x1="158.83" y1="400.9" x2="-19.7593" y2="539.859" gradientUnits="userSpaceOnUse">
<stop offset="0.145833" stop-color="#4E9CFB"/>
<stop offset="0.458333" stop-color="#DA7FDC"/>
<stop offset="0.723958" stop-color="#989AFA"/>
</linearGradient>
</defs>
</svg>
