<svg width="84" height="23" viewBox="0 0 84 23" fill="none" xmlns="http://www.w3.org/2000/svg">
<rect x="0.0498047" width="83.95" height="23" fill="black"/>
<rect x="61" width="23" height="23" fill="#FFBA09"/>
<path d="M71.9017 4.6001C74.0571 4.6001 75.8179 5.25396 77.1849 6.56136C78.5517 7.86942 79.2356 9.51575 79.2356 11.5C79.2356 13.4714 78.5484 15.1146 77.1752 16.4287C75.8017 17.7431 74.0437 18.4001 71.9015 18.4001H66.5195V15.6311H69.5555V15.6597H71.9015C73.15 15.6597 74.1554 15.2752 74.9178 14.5065C75.6799 13.7375 76.0612 12.7356 76.0612 11.5C76.0612 10.2777 75.6769 9.27909 74.9081 8.50326C74.139 7.72792 73.1368 7.34017 71.9015 7.34017H69.5555V12.953H66.5195V4.6001H71.9017Z" fill="black"/>
<path d="M4.89177 10.3497L3.82227 3.70271H4.83427L5.52427 8.60171L6.40977 3.70271H7.35277L8.23827 8.57871L8.92827 3.70271H9.94027L8.83627 10.3497H7.80127L6.89277 5.65771L5.99577 10.3497H4.89177Z" fill="white"/>
<path d="M12.722 10.4417C12.2007 10.4417 11.7982 10.342 11.5145 10.1427C11.2308 9.93571 11.0315 9.63671 10.9165 9.24571C10.8092 8.84704 10.7555 8.36021 10.7555 7.78521V6.26721C10.7555 5.67687 10.813 5.18621 10.928 4.79521C11.043 4.40421 11.2423 4.10904 11.526 3.90971C11.8173 3.71037 12.216 3.61071 12.722 3.61071C13.2817 3.61071 13.6918 3.72571 13.9525 3.95571C14.2208 4.18571 14.3972 4.51921 14.4815 4.95621C14.5658 5.38554 14.608 5.90304 14.608 6.50871V7.04921H11.986V8.38321C11.986 8.65154 12.009 8.87004 12.055 9.03871C12.1087 9.20738 12.1892 9.33387 12.2965 9.41821C12.4115 9.49487 12.5572 9.53321 12.7335 9.53321C12.9175 9.53321 13.0555 9.49104 13.1475 9.40671C13.2472 9.31471 13.3123 9.18821 13.343 9.02721C13.3813 8.85854 13.4005 8.66304 13.4005 8.44071V8.03821H14.5965V8.29121C14.5965 8.95821 14.4547 9.48337 14.171 9.86671C13.8873 10.25 13.4043 10.4417 12.722 10.4417ZM11.986 6.38221H13.4005V5.78421C13.4005 5.50821 13.3852 5.27821 13.3545 5.09421C13.3238 4.90254 13.2587 4.76071 13.159 4.66871C13.067 4.56904 12.9175 4.51921 12.7105 4.51921C12.5112 4.51921 12.3578 4.56521 12.2505 4.65721C12.1508 4.74921 12.0818 4.90637 12.0435 5.12871C12.0052 5.34337 11.986 5.64237 11.986 6.02571V6.38221Z" fill="white"/>
<path d="M18.1028 10.4417C17.8652 10.4417 17.6505 10.3842 17.4588 10.2692C17.2748 10.1465 17.1138 10.0124 16.9758 9.86671V10.3497H15.7453V2.875H16.9758V4.23171C17.1215 4.06304 17.294 3.91737 17.4933 3.79471C17.7003 3.67204 17.9457 3.61071 18.2293 3.61071C18.5743 3.61071 18.8465 3.70271 19.0458 3.88671C19.2528 4.06304 19.4062 4.28921 19.5058 4.56521C19.6055 4.83354 19.6707 5.10954 19.7013 5.39321C19.732 5.66921 19.7473 5.90688 19.7473 6.10621V7.71621C19.7473 8.18387 19.7013 8.62854 19.6093 9.05021C19.5173 9.46421 19.3525 9.80154 19.1148 10.0622C18.8772 10.3152 18.5398 10.4417 18.1028 10.4417ZM17.8498 9.47571C18.0645 9.47571 18.2178 9.39904 18.3098 9.24571C18.4018 9.08471 18.4593 8.87004 18.4823 8.60171C18.5053 8.33338 18.5168 8.03821 18.5168 7.71621V6.10621C18.5168 5.83021 18.5015 5.57721 18.4708 5.34721C18.4402 5.10954 18.375 4.92171 18.2753 4.78371C18.1757 4.64571 18.0185 4.57671 17.8038 4.57671C17.6428 4.57671 17.4895 4.61121 17.3438 4.68021C17.2058 4.74921 17.0832 4.82587 16.9758 4.91021V9.17671C17.0832 9.26104 17.2097 9.33388 17.3553 9.39521C17.5087 9.44888 17.6735 9.47571 17.8498 9.47571Z" fill="white"/>
<path d="M22.4069 10.4417C21.8626 10.4417 21.4256 10.273 21.0959 9.93571C20.7662 9.59071 20.5784 9.13837 20.5324 8.57871L21.5559 8.26821C21.6172 8.68988 21.7207 9.00804 21.8664 9.22271C22.0121 9.42971 22.2267 9.53321 22.5104 9.53321C22.7327 9.53321 22.9014 9.47188 23.0164 9.34921C23.1314 9.21888 23.1889 9.04638 23.1889 8.83171C23.1889 8.64004 23.1467 8.46754 23.0624 8.31421C22.9781 8.16088 22.8401 8.00371 22.6484 7.84271L21.5099 6.86521C21.2799 6.66587 21.0844 6.44354 20.9234 6.19821C20.7701 5.95288 20.6934 5.63471 20.6934 5.24371C20.6934 4.89104 20.7624 4.59587 20.9004 4.35821C21.0461 4.11287 21.2454 3.92887 21.4984 3.80621C21.7591 3.67587 22.0619 3.61071 22.4069 3.61071C22.9359 3.61071 23.3384 3.78321 23.6144 4.12821C23.8981 4.46554 24.0591 4.87571 24.0974 5.35871L23.2694 5.66921C23.2387 5.43921 23.1927 5.23987 23.1314 5.07121C23.0701 4.89487 22.9857 4.76071 22.8784 4.66871C22.7711 4.56904 22.6292 4.51921 22.4529 4.51921C22.2536 4.51921 22.0926 4.58821 21.9699 4.72621C21.8549 4.85654 21.7974 5.01371 21.7974 5.19771C21.7974 5.31271 21.8204 5.42771 21.8664 5.54271C21.9201 5.65004 22.0082 5.75738 22.1309 5.86471L23.3039 6.94571C23.4649 7.09137 23.6144 7.24854 23.7524 7.41721C23.8981 7.58587 24.0169 7.77754 24.1089 7.99221C24.2009 8.20687 24.2469 8.45604 24.2469 8.73971C24.2469 9.11538 24.1702 9.42971 24.0169 9.68271C23.8636 9.93571 23.6489 10.1274 23.3729 10.2577C23.0969 10.3804 22.7749 10.4417 22.4069 10.4417Z" fill="white"/>
<path d="M25.2477 10.3497V5.175H26.4782V10.3497H25.2477ZM25.2477 4.6V3.45H26.4782V4.6H25.2477Z" fill="white"/>
<path d="M29.5661 10.4417C29.2211 10.4417 28.9413 10.3765 28.7266 10.2462C28.5196 10.1159 28.3663 9.93188 28.2666 9.69421C28.1746 9.45654 28.1286 9.17671 28.1286 8.85471V4.51921H27.4271V3.70271H28.1286V2.875H29.3591V3.70271H30.4286V4.51921H29.3591V8.77421C29.3591 9.03487 29.4013 9.22271 29.4856 9.33771C29.5699 9.44504 29.7309 9.49871 29.9686 9.49871C30.0299 9.49871 30.0989 9.49488 30.1756 9.48721C30.2599 9.47954 30.3404 9.47187 30.4171 9.46421V10.3727C30.2638 10.3957 30.1219 10.411 29.9916 10.4187C29.8613 10.434 29.7194 10.4417 29.5661 10.4417Z" fill="white"/>
<path d="M33.1727 10.4417C32.6514 10.4417 32.2489 10.342 31.9652 10.1427C31.6815 9.93571 31.4822 9.63671 31.3672 9.24571C31.2599 8.84704 31.2062 8.36021 31.2062 7.78521V6.26721C31.2062 5.67687 31.2637 5.18621 31.3787 4.79521C31.4937 4.40421 31.693 4.10904 31.9767 3.90971C32.268 3.71037 32.6667 3.61071 33.1727 3.61071C33.7324 3.61071 34.1425 3.72571 34.4032 3.95571C34.6715 4.18571 34.8479 4.51921 34.9322 4.95621C35.0165 5.38554 35.0587 5.90304 35.0587 6.50871V7.04921H32.4367V8.38321C32.4367 8.65154 32.4597 8.87004 32.5057 9.03871C32.5594 9.20738 32.6399 9.33387 32.7472 9.41821C32.8622 9.49487 33.0079 9.53321 33.1842 9.53321C33.3682 9.53321 33.5062 9.49104 33.5982 9.40671C33.6979 9.31471 33.763 9.18821 33.7937 9.02721C33.832 8.85854 33.8512 8.66304 33.8512 8.44071V8.03821H35.0472V8.29121C35.0472 8.95821 34.9054 9.48337 34.6217 9.86671C34.338 10.25 33.855 10.4417 33.1727 10.4417ZM32.4367 6.38221H33.8512V5.78421C33.8512 5.50821 33.8359 5.27821 33.8052 5.09421C33.7745 4.90254 33.7094 4.76071 33.6097 4.66871C33.5177 4.56904 33.3682 4.51921 33.1612 4.51921C32.9619 4.51921 32.8085 4.56521 32.7012 4.65721C32.6015 4.74921 32.5325 4.90637 32.4942 5.12871C32.4559 5.34337 32.4367 5.64237 32.4367 6.02571V6.38221Z" fill="white"/>
<path d="M5.66227 19.6075C5.1026 19.6075 4.68477 19.4043 4.40877 18.998C4.13277 18.584 3.99477 17.8863 3.99477 16.905V15.617C3.99477 15.111 4.03693 14.6433 4.12127 14.214C4.2056 13.777 4.36277 13.4282 4.59277 13.1675C4.83043 12.9068 5.17543 12.7765 5.62777 12.7765C5.8501 12.7765 6.05327 12.8263 6.23727 12.926C6.42127 13.0257 6.5861 13.1483 6.73177 13.294V12.0406H7.96227V19.5155H6.73177V19.09C6.5861 19.2433 6.4251 19.3698 6.24877 19.4695C6.0801 19.5615 5.8846 19.6075 5.66227 19.6075ZM5.97277 18.6415C6.08777 18.6415 6.21043 18.6223 6.34077 18.584C6.4711 18.538 6.60143 18.4728 6.73177 18.3885V14.03C6.62443 13.9533 6.5056 13.8882 6.37527 13.8345C6.24493 13.7732 6.1031 13.7425 5.94977 13.7425C5.6661 13.7425 5.47443 13.8805 5.37477 14.1565C5.2751 14.4248 5.22527 14.7507 5.22527 15.134V17.0085C5.22527 17.3152 5.2406 17.595 5.27127 17.848C5.3096 18.0933 5.38243 18.2888 5.48977 18.4345C5.5971 18.5725 5.7581 18.6415 5.97277 18.6415Z" fill="white"/>
<path d="M11.0487 19.6075C10.5273 19.6075 10.1248 19.5078 9.84117 19.3085C9.5575 19.1015 9.35817 18.8025 9.24317 18.4115C9.13583 18.0128 9.08217 17.526 9.08217 16.951V15.433C9.08217 14.8427 9.13967 14.352 9.25467 13.961C9.36967 13.57 9.569 13.2748 9.85267 13.0755C10.144 12.8762 10.5427 12.7765 11.0487 12.7765C11.6083 12.7765 12.0185 12.8915 12.2792 13.1215C12.5475 13.3515 12.7238 13.685 12.8082 14.122C12.8925 14.5513 12.9347 15.0688 12.9347 15.6745V16.215H10.3127V17.549C10.3127 17.8173 10.3357 18.0358 10.3817 18.2045C10.4353 18.3732 10.5158 18.4997 10.6232 18.584C10.7382 18.6607 10.8838 18.699 11.0602 18.699C11.2442 18.699 11.3822 18.6568 11.4742 18.5725C11.5738 18.4805 11.639 18.354 11.6697 18.193C11.708 18.0243 11.7272 17.8288 11.7272 17.6065V17.204H12.9232V17.457C12.9232 18.124 12.7813 18.6492 12.4977 19.0325C12.214 19.4158 11.731 19.6075 11.0487 19.6075ZM10.3127 15.548H11.7272V14.95C11.7272 14.674 11.7118 14.444 11.6812 14.26C11.6505 14.0683 11.5853 13.9265 11.4857 13.8345C11.3937 13.7348 11.2442 13.685 11.0372 13.685C10.8378 13.685 10.6845 13.731 10.5772 13.823C10.4775 13.915 10.4085 14.0722 10.3702 14.2945C10.3318 14.5092 10.3127 14.8082 10.3127 15.1915V15.548Z" fill="white"/>
<path d="M14.9115 19.5155L13.6005 12.8685H14.8425L15.659 18.216L16.487 12.8685H17.683L16.418 19.5155H14.9115Z" fill="white"/>
<path d="M20.3138 19.6075C19.7925 19.6075 19.39 19.5078 19.1063 19.3085C18.8226 19.1015 18.6233 18.8025 18.5083 18.4115C18.401 18.0128 18.3473 17.526 18.3473 16.951V15.433C18.3473 14.8427 18.4048 14.352 18.5198 13.961C18.6348 13.57 18.8341 13.2748 19.1178 13.0755C19.4091 12.8762 19.8078 12.7765 20.3138 12.7765C20.8735 12.7765 21.2836 12.8915 21.5443 13.1215C21.8126 13.3515 21.989 13.685 22.0733 14.122C22.1576 14.5513 22.1998 15.0688 22.1998 15.6745V16.215H19.5778V17.549C19.5778 17.8173 19.6008 18.0358 19.6468 18.2045C19.7005 18.3732 19.781 18.4997 19.8883 18.584C20.0033 18.6607 20.149 18.699 20.3253 18.699C20.5093 18.699 20.6473 18.6568 20.7393 18.5725C20.839 18.4805 20.9041 18.354 20.9348 18.193C20.9731 18.0243 20.9923 17.8288 20.9923 17.6065V17.204H22.1883V17.457C22.1883 18.124 22.0465 18.6492 21.7628 19.0325C21.4791 19.4158 20.9961 19.6075 20.3138 19.6075ZM19.5778 15.548H20.9923V14.95C20.9923 14.674 20.977 14.444 20.9463 14.26C20.9156 14.0683 20.8505 13.9265 20.7508 13.8345C20.6588 13.7348 20.5093 13.685 20.3023 13.685C20.103 13.685 19.9496 13.731 19.8423 13.823C19.7426 13.915 19.6736 14.0722 19.6353 14.2945C19.597 14.5092 19.5778 14.8082 19.5778 15.1915V15.548Z" fill="white"/>
<path d="M23.4291 19.5155V12.0406H24.6596V19.5155H23.4291Z" fill="white"/>
<path d="M27.7706 19.6075C27.2799 19.6075 26.8927 19.5078 26.6091 19.3085C26.3254 19.1092 26.1222 18.8255 25.9996 18.4575C25.8846 18.0895 25.8271 17.6563 25.8271 17.158V15.226C25.8271 14.7277 25.8846 14.2945 25.9996 13.9265C26.1222 13.5585 26.3254 13.2748 26.6091 13.0755C26.8927 12.8762 27.2799 12.7765 27.7706 12.7765C28.2612 12.7765 28.6446 12.8762 28.9206 13.0755C29.2042 13.2748 29.4036 13.5585 29.5186 13.9265C29.6412 14.2945 29.7026 14.7277 29.7026 15.226V17.158C29.7026 17.6563 29.6412 18.0895 29.5186 18.4575C29.4036 18.8255 29.2042 19.1092 28.9206 19.3085C28.6446 19.5078 28.2612 19.6075 27.7706 19.6075ZM27.7706 18.699C28.0082 18.699 28.1731 18.63 28.2651 18.492C28.3647 18.354 28.4222 18.1738 28.4376 17.9515C28.4606 17.7215 28.4721 17.4838 28.4721 17.2385V15.157C28.4721 14.904 28.4606 14.6663 28.4376 14.444C28.4222 14.2217 28.3647 14.0415 28.2651 13.9035C28.1731 13.7578 28.0082 13.685 27.7706 13.685C27.5329 13.685 27.3642 13.7578 27.2646 13.9035C27.1649 14.0415 27.1036 14.2217 27.0806 14.444C27.0652 14.6663 27.0576 14.904 27.0576 15.157V17.2385C27.0576 17.4838 27.0652 17.7215 27.0806 17.9515C27.1036 18.1738 27.1649 18.354 27.2646 18.492C27.3642 18.63 27.5329 18.699 27.7706 18.699Z" fill="white"/>
<path d="M30.8273 21.7005V12.8685H32.0578V13.3975C32.2035 13.2288 32.3798 13.0832 32.5868 12.9605C32.7938 12.8378 33.0392 12.7765 33.3228 12.7765C33.6678 12.7765 33.94 12.8685 34.1393 13.0525C34.3463 13.2288 34.4997 13.455 34.5993 13.731C34.699 13.9993 34.7642 14.2753 34.7948 14.559C34.8255 14.835 34.8408 15.0727 34.8408 15.272V16.882C34.8408 17.3497 34.7948 17.7943 34.7028 18.216C34.6108 18.63 34.4422 18.9673 34.1968 19.228C33.9592 19.481 33.6218 19.6075 33.1848 19.6075C32.9472 19.6075 32.7363 19.55 32.5523 19.435C32.3683 19.3123 32.2035 19.1743 32.0578 19.021V21.7005H30.8273ZM32.9433 18.6415C33.158 18.6415 33.3113 18.5648 33.4033 18.4115C33.4953 18.2505 33.5528 18.0358 33.5758 17.7675C33.5988 17.4992 33.6103 17.204 33.6103 16.882V15.272C33.6103 14.996 33.595 14.743 33.5643 14.513C33.5337 14.2753 33.4685 14.0875 33.3688 13.9495C33.2692 13.8115 33.112 13.7425 32.8973 13.7425C32.7363 13.7425 32.583 13.777 32.4373 13.846C32.2917 13.915 32.1652 13.9955 32.0578 14.0875V18.3425C32.1728 18.4268 32.3032 18.4997 32.4488 18.561C32.5945 18.6147 32.7593 18.6415 32.9433 18.6415Z" fill="white"/>
<path d="M35.9596 19.5155V12.8685H37.0981V13.501C37.3205 13.248 37.5658 13.0602 37.8341 12.9375C38.1025 12.8148 38.3785 12.7535 38.6621 12.7535C38.9075 12.7535 39.126 12.8148 39.3176 12.9375C39.517 13.0602 39.6588 13.2787 39.7431 13.593C39.9808 13.3017 40.2376 13.0908 40.5136 12.9605C40.7973 12.8225 41.0925 12.7535 41.3991 12.7535C41.6138 12.7535 41.8093 12.8072 41.9856 12.9145C42.162 13.0142 42.3038 13.179 42.4111 13.409C42.5185 13.6313 42.5721 13.9265 42.5721 14.2945V19.5155H41.4451V14.375C41.4451 14.053 41.3915 13.8383 41.2841 13.731C41.1845 13.616 41.0465 13.5585 40.8701 13.5585C40.7015 13.5585 40.5251 13.6083 40.3411 13.708C40.1571 13.8 39.9885 13.9303 39.8351 14.099C39.8351 14.1297 39.8351 14.1603 39.8351 14.191C39.8351 14.2217 39.8351 14.2562 39.8351 14.2945V19.5155H38.7081V14.375C38.7081 14.053 38.6545 13.8383 38.5471 13.731C38.4475 13.616 38.3095 13.5585 38.1331 13.5585C37.9645 13.5585 37.7881 13.6083 37.6041 13.708C37.4278 13.8 37.2591 13.9303 37.0981 14.099V19.5155H35.9596Z" fill="white"/>
<path d="M45.6161 19.6075C45.0947 19.6075 44.6922 19.5078 44.4086 19.3085C44.1249 19.1015 43.9256 18.8025 43.8106 18.4115C43.7032 18.0128 43.6496 17.526 43.6496 16.951V15.433C43.6496 14.8427 43.7071 14.352 43.8221 13.961C43.9371 13.57 44.1364 13.2748 44.42 13.0755C44.7114 12.8762 45.1101 12.7765 45.6161 12.7765C46.1757 12.7765 46.5859 12.8915 46.8465 13.1215C47.1149 13.3515 47.2912 13.685 47.3756 14.122C47.4599 14.5513 47.502 15.0688 47.502 15.6745V16.215H44.8801V17.549C44.8801 17.8173 44.9031 18.0358 44.9491 18.2045C45.0027 18.3732 45.0832 18.4997 45.1906 18.584C45.3056 18.6607 45.4512 18.699 45.6276 18.699C45.8116 18.699 45.9495 18.6568 46.0415 18.5725C46.1412 18.4805 46.2064 18.354 46.2371 18.193C46.2754 18.0243 46.2946 17.8288 46.2946 17.6065V17.204H47.4906V17.457C47.4906 18.124 47.3487 18.6492 47.0651 19.0325C46.7814 19.4158 46.2984 19.6075 45.6161 19.6075ZM44.8801 15.548H46.2946V14.95C46.2946 14.674 46.2792 14.444 46.2486 14.26C46.2179 14.0683 46.1527 13.9265 46.0531 13.8345C45.9611 13.7348 45.8116 13.685 45.6046 13.685C45.4052 13.685 45.2519 13.731 45.1446 13.823C45.0449 13.915 44.9759 14.0722 44.9375 14.2945C44.8992 14.5092 44.8801 14.8082 44.8801 15.1915V15.548Z" fill="white"/>
<path d="M48.6164 19.5155V12.8685H49.8469V13.524C50.0692 13.317 50.3145 13.1407 50.5829 12.995C50.8512 12.8493 51.1464 12.7765 51.4684 12.7765C51.7367 12.7765 51.9399 12.8455 52.0779 12.9835C52.2235 13.1215 52.3232 13.294 52.3769 13.501C52.4382 13.708 52.4689 13.9188 52.4689 14.1335V19.5155H51.2384V14.49C51.2384 14.2523 51.2039 14.0683 51.1349 13.938C51.0659 13.8077 50.9241 13.7425 50.7094 13.7425C50.5714 13.7425 50.4257 13.7847 50.2724 13.869C50.1267 13.9457 49.9849 14.0415 49.8469 14.1565V19.5155H48.6164Z" fill="white"/>
<path d="M55.4411 19.6075C55.0961 19.6075 54.8163 19.5423 54.6016 19.412C54.3946 19.2817 54.2413 19.0977 54.1416 18.86C54.0496 18.6223 54.0036 18.3425 54.0036 18.0205V13.685H53.3021V12.8685H54.0036V10.925H55.2341V12.8685H56.3036V13.685H55.2341V17.94C55.2341 18.2007 55.2763 18.3885 55.3606 18.5035C55.4449 18.6108 55.6059 18.6645 55.8436 18.6645C55.9049 18.6645 55.9739 18.6607 56.0506 18.653C56.1349 18.6453 56.2154 18.6377 56.2921 18.63V19.5385C56.1388 19.5615 55.9969 19.5768 55.8666 19.5845C55.7363 19.5998 55.5944 19.6075 55.4411 19.6075Z" fill="white"/>
</svg>
