<svg width="53" height="58" viewBox="0 0 53 58" fill="none" xmlns="http://www.w3.org/2000/svg">
<path d="M14.4738 51.3237C15.043 50.9658 15.4339 50.6928 15.8453 50.4672C16.2191 50.2636 16.4214 50.0567 16.2105 49.597C16.0271 49.1967 15.8676 48.9507 15.331 49.0237C14.2012 49.1763 13.0577 49.2137 11.9279 49.3629C11.0107 49.4834 10.7278 48.9287 10.3644 48.2604C10.0009 47.5921 10.4467 47.3156 10.9439 46.9391C10.2581 46.5303 9.65634 46.1842 9.06658 45.8077C6.51918 44.2118 4.43596 41.9868 3.02218 39.3519C1.6084 36.717 0.912844 33.7632 1.00403 30.7814C1.09522 27.7996 1.97002 24.8928 3.54222 22.3473C5.11443 19.8018 7.3298 17.7055 9.97007 16.2649C11.8782 15.1714 13.9842 14.458 16.1693 14.165C17.0523 14.0547 17.3403 13.6341 17.4843 12.8199C18.2043 8.7592 18.9861 4.70866 19.7319 0.653039C19.8193 0.16962 20.0507 0 20.5445 0C24.515 0.0158312 28.485 0.0192236 32.4544 0.0101772C33.0236 0.0101772 33.1813 0.274785 33.2688 0.754811C33.9957 4.72902 34.7397 8.69983 35.4718 12.6723C35.7118 13.975 35.7101 13.936 37.073 14.1989C44.2924 15.6102 49.2007 19.7082 51.3128 26.7169C53.5004 33.975 50.3905 41.7538 43.7798 45.8348C42.254 46.7762 40.4607 47.2936 38.7892 48.0009C38.5471 48.0783 38.3296 48.2169 38.1583 48.4029C38.556 48.6047 38.9434 48.832 39.3583 48.9999C39.8281 49.1899 39.9069 49.463 39.7612 49.9312C39.1783 51.8207 39.1457 51.8275 37.4125 50.7793C36.977 50.518 36.6084 50.0007 35.9004 50.4264C34.6009 51.2118 34.5529 51.244 35.4204 52.5348C35.6552 52.8842 35.8867 53.2371 36.1678 53.6594C35.1169 54.1089 34.8117 54.957 34.774 55.9391C34.7432 56.7686 34.2597 57.1536 33.4591 57.1909C33.2602 57.1994 33.0596 57.2113 32.859 57.2113C31.3538 57.2113 31.2046 57.0908 30.8292 55.6423C30.68 55.069 30.5292 54.4922 30.3372 53.9325C30.1907 53.502 29.9534 53.1073 29.641 52.7745C29.3286 52.4417 28.9482 52.1784 28.525 52.0022C27.5993 51.5883 27.3061 51.6884 26.7935 52.5416C25.7648 54.2378 25.7648 54.2378 24.1653 53.025C23.2584 52.3381 22.3806 51.6104 21.4377 50.976C21.1874 50.8064 20.6508 50.7708 20.4091 50.9251C19.4976 51.4977 18.6347 52.1427 17.8289 52.8537C17.2648 53.3626 16.8002 53.3982 16.2619 52.9385C15.7236 52.4789 15.1716 51.9564 14.4738 51.3237ZM28.5027 31.0168C28.5027 28.4725 28.5027 25.9282 28.5027 23.3839C28.5027 21.4672 28.8868 21.0923 30.7966 21.0855C31.9967 21.0855 33.1968 21.1211 34.3969 21.0278C35.0171 20.9801 35.5963 20.7029 36.0192 20.2515C36.4421 19.8001 36.6776 19.2076 36.6787 18.5921C36.6959 17.2674 35.777 16.1716 34.4243 16.0478C33.8122 15.9918 33.6134 15.7662 33.5105 15.1997C32.8248 11.39 32.0893 7.58542 31.3847 3.77914C31.1309 2.37469 31.1464 2.37469 29.6617 2.37469H23.2344C21.796 2.37469 21.8149 2.37469 21.5594 3.76727C20.8634 7.57694 20.1485 11.3832 19.4421 15.1912C19.3633 15.6119 19.3153 15.9732 18.7135 16.0495C17.0557 16.2598 16.1933 17.2707 16.2894 18.7634C16.3785 20.1356 17.4517 21.0584 19.0478 21.0906C20.2479 21.1143 21.448 21.0906 22.6481 21.1025C23.8824 21.1177 24.479 21.7097 24.4825 22.9378C24.4825 24.8307 24.4653 26.7254 24.4636 28.6184C24.4636 31.9243 24.4533 35.2335 24.4825 38.5378C24.4825 38.8872 24.6231 39.3859 24.8751 39.5555C25.4437 39.9252 26.064 40.2104 26.7163 40.4019C27.7861 40.7411 28.4942 40.178 28.4976 39.0738C28.5056 36.3881 28.5073 33.7024 28.5027 31.0168ZM20.1279 40.3697C20.485 40.3659 20.8413 40.337 21.1943 40.2831C21.7926 40.1407 21.9709 39.8523 21.6229 39.2451C18.8798 34.4838 18.801 29.5343 20.6148 24.4627C20.7159 24.1828 20.8205 23.9029 20.9577 23.5162C19.2227 23.5162 17.5426 23.1973 16.0408 23.5755C11.5062 24.7171 8.5917 28.6642 8.57798 33.2626C8.56598 37.7931 11.5387 41.708 15.9876 43.0598C16.6322 43.2566 17.0163 43.1345 17.2631 42.5018C17.4569 41.9929 17.7877 41.9047 18.2626 42.2185C18.7375 42.5323 19.2587 42.8071 19.905 43.1837L20.1279 40.3697ZM37.5925 42.8614C41.1413 41.367 43.3186 39.0195 44.0849 35.5965C44.9901 31.5613 43.7986 28.1197 40.5978 25.4057C38.0982 23.2872 35.2078 22.9853 32.0413 23.5823C32.127 23.852 32.2127 24.0573 32.259 24.2693C32.6447 25.7687 33.1899 27.2512 33.3751 28.7744C33.838 32.601 33.2928 36.2614 31.1464 39.5979C30.8532 40.0542 30.9063 40.7292 30.8035 41.2941L31.0743 41.4281C31.995 40.8887 32.9482 40.3985 33.8174 39.798C34.7586 39.1535 35.6844 39.1501 36.7319 39.491C37.3319 39.6878 37.6542 39.9456 37.6114 40.6088C37.5685 41.272 37.5925 41.9505 37.5925 42.8648V42.8614ZM36.4679 45.655L36.605 45.9943C40.519 45.4854 43.7678 43.684 46.2056 40.602C49.9773 35.8289 50.7437 30.5418 48.1704 25.0122C46.0891 20.5597 42.4477 17.8695 37.4451 16.6228C37.5599 17.091 37.6936 17.3556 37.6748 17.61C37.6114 18.492 37.6576 19.43 37.3525 20.2323C37.0816 20.9464 37.0593 21.1381 37.8445 21.3722C40.4467 22.1533 42.7226 23.7487 44.3301 25.9188C45.9376 28.0889 46.7901 30.7164 46.7594 33.4067C46.6634 39.089 42.9466 43.8655 37.4828 45.3361C37.1365 45.4209 36.8039 45.5465 36.4679 45.6584V45.655ZM15.4253 16.6771C14.8853 16.8043 14.4395 16.8772 14.0161 17.0163C5.95837 19.6488 1.59694 27.6329 4.05539 35.6237C5.62921 40.7411 9.21574 44.0402 14.3864 45.6313C14.6744 45.7195 15.0138 45.6432 15.3293 45.6432L15.3704 45.4074C9.57233 43.2532 6.12639 39.2773 6.25325 33.0471C6.38012 26.7814 10.0146 22.9395 15.8916 21.0414C14.8081 18.2834 15.0961 18.9585 15.4253 16.6771ZM29.2605 37.8084C31.9041 34.6314 31.5835 26.3454 29.2605 24.12V37.8084ZM23.687 24.1014C21.1771 26.7186 21.2131 35.2539 23.687 37.6863V24.1014Z" fill="url(#paint0_linear_46_137)"/>
<defs>
<linearGradient id="paint0_linear_46_137" x1="50.3067" y1="-8.73339" x2="-17.3291" y2="29.309" gradientUnits="userSpaceOnUse">
<stop offset="0.145833" stop-color="#4E9CFB"/>
<stop offset="0.458333" stop-color="#DA7FDC"/>
<stop offset="0.723958" stop-color="#989AFA"/>
</linearGradient>
</defs>
</svg>
