<svg width="60" height="60" viewBox="0 0 60 60" fill="none" xmlns="http://www.w3.org/2000/svg">
<path d="M50.7473 22.3327L47.0622 18.2672L48.2153 12.9059C48.3223 12.4304 48.037 11.9549 47.5734 11.8004L42.3548 10.1124L40.6786 4.8938C40.5241 4.43019 40.0486 4.15678 39.5731 4.25188L34.2118 5.40497L30.1463 1.71985C29.7897 1.387 29.231 1.387 28.8744 1.71985L24.8089 5.40497L19.4476 4.25188C18.9721 4.14489 18.4966 4.43019 18.3421 4.8938L16.6541 10.1124L11.4236 11.8004C10.96 11.9549 10.6866 12.4304 10.7817 12.9059L11.9347 18.2672L8.24964 22.3327C7.91679 22.6893 7.91679 23.248 8.24964 23.6047L11.9347 27.6702L10.7817 33.0314C10.6747 33.5069 10.96 33.9824 11.4236 34.137L16.6422 35.825L16.8561 36.5026L10.6509 53.7037C10.5083 54.0841 10.6271 54.5121 10.9481 54.7617C11.2572 55.0113 11.697 55.047 12.0417 54.833L18.3777 50.9577L20.7671 57.9832C20.8979 58.3636 21.2545 58.6251 21.6587 58.6251H21.6706C22.0747 58.6251 22.4314 58.3755 22.5621 57.9951L27.8758 43.3022L28.8744 44.2056C29.0527 44.3721 29.2786 44.4553 29.5163 44.4553C29.754 44.4553 29.968 44.3721 30.1582 44.2056L31.1568 43.3022L36.4705 57.9951C36.6012 58.3755 36.9697 58.6251 37.362 58.6251H37.3739C37.7781 58.6251 38.1347 58.3636 38.2655 57.9832L40.6549 50.9577L46.9909 54.833C47.3356 55.047 47.7754 55.0113 48.0845 54.7617C48.3936 54.5121 48.5125 54.0841 48.3817 53.7037L42.1646 36.5144L42.3785 35.8369L47.5971 34.1488C48.0607 33.9943 48.3342 33.5188 48.2391 33.0433L47.086 27.6821L50.7711 23.6165C51.0802 23.248 51.0802 22.7012 50.7473 22.3327ZM21.6825 54.8093L19.7805 49.2221C19.6854 48.9487 19.4714 48.7348 19.198 48.6278C18.9246 48.5208 18.6274 48.5564 18.3777 48.711L13.3375 51.7898L17.7953 39.4625L18.3064 41.0436C18.461 41.5072 18.9365 41.7806 19.412 41.6855L24.7732 40.5324L26.3186 41.9351L21.6825 54.8093ZM45.6476 51.8017L40.6073 48.7229C40.3577 48.5683 40.0605 48.5446 39.7871 48.6397C39.5137 48.7348 39.2997 48.9487 39.2046 49.234L37.3026 54.8211L32.6427 41.947L34.1881 40.5443L39.5493 41.6974C40.0248 41.8044 40.5003 41.5191 40.6549 41.0555L41.166 39.4744L45.6476 51.8017ZM45.3385 26.7667C45.1364 26.9926 45.0532 27.3017 45.1127 27.5988L46.1825 32.6035L41.3206 34.1726C41.0353 34.2677 40.7975 34.4936 40.7024 34.7908L40.2388 36.2173L39.1333 39.6527L34.1286 38.5829C33.8314 38.5234 33.5224 38.6066 33.2965 38.8087L29.5044 42.2323L25.7123 38.7968C25.534 38.6423 25.3081 38.5472 25.0704 38.5472C24.9991 38.5472 24.9396 38.5591 24.8683 38.571L19.8637 39.6409L18.7581 36.2054L18.2945 34.7789C18.1994 34.4936 17.9736 34.2558 17.6764 34.1607L12.8263 32.6035L13.8962 27.5988C13.9556 27.3017 13.8724 26.9926 13.6703 26.7667L10.2467 22.9746L13.6822 19.1825C13.8843 18.9567 13.9675 18.6476 13.9081 18.3504L12.8382 13.3458L17.7002 11.7766C17.9855 11.6815 18.2232 11.4557 18.3183 11.1585L19.8756 6.29653L24.8802 7.3664C25.1774 7.42583 25.4864 7.34262 25.7123 7.14053L29.5044 3.71695L33.2965 7.15242C33.5224 7.35451 33.8314 7.43772 34.1286 7.37828L39.1333 6.30841L40.7024 11.1704C40.7975 11.4557 41.0234 11.6934 41.3206 11.7885L46.1825 13.3577L45.1127 18.3623C45.0532 18.6595 45.1364 18.9685 45.3385 19.1944L48.7621 22.9746L45.3385 26.7667Z" fill="url(#paint0_linear_112_8)"/>
<path d="M29.5042 9.18518C21.6347 9.18518 15.2393 15.5806 15.2393 23.4501C15.2393 31.3196 21.6347 37.7151 29.5042 37.7151C37.3737 37.7151 43.7692 31.3196 43.7692 23.4501C43.7692 15.5806 37.3737 9.18518 29.5042 9.18518ZM29.5042 35.8131C22.6927 35.8131 17.1413 30.2617 17.1413 23.4501C17.1413 16.6386 22.6927 11.0872 29.5042 11.0872C36.3157 11.0872 41.8672 16.6386 41.8672 23.4501C41.8672 30.2617 36.3157 35.8131 29.5042 35.8131Z" fill="url(#paint1_linear_112_8)"/>
<path d="M34.8179 16.389L26.6512 24.4725L24.1905 22.0355C23.4535 21.3104 22.2529 21.3104 21.504 22.0355L19.9943 23.5215C19.6376 23.8781 19.4355 24.3536 19.4355 24.8648C19.4355 25.3759 19.6376 25.8514 19.9943 26.208L25.308 31.4623C25.6765 31.8308 26.1639 32.0091 26.6512 32.0091C27.1386 32.0091 27.626 31.8308 27.9945 31.4623L39.0142 20.5734C39.3708 20.2168 39.5729 19.7413 39.5729 19.2301C39.5729 18.7189 39.3708 18.2434 39.0142 17.8868L37.5045 16.4009C36.7675 15.6639 35.5549 15.6639 34.8179 16.389ZM28.8385 27.9555L26.6512 30.1071L21.3494 24.8648L22.8591 23.3907L25.9855 26.4815C26.354 26.85 26.9484 26.85 27.3169 26.4815L36.1612 17.7442L35.4955 17.0666L37.6709 19.2182L28.8385 27.9555Z" fill="url(#paint2_linear_112_8)"/>
<defs>
<linearGradient id="paint0_linear_112_8" x1="49.5667" y1="-7.25458" x2="-11.6874" y2="21.8163" gradientUnits="userSpaceOnUse">
<stop offset="0.145833" stop-color="#4E9CFB"/>
<stop offset="0.458333" stop-color="#DA7FDC"/>
<stop offset="0.723958" stop-color="#989AFA"/>
</linearGradient>
<linearGradient id="paint1_linear_112_8" x1="42.8182" y1="4.83004" x2="7.1977" y2="27.3003" gradientUnits="userSpaceOnUse">
<stop offset="0.145833" stop-color="#4E9CFB"/>
<stop offset="0.458333" stop-color="#DA7FDC"/>
<stop offset="0.723958" stop-color="#989AFA"/>
</linearGradient>
<linearGradient id="paint2_linear_112_8" x1="38.9017" y1="13.3794" x2="17.1756" y2="30.4553" gradientUnits="userSpaceOnUse">
<stop offset="0.145833" stop-color="#4E9CFB"/>
<stop offset="0.458333" stop-color="#DA7FDC"/>
<stop offset="0.723958" stop-color="#989AFA"/>
</linearGradient>
</defs>
</svg>
