<svg width="60" height="40" viewBox="0 0 60 40" fill="none" xmlns="http://www.w3.org/2000/svg">
<path d="M59.9172 23.3069L54.0517 9.04138C53.9741 8.85246 53.8423 8.69074 53.673 8.57661C53.5036 8.46247 53.3042 8.40102 53.1 8.4H42.2276C41.9532 8.4 41.6901 8.50899 41.4961 8.70299C41.3021 8.897 41.1931 9.16012 41.1931 9.43448V28.2828H38.7207V1.03448C38.7207 0.760121 38.6117 0.496995 38.4177 0.302992C38.2237 0.108989 37.9606 0 37.6862 0H10.3448C10.0705 0 9.80734 0.108989 9.61334 0.302992C9.41933 0.496995 9.31034 0.760121 9.31034 1.03448V6.92069H4.25172C3.97736 6.92069 3.71424 7.02968 3.52023 7.22368C3.32623 7.41769 3.21724 7.68081 3.21724 7.95517C3.21724 8.22953 3.32623 8.49266 3.52023 8.68666C3.71424 8.88066 3.97736 8.98966 4.25172 8.98966H9.31034V11.8241H1.03448C0.760121 11.8241 0.496996 11.9331 0.302993 12.1271C0.10899 12.3211 0 12.5843 0 12.8586C0 13.133 0.10899 13.3961 0.302993 13.5901C0.496996 13.7841 0.760121 13.8931 1.03448 13.8931H9.31034V16.7172H6.68276C6.4084 16.7172 6.14527 16.8262 5.95127 17.0202C5.75727 17.2142 5.64828 17.4774 5.64828 17.7517C5.64828 18.0261 5.75727 18.2892 5.95127 18.4832C6.14527 18.6772 6.4084 18.7862 6.68276 18.7862H9.31034V21.6207H1.03448C0.760121 21.6207 0.496996 21.7297 0.302993 21.9237C0.10899 22.1177 0 22.3808 0 22.6552C0 22.9295 0.10899 23.1927 0.302993 23.3867C0.496996 23.5807 0.760121 23.6897 1.03448 23.6897H9.31034V33.8276C9.31034 34.1019 9.41933 34.3651 9.61334 34.5591C9.80734 34.7531 10.0705 34.8621 10.3448 34.8621H17.3483C17.5866 36.156 18.2708 37.3255 19.2819 38.1674C20.293 39.0092 21.5671 39.4702 22.8828 39.4702C24.1985 39.4702 25.4726 39.0092 26.4836 38.1674C27.4947 37.3255 28.1789 36.156 28.4172 34.8621H45.1552C45.3935 36.156 46.0777 37.3255 47.0888 38.1674C48.0999 39.0092 49.374 39.4702 50.6897 39.4702C52.0053 39.4702 53.2794 39.0092 54.2905 38.1674C55.3016 37.3255 55.9858 36.156 56.2241 34.8621H58.9655C59.2399 34.8621 59.503 34.7531 59.697 34.5591C59.891 34.3651 60 34.1019 60 33.8276V23.7C59.9984 23.5648 59.9702 23.4313 59.9172 23.3069ZM57.4241 22.6655H50.1828V10.469H52.4586L57.4241 22.6655ZM41.1931 32.7931H28.4172C28.2468 31.9031 27.8675 31.0664 27.3103 30.3517H41.1931V32.7931ZM24.0103 21.6207H11.3793V18.7862H26.2862C26.5606 18.7862 26.8237 18.6772 27.0177 18.4832C27.2117 18.2892 27.3207 18.0261 27.3207 17.7517C27.3207 17.4774 27.2117 17.2142 27.0177 17.0202C26.8237 16.8262 26.5606 16.7172 26.2862 16.7172H11.3793V13.8931H15.331C15.6054 13.8931 15.8685 13.7841 16.0625 13.5901C16.2565 13.3961 16.3655 13.133 16.3655 12.8586C16.3655 12.5843 16.2565 12.3211 16.0625 12.1271C15.8685 11.9331 15.6054 11.8241 15.331 11.8241H11.3793V8.98966H24.0103C24.2847 8.98966 24.5478 8.88066 24.7418 8.68666C24.9358 8.49266 25.0448 8.22953 25.0448 7.95517C25.0448 7.68081 24.9358 7.41769 24.7418 7.22368C24.5478 7.02968 24.2847 6.92069 24.0103 6.92069H11.3793V2.06897H36.6517V28.2828H11.3793V23.6897H24.0103C24.2847 23.6897 24.5478 23.5807 24.7418 23.3867C24.9358 23.1927 25.0448 22.9295 25.0448 22.6552C25.0448 22.3808 24.9358 22.1177 24.7418 21.9237C24.5478 21.7297 24.2847 21.6207 24.0103 21.6207ZM11.3793 30.3517H18.4552C17.8939 31.0638 17.514 31.9017 17.3483 32.7931H11.3793V30.3517ZM22.8828 37.3862C22.0024 37.3947 21.1502 37.0765 20.4907 36.4933C19.8313 35.91 19.4115 35.1029 19.3124 34.2282C19.2134 33.3534 19.4421 32.4729 19.9544 31.7569C20.4667 31.041 21.2263 30.5403 22.0862 30.3517H23.6793C24.5393 30.5403 25.2988 31.041 25.8111 31.7569C26.3234 32.4729 26.5521 33.3534 26.4531 34.2282C26.354 35.1029 25.9342 35.91 25.2748 36.4933C24.6153 37.0765 23.7631 37.3947 22.8828 37.3862ZM50.6897 37.3862C49.9838 37.3862 49.2938 37.1769 48.7068 36.7847C48.1199 36.3926 47.6625 35.8352 47.3924 35.183C47.1222 34.5309 47.0516 33.8133 47.1893 33.121C47.327 32.4287 47.6669 31.7927 48.166 31.2936C48.6651 30.7945 49.3011 30.4546 49.9934 30.3169C50.6857 30.1791 51.4033 30.2498 52.0554 30.5199C52.7076 30.7901 53.265 31.2475 53.6571 31.8344C54.0493 32.4213 54.2586 33.1114 54.2586 33.8172C54.2559 34.7629 53.879 35.6691 53.2103 36.3379C52.5416 37.0066 51.6354 37.3835 50.6897 37.3862ZM56.2241 32.7931C55.9858 31.4992 55.3016 30.3297 54.2905 29.4878C53.2794 28.6459 52.0053 28.1849 50.6897 28.1849C49.374 28.1849 48.0999 28.6459 47.0888 29.4878C46.0777 30.3297 45.3935 31.4992 45.1552 32.7931H43.2621V10.469H48.0621V23.7C48.0621 23.9744 48.1711 24.2375 48.3651 24.4315C48.5591 24.6255 48.8222 24.7345 49.0965 24.7345H57.931V32.7931H56.2241Z" fill="url(#paint0_linear_25_111)"/>
<defs>
<linearGradient id="paint0_linear_25_111" x1="58" y1="-6.0252" x2="3.44468" y2="46.2899" gradientUnits="userSpaceOnUse">
<stop offset="0.145833" stop-color="#4E9CFB"/>
<stop offset="0.458333" stop-color="#DA7FDC"/>
<stop offset="0.723958" stop-color="#989AFA"/>
</linearGradient>
</defs>
</svg>
