<svg width="60" height="43" viewBox="0 0 60 43" fill="none" xmlns="http://www.w3.org/2000/svg">
<path d="M59.0323 32.9032C59.2889 32.9032 59.5351 32.8013 59.7166 32.6198C59.898 32.4384 60 32.1922 60 31.9355V28.0645C60 27.8078 59.898 27.5617 59.7166 27.3802C59.5351 27.1987 59.2889 27.0968 59.0323 27.0968H56.129V10.6452C56.129 10.3885 56.0271 10.1423 55.8456 9.96085C55.6642 9.7794 55.418 9.67742 55.1613 9.67742H53.2258V4.83871C53.2258 4.58202 53.1238 4.33585 52.9424 4.1544C52.7609 3.97294 52.5148 3.87097 52.2581 3.87097H46.4516C46.1949 3.87097 45.9487 3.97294 45.7673 4.1544C45.5858 4.33585 45.4839 4.58202 45.4839 4.83871V9.67742H37.7419C37.4852 9.67742 37.2391 9.7794 37.0576 9.96085C36.8762 10.1423 36.7742 10.3885 36.7742 10.6452V21.2903H32.9032V4.83871C32.9032 4.58202 32.8013 4.33585 32.6198 4.1544C32.4383 3.97294 32.1922 3.87097 31.9355 3.87097H21.2903V0.967742C21.2903 0.711085 21.1883 0.464928 21.0069 0.28344C20.8254 0.101964 20.5793 0 20.3226 0H8.70968C8.45302 0 8.20686 0.101964 8.02538 0.28344C7.8439 0.464928 7.74194 0.711085 7.74194 0.967742V11.6129H4.83871C4.58205 11.6129 4.3359 11.7149 4.15441 11.8963C3.97293 12.0778 3.87097 12.324 3.87097 12.5806V27.0968H0.967742C0.711085 27.0968 0.464927 27.1987 0.283439 27.3802C0.101958 27.5617 0 27.8078 0 28.0645V31.9355C0 32.1922 0.101958 32.4384 0.283439 32.6198C0.464927 32.8013 0.711085 32.9032 0.967742 32.9032H3.87097V36.7742H0.967742C0.711085 36.7742 0.464927 36.8762 0.283439 37.0576C0.101958 37.2391 0 37.4852 0 37.7419V41.6129C0 41.8696 0.101958 42.1158 0.283439 42.2972C0.464927 42.4787 0.711085 42.5806 0.967742 42.5806H59.0323C59.2889 42.5806 59.5351 42.4787 59.7166 42.2972C59.898 42.1158 60 41.8696 60 41.6129V37.7419C60 37.4852 59.898 37.2391 59.7166 37.0576C59.5351 36.8762 59.2889 36.7742 59.0323 36.7742H56.129V32.9032H59.0323ZM47.4194 5.80645H51.2903V9.67742H47.4194V5.80645ZM44.5161 11.6129H48.3871V17.4194H44.5161V11.6129ZM38.7097 11.6129H42.5806V18.3871C42.5806 18.6438 42.6826 18.89 42.8641 19.0714C43.0455 19.2529 43.2917 19.3548 43.5484 19.3548H49.3548C49.6115 19.3548 49.8577 19.2529 50.0392 19.0714C50.2206 18.89 50.3226 18.6438 50.3226 18.3871V11.6129H54.1935V27.0968H38.7097V11.6129ZM32.9032 23.2258H36.7742V27.0968H32.9032V23.2258ZM25.1613 5.80645H27.0968V7.74194H25.1613V5.80645ZM21.2903 5.80645H23.2258V8.70968C23.2258 8.96637 23.3278 9.21254 23.5092 9.39399C23.6907 9.57544 23.9369 9.67742 24.1935 9.67742H28.0645C28.3212 9.67742 28.5674 9.57544 28.7488 9.39399C28.9303 9.21254 29.0323 8.96637 29.0323 8.70968V5.80645H30.9677V15.4839H21.2903V5.80645ZM27.0968 17.4194V19.3548H25.1613V17.4194H27.0968ZM21.2903 17.4194H23.2258V20.3226C23.2258 20.5793 23.3278 20.8254 23.5092 21.0069C23.6907 21.1883 23.9369 21.2903 24.1935 21.2903H28.0645C28.3212 21.2903 28.5674 21.1883 28.7488 21.0069C28.9303 20.8254 29.0323 20.5793 29.0323 20.3226V17.4194H30.9677V27.0968H21.2903V17.4194ZM13.5484 1.93548H15.4839V3.87097H13.5484V1.93548ZM9.67742 1.93548H11.6129V4.83871C11.6129 5.0954 11.7149 5.34157 11.8963 5.52302C12.0778 5.70448 12.324 5.80645 12.5806 5.80645H16.4516C16.7083 5.80645 16.9545 5.70448 17.1359 5.52302C17.3174 5.34157 17.4194 5.0954 17.4194 4.83871V1.93548H19.3548V11.6129H9.67742V1.93548ZM14.5161 13.5484V17.4194H10.6452V13.5484H14.5161ZM5.80645 13.5484H8.70968V18.3871C8.70968 18.6438 8.81164 18.89 8.99312 19.0714C9.1746 19.2529 9.42076 19.3548 9.67742 19.3548H15.4839C15.7406 19.3548 15.9867 19.2529 16.1682 19.0714C16.3496 18.89 16.4516 18.6438 16.4516 18.3871V13.5484H19.3548V27.0968H5.80645V13.5484ZM58.0645 38.7097V40.6452H1.93548V38.7097H58.0645ZM5.80645 36.7742V32.9032H7.74194V36.7742H5.80645ZM9.67742 36.7742V32.9032H27.0968V36.7742H9.67742ZM29.0323 36.7742V32.9032H30.9677V36.7742H29.0323ZM32.9032 36.7742V32.9032H50.3226V36.7742H32.9032ZM52.2581 36.7742V32.9032H54.1935V36.7742H52.2581ZM1.93548 30.9677V29.0323H58.0645V30.9677H1.93548Z" fill="url(#paint0_linear_25_118)"/>
<defs>
<linearGradient id="paint0_linear_25_118" x1="58" y1="-6.50001" x2="-0.5" y2="45.5" gradientUnits="userSpaceOnUse">
<stop offset="0.145833" stop-color="#4E9CFB"/>
<stop offset="0.458333" stop-color="#DA7FDC"/>
<stop offset="0.723958" stop-color="#989AFA"/>
</linearGradient>
</defs>
</svg>
