<svg width="238" height="80" viewBox="0 0 238 80" fill="none" xmlns="http://www.w3.org/2000/svg">
<rect width="80" height="80" rx="7" fill="url(#paint0_linear_25_189)"/>
<path d="M98.7277 26.073C97.5546 26.073 96.5745 25.8633 95.7872 25.444C95 25.0246 94.4058 24.3801 94.0045 23.5103C93.6031 22.625 93.3793 21.4835 93.333 20.0857L96.8754 19.5498C96.8909 20.3575 96.9603 21.0098 97.0838 21.5068C97.2227 22.0038 97.408 22.361 97.6395 22.5784C97.8865 22.7959 98.1797 22.9046 98.5193 22.9046C98.9515 22.9046 99.2294 22.757 99.3528 22.462C99.4918 22.1669 99.5612 21.8562 99.5612 21.5301C99.5612 20.7535 99.376 20.1012 99.0055 19.5731C98.6351 19.0296 98.1334 18.486 97.5006 17.9424L95.8799 16.5213C95.1698 15.9155 94.5678 15.2322 94.0739 14.4711C93.5954 13.6946 93.3562 12.7394 93.3562 11.6056C93.3562 10.0059 93.8269 8.7867 94.7685 7.94801C95.7101 7.0938 96.9912 6.66669 98.6119 6.66669C99.6152 6.66669 100.418 6.83753 101.02 7.17922C101.637 7.52091 102.1 7.97131 102.409 8.53044C102.733 9.07403 102.949 9.65645 103.057 10.2777C103.181 10.8834 103.25 11.4658 103.266 12.025L99.7001 12.4676C99.6847 11.9085 99.6461 11.427 99.5844 11.0232C99.5381 10.6039 99.43 10.2855 99.2602 10.068C99.0904 9.83506 98.828 9.71857 98.473 9.71857C98.0871 9.71857 97.8016 9.88165 97.6164 10.2078C97.4466 10.534 97.3617 10.8601 97.3617 11.1863C97.3617 11.8852 97.5237 12.4598 97.8479 12.9102C98.1875 13.3451 98.6274 13.8033 99.1676 14.2848L100.719 15.6593C101.537 16.3582 102.224 17.1503 102.78 18.0356C103.351 18.9208 103.636 20.0158 103.636 21.3204C103.636 22.2057 103.436 23.0133 103.034 23.7433C102.633 24.4577 102.062 25.0246 101.321 25.444C100.595 25.8633 99.731 26.073 98.7277 26.073Z" fill="#28324B"/>
<path d="M111.014 26.073C109.594 26.073 108.468 25.8167 107.634 25.3042C106.816 24.7761 106.237 24.0461 105.898 23.1143C105.558 22.1669 105.388 21.0564 105.388 19.7828V12.9801C105.388 11.6755 105.558 10.5573 105.898 9.62539C106.237 8.67798 106.816 7.94801 107.634 7.43548C108.468 6.92295 109.594 6.66669 111.014 6.66669C112.404 6.66669 113.484 6.89966 114.256 7.36559C115.043 7.816 115.599 8.45278 115.923 9.27593C116.247 10.0991 116.409 11.0465 116.409 12.1182V13.7489H112.357V11.8619C112.357 11.4891 112.334 11.1319 112.288 10.7902C112.257 10.4485 112.149 10.169 111.964 9.95154C111.779 9.71858 111.462 9.60209 111.014 9.60209C110.582 9.60209 110.258 9.71858 110.042 9.95154C109.841 10.1845 109.71 10.4796 109.648 10.8368C109.602 11.1785 109.579 11.5435 109.579 11.9318V20.8079C109.579 21.2272 109.61 21.6155 109.672 21.9727C109.749 22.3144 109.888 22.594 110.088 22.8114C110.304 23.0133 110.613 23.1143 111.014 23.1143C111.447 23.1143 111.755 23.0056 111.941 22.7881C112.126 22.5551 112.242 22.2601 112.288 21.9028C112.334 21.5456 112.357 21.1806 112.357 20.8079V18.8276H116.409V20.4584C116.409 21.5301 116.247 22.493 115.923 23.3472C115.614 24.1859 115.066 24.8538 114.279 25.3508C113.507 25.8322 112.419 26.073 111.014 26.073Z" fill="#28324B"/>
<path d="M118.689 25.7934V6.92295H123.852C125.118 6.92295 126.214 7.06273 127.14 7.3423C128.066 7.62186 128.784 8.12662 129.293 8.85659C129.818 9.57103 130.081 10.5883 130.081 11.9085C130.081 12.685 130.019 13.3762 129.895 13.9819C129.772 14.5876 129.54 15.1157 129.201 15.5661C128.877 16.001 128.406 16.3659 127.788 16.661L130.358 25.7934H126.075L124.014 17.3366H122.834V25.7934H118.689ZM122.834 14.9371H123.991C124.578 14.9371 125.033 14.8361 125.357 14.6342C125.681 14.4168 125.905 14.1139 126.029 13.7256C126.168 13.3218 126.237 12.8404 126.237 12.2812C126.237 11.4736 126.091 10.8446 125.797 10.3942C125.504 9.94378 124.964 9.71857 124.177 9.71857H122.834V14.9371Z" fill="#28324B"/>
<path d="M131.669 25.7934L135.212 6.92295H139.935L143.431 25.7934H139.611L138.986 21.8096H136.23L135.582 25.7934H131.669ZM136.601 19.3169H138.592L137.596 11.9551L136.601 19.3169Z" fill="#28324B"/>
<path d="M145.324 25.7934V6.92295H151.622C152.749 6.92295 153.675 7.14039 154.4 7.57526C155.126 7.99461 155.666 8.61586 156.021 9.43901C156.376 10.2466 156.554 11.2329 156.554 12.3977C156.554 13.8577 156.314 14.9759 155.836 15.7525C155.357 16.5135 154.709 17.0416 153.891 17.3366C153.073 17.6317 152.155 17.7793 151.136 17.7793H149.469V25.7934H145.324ZM149.469 14.8672H150.858C151.367 14.8672 151.753 14.774 152.016 14.5876C152.278 14.4012 152.448 14.1217 152.525 13.7489C152.618 13.3762 152.664 12.9025 152.664 12.3278C152.664 11.8464 152.625 11.427 152.548 11.0698C152.486 10.697 152.324 10.4019 152.062 10.1845C151.8 9.96708 151.391 9.85836 150.835 9.85836H149.469V14.8672Z" fill="#28324B"/>
<path d="M93.7729 49.0903V30.2198H97.9173V49.0903H93.7729Z" fill="#28324B"/>
<path d="M100.714 49.0903V30.2198H103.631L107.475 39.3056V30.2198H110.901V49.0903H108.1L104.256 39.3056V49.0903H100.714Z" fill="#28324B"/>
<path d="M115.382 49.0903V33.3183H112.558V30.2198H122.352V33.3183H119.55V49.0903H115.382Z" fill="#28324B"/>
<path d="M124.003 49.0903V30.2198H132.43V33.062H128.147V37.7447H131.412V40.6335H128.147V46.2713H132.477V49.0903H124.003Z" fill="#28324B"/>
<path d="M134.358 49.0903V30.2198H139.521C140.787 30.2198 141.883 30.3596 142.809 30.6392C143.735 30.9187 144.453 31.4235 144.962 32.1534C145.487 32.8679 145.75 33.8852 145.75 35.2053C145.75 35.9819 145.688 36.673 145.564 37.2788C145.441 37.8845 145.209 38.4125 144.87 38.8629C144.546 39.2978 144.075 39.6628 143.458 39.9579L146.028 49.0903H141.744L139.684 40.6335H138.503V49.0903H134.358ZM138.503 38.2339H139.66C140.247 38.2339 140.702 38.133 141.026 37.9311C141.351 37.7136 141.574 37.4108 141.698 37.0225C141.837 36.6187 141.906 36.1372 141.906 35.5781C141.906 34.7705 141.76 34.1414 141.466 33.691C141.173 33.2406 140.633 33.0154 139.846 33.0154H138.503V38.2339Z" fill="#28324B"/>
<path d="M148.241 49.0903V30.2198H151.159L155.002 39.3056V30.2198H158.429V49.0903H155.627L151.784 39.3056V49.0903H148.241Z" fill="#28324B"/>
<path d="M160.317 49.0903L163.859 30.2198H168.582L172.079 49.0903H168.258L167.633 45.1065H164.878L164.23 49.0903H160.317ZM165.248 42.6137H167.239L166.244 35.2519L165.248 42.6137Z" fill="#28324B"/>
<path d="M174.667 49.0903V33.3183H171.843V30.2198H181.636V33.3183H178.835V49.0903H174.667Z" fill="#28324B"/>
<path d="M183.311 49.0903V30.2198H187.455V49.0903H183.311Z" fill="#28324B"/>
<path d="M195.623 49.3698C194.219 49.3698 193.107 49.1213 192.289 48.6243C191.471 48.1273 190.884 47.4129 190.529 46.481C190.174 45.5491 189.997 44.4387 189.997 43.1496V36.1372C189.997 34.8326 190.174 33.7221 190.529 32.8058C190.884 31.8894 191.471 31.1905 192.289 30.709C193.107 30.212 194.219 29.9635 195.623 29.9635C197.043 29.9635 198.162 30.212 198.98 30.709C199.814 31.1905 200.408 31.8894 200.763 32.8058C201.118 33.7221 201.296 34.8326 201.296 36.1372V43.1496C201.296 44.4387 201.118 45.5491 200.763 46.481C200.408 47.4129 199.814 48.1273 198.98 48.6243C198.162 49.1213 197.043 49.3698 195.623 49.3698ZM195.623 46.4111C196.055 46.4111 196.372 46.3024 196.572 46.085C196.773 45.8675 196.904 45.588 196.966 45.2463C197.028 44.9046 197.059 44.5551 197.059 44.1979V35.1122C197.059 34.7394 197.028 34.3899 196.966 34.0638C196.904 33.7221 196.773 33.4425 196.572 33.2251C196.372 33.0077 196.055 32.8989 195.623 32.8989C195.222 32.8989 194.921 33.0077 194.72 33.2251C194.52 33.4425 194.388 33.7221 194.327 34.0638C194.265 34.3899 194.234 34.7394 194.234 35.1122V44.1979C194.234 44.5551 194.257 44.9046 194.303 45.2463C194.365 45.588 194.489 45.8675 194.674 46.085C194.875 46.3024 195.191 46.4111 195.623 46.4111Z" fill="#28324B"/>
<path d="M203.818 49.0903V30.2198H206.735L210.579 39.3056V30.2198H214.005V49.0903H211.204L207.36 39.3056V49.0903H203.818Z" fill="#28324B"/>
<path d="M215.893 49.0903L219.436 30.2198H224.159L227.655 49.0903H223.835L223.21 45.1065H220.455L219.806 49.0903H215.893ZM220.825 42.6137H222.816L221.821 35.2519L220.825 42.6137Z" fill="#28324B"/>
<path d="M229.549 49.0903V30.2198H233.693V46.2713H238V49.0903H229.549Z" fill="#28324B"/>
<path d="M98.7277 72.6667C97.5546 72.6667 96.5745 72.457 95.7872 72.0377C95 71.6183 94.4058 70.9738 94.0045 70.104C93.6031 69.2188 93.3793 68.0772 93.333 66.6794L96.8754 66.1436C96.8909 66.9512 96.9603 67.6035 97.0838 68.1005C97.2227 68.5975 97.408 68.9547 97.6395 69.1722C97.8865 69.3896 98.1797 69.4983 98.5193 69.4983C98.9515 69.4983 99.2294 69.3508 99.3528 69.0557C99.4918 68.7606 99.5612 68.45 99.5612 68.1238C99.5612 67.3472 99.376 66.6949 99.0055 66.1669C98.6351 65.6233 98.1334 65.0797 97.5006 64.5361L95.8799 63.115C95.1698 62.5093 94.5678 61.8259 94.0739 61.0648C93.5954 60.2883 93.3562 59.3331 93.3562 58.1993C93.3562 56.5996 93.8269 55.3804 94.7685 54.5417C95.7101 53.6875 96.9912 53.2604 98.6119 53.2604C99.6152 53.2604 100.418 53.4312 101.02 53.7729C101.637 54.1146 102.1 54.565 102.409 55.1242C102.733 55.6677 102.949 56.2502 103.057 56.8714C103.181 57.4771 103.25 58.0596 103.266 58.6187L99.7001 59.0613C99.6847 58.5022 99.6461 58.0207 99.5844 57.6169C99.5381 57.1976 99.43 56.8792 99.2602 56.6617C99.0904 56.4288 98.828 56.3123 98.473 56.3123C98.0871 56.3123 97.8016 56.4754 97.6164 56.8015C97.4466 57.1277 97.3617 57.4538 97.3617 57.78C97.3617 58.4789 97.5237 59.0536 97.8479 59.504C98.1875 59.9388 98.6274 60.397 99.1676 60.8785L100.719 62.253C101.537 62.9519 102.224 63.744 102.78 64.6293C103.351 65.5145 103.636 66.6095 103.636 67.9141C103.636 68.7994 103.436 69.607 103.034 70.337C102.633 71.0514 102.062 71.6183 101.321 72.0377C100.595 72.457 99.731 72.6667 98.7277 72.6667Z" fill="#28324B"/>
<path d="M105.643 72.3871V53.5167H114.071V56.3589H109.787V61.0415H113.052V63.9304H109.787V69.5682H114.117V72.3871H105.643Z" fill="#28324B"/>
<path d="M115.999 72.3871V53.5167H121.162C122.427 53.5167 123.523 53.6564 124.449 53.936C125.376 54.2156 126.093 54.7203 126.603 55.4503C127.128 56.1647 127.39 57.182 127.39 58.5022C127.39 59.2788 127.328 59.9699 127.205 60.5756C127.081 61.1813 126.85 61.7094 126.51 62.1598C126.186 62.5947 125.715 62.9597 125.098 63.2548L127.668 72.3871H123.384L121.324 63.9304H120.143V72.3871H115.999ZM120.143 61.5308H121.301C121.887 61.5308 122.343 61.4298 122.667 61.2279C122.991 61.0105 123.215 60.7076 123.338 60.3194C123.477 59.9155 123.546 59.4341 123.546 58.8749C123.546 58.0673 123.4 57.4383 123.107 56.9879C122.813 56.5375 122.273 56.3123 121.486 56.3123H120.143V61.5308Z" fill="#28324B"/>
<path d="M132.224 72.3871L128.843 53.5167H132.386L134.4 66.3299L136.276 53.5167H140.026L136.6 72.3871H132.224Z" fill="#28324B"/>
<path d="M141.933 72.3871V53.5167H146.078V72.3871H141.933Z" fill="#28324B"/>
<path d="M154.246 72.6667C152.826 72.6667 151.699 72.4104 150.865 71.8979C150.047 71.3698 149.469 70.6399 149.129 69.708C148.789 68.7606 148.62 67.6501 148.62 66.3765V59.5739C148.62 58.2692 148.789 57.151 149.129 56.2191C149.469 55.2717 150.047 54.5417 150.865 54.0292C151.699 53.5167 152.826 53.2604 154.246 53.2604C155.635 53.2604 156.716 53.4934 157.487 53.9593C158.274 54.4097 158.83 55.0465 159.154 55.8697C159.478 56.6928 159.641 57.6402 159.641 58.7119V60.3426H155.589V58.4556C155.589 58.0829 155.566 57.7256 155.519 57.3839C155.488 57.0423 155.38 56.7627 155.195 56.5453C155.01 56.3123 154.693 56.1958 154.246 56.1958C153.814 56.1958 153.49 56.3123 153.273 56.5453C153.073 56.7782 152.942 57.0733 152.88 57.4305C152.833 57.7722 152.81 58.1372 152.81 58.5255V67.4016C152.81 67.8209 152.841 68.2092 152.903 68.5664C152.98 68.9081 153.119 69.1877 153.32 69.4051C153.536 69.607 153.845 69.708 154.246 69.708C154.678 69.708 154.987 69.5993 155.172 69.3818C155.357 69.1489 155.473 68.8538 155.519 68.4965C155.566 68.1393 155.589 67.7743 155.589 67.4016V65.4214H159.641V67.0521C159.641 68.1238 159.478 69.0867 159.154 69.941C158.846 70.7796 158.298 71.4475 157.51 71.9445C156.739 72.4259 155.65 72.6667 154.246 72.6667Z" fill="#28324B"/>
<path d="M161.921 72.3871V53.5167H170.348V56.3589H166.065V61.0415H169.33V63.9304H166.065V69.5682H170.395V72.3871H161.921Z" fill="#28324B"/>
<path d="M53.3855 49.2428V48.9811C53.3839 47.9832 53.1679 46.9973 52.7521 46.0901C53.1803 46.2897 53.6287 46.4429 54.0896 46.547C55.5247 46.872 57.0276 46.7015 58.3533 46.0631C57.9192 46.9785 57.6923 47.9784 57.6888 48.9915V49.2698C57.6931 50.2282 57.9056 51.1743 58.3118 52.0424C57.4408 51.637 56.4917 51.4269 55.5309 51.4269C54.5702 51.4269 53.621 51.637 52.75 52.0424C53.1646 51.1671 53.3816 50.2113 53.3855 49.2428Z" fill="white"/>
<path d="M30.8165 20.2147C30.9307 20.6089 31.0079 21.0128 31.047 21.4213C31.5593 20.6878 32.2247 20.0742 32.9972 19.6228L33.5662 19.2946C34.3597 18.8409 35.243 18.5666 36.154 18.4909C35.8587 18.2819 35.5808 18.0492 35.3232 17.7952C34.2325 16.7142 33.5563 15.2845 33.4125 13.7557C32.8701 14.5047 32.1759 15.131 31.3751 15.5937L30.9203 15.8533C30.1137 16.3186 29.2175 16.6074 28.291 16.7007C29.5038 17.5549 30.3935 18.7928 30.8165 20.2147Z" fill="white"/>
<path d="M46.4967 52.5782C45.7273 53.982 44.5255 55.1001 43.0699 55.7663C41.6143 56.4325 39.9826 56.6113 38.4173 56.276C36.852 55.9408 35.4366 55.1095 34.3816 53.9056C33.3265 52.7017 32.688 51.1895 32.561 49.5938C32.5067 48.8292 32.2671 48.0893 31.863 47.4379C31.4588 46.7866 30.9022 46.2435 30.2411 45.8554H30.2287C29.693 45.5492 29.1011 45.3542 28.4883 45.2822C29.643 44.3918 30.4709 43.1447 30.8434 41.7349C30.9146 41.4618 30.9681 41.1843 31.0033 40.9042C31.375 41.3945 31.8411 41.8055 32.3741 42.1129L32.4156 42.1358C33.0761 42.512 33.818 42.7223 34.5776 42.7487C35.3373 42.7752 36.092 42.6168 36.777 42.2874C38.1971 41.6108 39.7951 41.4018 41.3415 41.6906C42.8878 41.9794 44.3027 42.7511 45.3828 43.8947C46.4629 45.0383 47.1526 46.4949 47.3528 48.0552C47.5529 49.6155 47.2532 51.199 46.4967 52.5782ZM42.4966 46.4909C42.0001 45.9925 41.3669 45.6525 40.6771 45.5139C39.9873 45.3753 39.2719 45.4444 38.6213 45.7123C37.9708 45.9803 37.4143 46.4352 37.0222 47.0194C36.6301 47.6036 36.4201 48.2909 36.4187 48.9945C36.4172 49.6981 36.6244 50.3863 37.0141 50.9721C37.4037 51.558 37.9583 52.0151 38.6078 52.2857C39.2572 52.5564 39.9723 52.6284 40.6627 52.4927C41.353 52.3569 41.9876 52.0195 42.4863 51.5231C43.1542 50.8571 43.5303 49.9531 43.5319 49.0098C43.5334 48.0665 43.1603 47.1613 42.4946 46.493L42.4966 46.4909Z" fill="white"/>
<path d="M28.5605 35.98C29.3571 36.7899 29.8972 37.8168 30.1131 38.9321C30.3291 40.0474 30.2113 41.2016 29.7746 42.2503C29.3379 43.2991 28.6016 44.1957 27.6578 44.8281C26.7141 45.4605 25.6048 45.8005 24.4688 45.8056C23.3328 45.8108 22.2205 45.4808 21.2711 44.857C20.3217 44.2331 19.5773 43.3432 19.1311 42.2984C18.6849 41.2537 18.5568 40.1006 18.7626 38.9834C18.9685 37.8662 19.4992 36.8345 20.2885 36.0174C21.5675 34.7121 22.2879 32.96 22.2968 31.1326V30.8543C22.2806 29.0699 21.569 27.3622 20.3134 26.0942C19.5232 25.2779 18.9912 24.2467 18.7839 23.1297C18.5766 22.0127 18.7032 20.8593 19.1479 19.8139C19.5927 18.7684 20.3357 17.8773 21.2842 17.2519C22.2327 16.6265 23.3445 16.2946 24.4806 16.2978C25.6167 16.3009 26.7267 16.6389 27.6717 17.2695C28.6168 17.9001 29.3549 18.7953 29.7938 19.8432C30.2328 20.8911 30.3531 22.0452 30.1396 23.161C29.9262 24.2769 29.3885 25.3051 28.5938 26.117C27.331 27.3836 26.6152 29.0949 26.6 30.8834V31.1451C26.5948 32.9513 27.2988 34.6875 28.5605 35.98ZM25.2085 24.8668C25.7611 24.7204 26.2578 24.4135 26.6359 23.9848C27.0139 23.556 27.2563 23.0248 27.3323 22.4583C27.4083 21.8917 27.3146 21.3154 27.0629 20.8021C26.8112 20.2889 26.413 19.8619 25.9185 19.5751C25.424 19.2883 24.8556 19.1547 24.2852 19.1911C23.7147 19.2274 23.1679 19.4322 22.7139 19.7795C22.2599 20.1268 21.9191 20.601 21.7347 21.1421C21.5502 21.6831 21.5305 22.2667 21.6779 22.819C21.8752 23.5583 22.3577 24.1892 23.0197 24.5731C23.6816 24.957 24.4688 25.0626 25.2085 24.8668ZM25.1815 37.2448C24.6291 37.0986 24.0458 37.1195 23.5052 37.3049C22.9647 37.4903 22.4913 37.8318 22.1449 38.2862C21.7985 38.7407 21.5946 39.2877 21.5591 39.858C21.5236 40.4283 21.658 40.9963 21.9454 41.4903C22.2327 41.9842 22.6601 42.3818 23.1734 42.6328C23.6868 42.8838 24.263 42.9769 24.8293 42.9004C25.3956 42.8239 25.9264 42.5812 26.3547 42.2029C26.783 41.8247 27.0896 41.3279 27.2355 40.7754C27.4312 40.0349 27.3247 39.2469 26.9395 38.5848C26.5543 37.9228 25.922 37.4407 25.1815 37.2448Z" fill="white"/>
<path d="M61.173 23.3527C60.8907 24.607 60.1981 25.7313 59.2049 26.5476C58.2117 27.3639 56.9746 27.8257 55.6894 27.8598C54.4042 27.8939 53.1444 27.4983 52.1093 26.7358C51.0742 25.9732 50.323 24.8873 49.9746 23.6497C49.474 21.8857 48.3049 20.3865 46.716 19.4711L46.662 19.44C45.0902 18.5193 43.2196 18.253 41.4533 18.6985C40.3557 18.9842 39.1983 18.9404 38.1254 18.5727C37.0526 18.2049 36.1117 17.5294 35.4203 16.6304C34.7288 15.7314 34.3173 14.6488 34.2371 13.5174C34.1569 12.3861 34.4116 11.2563 34.9693 10.2687C35.527 9.28119 36.3632 8.47972 37.3734 7.96427C38.3837 7.44883 39.5233 7.24222 40.6502 7.37022C41.7771 7.49822 42.8414 7.95517 43.7103 8.68406C44.5792 9.41295 45.2143 10.3815 45.5364 11.469C46.0427 13.2521 47.2163 14.7716 48.8136 15.712L48.8718 15.7452C50.4836 16.6569 52.3841 16.9142 54.1802 16.4638C55.1348 16.2354 56.1318 16.2538 57.0772 16.5173C58.0227 16.7808 58.8855 17.2807 59.5843 17.9699C60.2831 18.6591 60.7949 19.515 61.0713 20.4567C61.3478 21.3985 61.38 22.3951 61.1647 23.3527H61.173ZM42.0348 11.0619C41.6308 10.6579 41.116 10.3827 40.5556 10.2712C39.9952 10.1597 39.4143 10.2168 38.8864 10.4355C38.3585 10.6541 37.9073 11.0244 37.5899 11.4995C37.2724 11.9746 37.103 12.5331 37.103 13.1045C37.103 13.6759 37.2724 14.2345 37.5899 14.7096C37.9073 15.1846 38.3585 15.5549 38.8864 15.7736C39.4143 15.9922 39.9952 16.0494 40.5556 15.9379C41.116 15.8264 41.6308 15.5512 42.0348 15.1471C42.5765 14.6053 42.8808 13.8706 42.8808 13.1045C42.8808 12.3384 42.5765 11.6037 42.0348 11.0619ZM56.282 19.2904C55.7298 19.1426 55.1461 19.162 54.6049 19.3461C54.0636 19.5302 53.5892 19.8707 53.2416 20.3246C52.894 20.7785 52.6889 21.3252 52.6522 21.8957C52.6155 22.4662 52.7489 23.0348 53.0355 23.5294C53.3221 24.0241 53.7491 24.4226 54.2622 24.6745C54.7754 24.9264 55.3518 25.0203 55.9184 24.9445C56.485 24.8686 57.0164 24.6264 57.4453 24.2484C57.8742 23.8704 58.1813 23.3737 58.3277 22.8211C58.523 22.0819 58.4174 21.2955 58.0339 20.6341C57.6505 19.9727 57.0205 19.4903 56.282 19.2925V19.2904Z" fill="white"/>
<path d="M61.0655 41.7911C60.6866 43.0225 59.907 44.0919 58.8506 44.8295C57.7941 45.567 56.5215 45.9302 55.2349 45.8615C53.9484 45.7927 52.7217 45.2959 51.7498 44.4501C50.778 43.6042 50.1168 42.4577 49.8713 41.1929C49.7458 40.5328 49.4801 39.9074 49.092 39.3588C48.704 38.8102 48.2027 38.3514 47.6221 38.0133L47.5805 37.9904C46.92 37.6142 46.1781 37.4039 45.4185 37.3775C44.6588 37.3511 43.9041 37.5094 43.2191 37.8388C41.7861 38.5211 40.1724 38.7271 38.6138 38.4268C37.0553 38.1265 35.6337 37.3357 34.5567 36.1698C33.4797 35.0039 32.8039 33.5241 32.6279 31.9467C32.4519 30.3693 32.7851 28.777 33.5786 27.4024C34.3722 26.0279 35.5846 24.9431 37.0386 24.3068C38.4926 23.6704 40.112 23.5157 41.6602 23.8654C43.2084 24.2151 44.6042 25.0507 45.6436 26.2502C46.683 27.4498 47.3115 28.9503 47.4372 30.5325C47.4915 31.2971 47.7311 32.037 48.1352 32.6883C48.5394 33.3396 49.096 33.8827 49.7571 34.2708H49.7695C50.3585 34.6054 51.0124 34.8096 51.6872 34.8694C52.3619 34.9293 53.0416 34.8434 53.6802 34.6176C54.6885 34.2715 55.773 34.2111 56.8135 34.4431C57.854 34.6752 58.81 35.1905 59.5758 35.9322C60.3415 36.6739 60.8872 37.613 61.1523 38.6455C61.4174 39.6781 61.3917 40.7639 61.078 41.7828L61.0655 41.7911ZM42.5338 28.6134C42.0372 28.115 41.404 27.775 40.7142 27.6364C40.0244 27.4978 39.309 27.5669 38.6584 27.8348C38.0079 28.1028 37.4514 28.5577 37.0593 29.1419C36.6673 29.7261 36.4572 30.4134 36.4558 31.117C36.4543 31.8206 36.6615 32.5088 37.0512 33.0946C37.4408 33.6805 37.9954 34.1376 38.6449 34.4083C39.2943 34.6789 40.0094 34.7509 40.6998 34.6152C41.3901 34.4794 42.0248 34.142 42.5234 33.6457C42.8546 33.316 43.1175 32.9243 43.2973 32.4929C43.4771 32.0616 43.5701 31.599 43.5711 31.1317C43.572 30.6644 43.4809 30.2015 43.3029 29.7694C43.1249 29.3373 42.8636 28.9445 42.5338 28.6134ZM56.2804 37.2988C55.728 37.1526 55.1447 37.1736 54.6042 37.3589C54.0637 37.5443 53.5903 37.8858 53.2438 38.3403C52.8974 38.7947 52.6936 39.3417 52.6581 39.912C52.6225 40.4823 52.757 41.0504 53.0443 41.5443C53.3316 42.0382 53.759 42.4358 54.2724 42.6869C54.7857 42.9379 55.3619 43.031 55.9282 42.9545C56.4945 42.878 57.0254 42.6352 57.4537 42.257C57.882 41.8787 58.1885 41.382 58.3344 40.8295C58.5301 40.0889 58.4236 39.301 58.0384 38.6389C57.6533 37.9768 57.0209 37.4948 56.2804 37.2988Z" fill="white"/>
<path d="M57.2146 63.5752C56.1555 63.9016 55.0247 63.9153 53.9581 63.6147C53.1386 63.3926 52.2831 63.3366 51.4417 63.45C50.6003 63.5634 49.7901 63.844 49.0588 64.2751L48.6123 64.5326C47.8735 64.9507 47.2258 65.5121 46.7073 66.1841C46.1887 66.856 45.8097 67.6249 45.5925 68.4454C45.3097 69.5554 44.7033 70.5563 43.8503 71.3209C42.9974 72.0855 41.9365 72.5794 40.8023 72.7397C39.6681 72.9 38.5118 72.7196 37.4804 72.2213C36.4489 71.723 35.5889 70.9294 35.0095 69.9413C34.4301 68.9532 34.1575 67.8151 34.2263 66.6717C34.2951 65.5283 34.7022 64.4311 35.3959 63.5196C36.0896 62.6081 37.0386 61.9234 38.1223 61.5524C39.2061 61.1814 40.3756 61.1409 41.4824 61.4361C43.1417 61.8965 44.9159 61.6791 46.4149 60.8317L46.984 60.5035C47.7113 60.0755 48.3468 59.5078 48.8536 58.833C49.3605 58.1583 49.7288 57.3898 49.9373 56.5721C50.1945 55.5987 50.7015 54.7093 51.4082 53.9923C52.115 53.2752 52.9968 52.7552 53.9664 52.4839C54.9359 52.2125 55.9596 52.1993 56.9358 52.4454C57.9121 52.6915 58.8071 53.1885 59.5321 53.887C60.2572 54.5856 60.7871 55.4614 61.0694 56.4279C61.3517 57.3943 61.3766 58.4177 61.1416 59.3967C60.9066 60.3757 60.4198 61.2763 59.7295 62.0092C59.0392 62.7421 58.1694 63.282 57.2063 63.5752H57.2146ZM42.0307 64.9729C41.6267 64.5689 41.112 64.2937 40.5516 64.1822C39.9911 64.0706 39.4103 64.1278 38.8824 64.3465C38.3544 64.5651 37.9032 64.9354 37.5858 65.4105C37.2683 65.8856 37.0989 66.4441 37.0989 67.0155C37.0989 67.5869 37.2683 68.1455 37.5858 68.6206C37.9032 69.0956 38.3544 69.4659 38.8824 69.6846C39.4103 69.9032 39.9911 69.9604 40.5516 69.8489C41.112 69.7374 41.6267 69.4622 42.0307 69.0581C42.5721 68.5161 42.876 67.7812 42.8756 67.0151C42.8752 66.249 42.5706 65.5144 42.0286 64.9729H42.0307ZM58.3132 57.3073C58.1669 56.7547 57.86 56.258 57.4312 55.8799C57.0025 55.5018 56.4713 55.2595 55.9047 55.1835C55.3382 55.1074 54.7618 55.2012 54.2486 55.4529C53.7354 55.7046 53.3084 56.1028 53.0216 56.5973C52.7348 57.0918 52.6011 57.6602 52.6375 58.2306C52.6739 58.8011 52.8787 59.3479 53.226 59.8019C53.5733 60.2559 54.0475 60.5967 54.5885 60.7811C55.1296 60.9655 55.7132 60.9853 56.2654 60.8379C57.0044 60.6402 57.6347 60.1574 58.0182 59.4955C58.4017 58.8337 58.5071 58.0467 58.3111 57.3073H58.3132Z" fill="white"/>
<path d="M36.193 61.6021C35.8759 61.8231 35.5785 62.0712 35.3042 62.3436C34.1952 63.447 33.5175 64.9108 33.3935 66.4703C32.8129 65.6288 32.0542 64.9254 31.1712 64.41L31.1131 64.3768C29.4993 63.4642 27.5962 63.2077 25.7984 63.6603C24.6965 63.925 23.5411 63.8599 22.476 63.473C21.4109 63.086 20.483 62.3945 19.808 61.4842C19.1329 60.574 18.7404 59.4854 18.6793 58.3538C18.6182 57.2222 18.8912 56.0977 19.4644 55.1201C20.0376 54.1425 20.8855 53.355 21.9028 52.8557C22.9201 52.3564 24.0618 52.1672 25.1858 52.3118C26.3097 52.4563 27.3664 52.9282 28.2242 53.6687C29.082 54.4092 29.7031 55.3857 30.0103 56.4765C30.5108 58.2406 31.6799 59.7397 33.2688 60.6551L33.3228 60.6862C34.2031 61.1932 35.1818 61.5055 36.193 61.6021ZM25.1857 55.2511C24.6335 55.1033 24.0498 55.1227 23.5086 55.3068C22.9674 55.4909 22.4929 55.8314 22.1454 56.2853C21.7978 56.7392 21.5926 57.286 21.556 57.8565C21.5193 58.4269 21.6527 58.9955 21.9393 59.4901C22.2259 59.9848 22.6528 60.3833 23.166 60.6352C23.6792 60.8871 24.2556 60.981 24.8222 60.9052C25.3888 60.8293 25.9202 60.5871 26.349 60.2091C26.7779 59.8311 27.085 59.3344 27.2314 58.7818C27.4277 58.0438 27.3238 57.258 26.9424 56.5964C26.561 55.9348 25.9332 55.4511 25.1961 55.2511H25.1857Z" fill="white"/>
<defs>
<linearGradient id="paint0_linear_25_189" x1="0" y1="0" x2="80" y2="80" gradientUnits="userSpaceOnUse">
<stop stop-color="#0671C1"/>
<stop offset="0.315655" stop-color="#0094FF"/>
<stop offset="0.490711" stop-color="#4E9CFB"/>
<stop offset="1" stop-color="#7750A9"/>
</linearGradient>
</defs>
</svg>
