<svg width="238" height="80" viewBox="0 0 238 80" fill="none" xmlns="http://www.w3.org/2000/svg">
<rect width="80" height="80" rx="7" fill="url(#paint0_linear_25_87)"/>
<path d="M98.7277 26.073C97.5546 26.073 96.5745 25.8634 95.7872 25.444C95 25.0247 94.4058 24.3801 94.0045 23.5104C93.6031 22.6251 93.3793 21.4836 93.333 20.0857L96.8754 19.5499C96.8909 20.3575 96.9603 21.0098 97.0838 21.5068C97.2227 22.0038 97.408 22.3611 97.6395 22.5785C97.8865 22.7959 98.1797 22.9047 98.5193 22.9047C98.9515 22.9047 99.2294 22.7571 99.3528 22.462C99.4918 22.1669 99.5612 21.8563 99.5612 21.5301C99.5612 20.7536 99.376 20.1013 99.0055 19.5732C98.6351 19.0296 98.1334 18.486 97.5006 17.9424L95.8799 16.5213C95.1698 15.9156 94.5678 15.2322 94.0739 14.4712C93.5954 13.6946 93.3562 12.7395 93.3562 11.6057C93.3562 10.006 93.8269 8.78676 94.7685 7.94808C95.7101 7.09386 96.9912 6.66675 98.6119 6.66675C99.6152 6.66675 100.418 6.83759 101.02 7.17928C101.637 7.52097 102.1 7.97137 102.409 8.5305C102.733 9.07409 102.949 9.65651 103.057 10.2778C103.181 10.8835 103.25 11.4659 103.266 12.025L99.7001 12.4677C99.6847 11.9085 99.6461 11.4271 99.5844 11.0233C99.5381 10.6039 99.43 10.2855 99.2602 10.0681C99.0904 9.83512 98.828 9.71864 98.473 9.71864C98.0871 9.71864 97.8016 9.88171 97.6164 10.2079C97.4466 10.534 97.3617 10.8602 97.3617 11.1863C97.3617 11.8852 97.5237 12.4599 97.8479 12.9103C98.1875 13.3452 98.6274 13.8034 99.1676 14.2848L100.719 15.6593C101.537 16.3582 102.224 17.1503 102.78 18.0356C103.351 18.9209 103.636 20.0158 103.636 21.3205C103.636 22.2058 103.436 23.0134 103.034 23.7433C102.633 24.4578 102.062 25.0247 101.321 25.444C100.595 25.8634 99.731 26.073 98.7277 26.073Z" fill="white"/>
<path d="M111.014 26.073C109.594 26.073 108.468 25.8168 107.634 25.3042C106.816 24.7762 106.237 24.0462 105.898 23.1143C105.558 22.1669 105.388 21.0564 105.388 19.7829V12.9802C105.388 11.6756 105.558 10.5573 105.898 9.62545C106.237 8.67804 106.816 7.94807 107.634 7.43554C108.468 6.92301 109.594 6.66675 111.014 6.66675C112.404 6.66675 113.484 6.89972 114.256 7.36565C115.043 7.81606 115.599 8.45284 115.923 9.276C116.247 10.0992 116.409 11.0466 116.409 12.1182V13.749H112.357V11.8619C112.357 11.4892 112.334 11.132 112.288 10.7903C112.257 10.4486 112.149 10.169 111.964 9.95161C111.779 9.71864 111.462 9.60215 111.014 9.60215C110.582 9.60215 110.258 9.71864 110.042 9.95161C109.841 10.1846 109.71 10.4797 109.648 10.8369C109.602 11.1786 109.579 11.5436 109.579 11.9318V20.8079C109.579 21.2273 109.61 21.6156 109.672 21.9728C109.749 22.3145 109.888 22.594 110.088 22.8115C110.304 23.0134 110.613 23.1143 111.014 23.1143C111.447 23.1143 111.755 23.0056 111.941 22.7882C112.126 22.5552 112.242 22.2601 112.288 21.9029C112.334 21.5457 112.357 21.1807 112.357 20.8079V18.8277H116.409V20.4585C116.409 21.5301 116.247 22.4931 115.923 23.3473C115.614 24.186 115.066 24.8538 114.279 25.3508C113.507 25.8323 112.419 26.073 111.014 26.073Z" fill="white"/>
<path d="M118.689 25.7935V6.92301H123.852C125.118 6.92301 126.214 7.06279 127.14 7.34236C128.066 7.62192 128.784 8.12668 129.293 8.85665C129.818 9.57109 130.081 10.5884 130.081 11.9085C130.081 12.6851 130.019 13.3762 129.895 13.982C129.772 14.5877 129.54 15.1157 129.201 15.5661C128.877 16.001 128.406 16.366 127.788 16.6611L130.358 25.7935H126.075L124.014 17.3367H122.834V25.7935H118.689ZM122.834 14.9371H123.991C124.578 14.9371 125.033 14.8362 125.357 14.6343C125.681 14.4168 125.905 14.114 126.029 13.7257C126.168 13.3219 126.237 12.8404 126.237 12.2813C126.237 11.4737 126.091 10.8447 125.797 10.3942C125.504 9.94384 124.964 9.71864 124.177 9.71864H122.834V14.9371Z" fill="white"/>
<path d="M131.669 25.7935L135.212 6.92301H139.935L143.431 25.7935H139.611L138.986 21.8097H136.23L135.582 25.7935H131.669ZM136.601 19.3169H138.592L137.596 11.9551L136.601 19.3169Z" fill="white"/>
<path d="M145.324 25.7935V6.92301H151.622C152.749 6.92301 153.675 7.14045 154.4 7.57532C155.126 7.99467 155.666 8.61592 156.021 9.43907C156.376 10.2467 156.554 11.2329 156.554 12.3978C156.554 13.8577 156.314 14.976 155.836 15.7525C155.357 16.5136 154.709 17.0416 153.891 17.3367C153.073 17.6318 152.155 17.7794 151.136 17.7794H149.469V25.7935H145.324ZM149.469 14.8672H150.858C151.367 14.8672 151.753 14.7741 152.016 14.5877C152.278 14.4013 152.448 14.1217 152.525 13.749C152.618 13.3762 152.664 12.9025 152.664 12.3279C152.664 11.8464 152.625 11.4271 152.548 11.0699C152.486 10.6971 152.324 10.402 152.062 10.1846C151.8 9.96714 151.391 9.85842 150.835 9.85842H149.469V14.8672Z" fill="white"/>
<path d="M93.7729 49.0903V30.2199H97.9173V49.0903H93.7729Z" fill="white"/>
<path d="M100.714 49.0903V30.2199H103.631L107.475 39.3056V30.2199H110.901V49.0903H108.1L104.256 39.3056V49.0903H100.714Z" fill="white"/>
<path d="M115.382 49.0903V33.3184H112.558V30.2199H122.352V33.3184H119.55V49.0903H115.382Z" fill="white"/>
<path d="M124.003 49.0903V30.2199H132.43V33.0621H128.147V37.7448H131.412V40.6336H128.147V46.2714H132.477V49.0903H124.003Z" fill="white"/>
<path d="M134.358 49.0903V30.2199H139.521C140.787 30.2199 141.883 30.3597 142.809 30.6392C143.735 30.9188 144.453 31.4235 144.962 32.1535C145.487 32.8679 145.75 33.8852 145.75 35.2054C145.75 35.982 145.688 36.6731 145.564 37.2788C145.441 37.8845 145.209 38.4126 144.87 38.863C144.546 39.2979 144.075 39.6629 143.458 39.958L146.028 49.0903H141.744L139.684 40.6336H138.503V49.0903H134.358ZM138.503 38.234H139.66C140.247 38.234 140.702 38.133 141.026 37.9311C141.351 37.7137 141.574 37.4108 141.698 37.0226C141.837 36.6187 141.906 36.1373 141.906 35.5781C141.906 34.7705 141.76 34.1415 141.466 33.6911C141.173 33.2407 140.633 33.0155 139.846 33.0155H138.503V38.234Z" fill="white"/>
<path d="M148.241 49.0903V30.2199H151.159L155.002 39.3056V30.2199H158.429V49.0903H155.627L151.784 39.3056V49.0903H148.241Z" fill="white"/>
<path d="M160.317 49.0903L163.859 30.2199H168.582L172.079 49.0903H168.258L167.633 45.1066H164.878L164.23 49.0903H160.317ZM165.248 42.6138H167.239L166.244 35.252L165.248 42.6138Z" fill="white"/>
<path d="M174.667 49.0903V33.3184H171.843V30.2199H181.636V33.3184H178.835V49.0903H174.667Z" fill="white"/>
<path d="M183.311 49.0903V30.2199H187.455V49.0903H183.311Z" fill="white"/>
<path d="M195.623 49.3699C194.219 49.3699 193.107 49.1214 192.289 48.6244C191.471 48.1274 190.884 47.413 190.529 46.4811C190.174 45.5492 189.997 44.4387 189.997 43.1496V36.1373C189.997 34.8326 190.174 33.7222 190.529 32.8058C190.884 31.8895 191.471 31.1906 192.289 30.7091C193.107 30.2121 194.219 29.9636 195.623 29.9636C197.043 29.9636 198.162 30.2121 198.98 30.7091C199.814 31.1906 200.408 31.8895 200.763 32.8058C201.118 33.7222 201.296 34.8326 201.296 36.1373V43.1496C201.296 44.4387 201.118 45.5492 200.763 46.4811C200.408 47.413 199.814 48.1274 198.98 48.6244C198.162 49.1214 197.043 49.3699 195.623 49.3699ZM195.623 46.4112C196.055 46.4112 196.372 46.3025 196.572 46.085C196.773 45.8676 196.904 45.588 196.966 45.2463C197.028 44.9047 197.059 44.5552 197.059 44.198V35.1122C197.059 34.7395 197.028 34.39 196.966 34.0639C196.904 33.7222 196.773 33.4426 196.572 33.2252C196.372 33.0077 196.055 32.899 195.623 32.899C195.222 32.899 194.921 33.0077 194.72 33.2252C194.52 33.4426 194.388 33.7222 194.327 34.0639C194.265 34.39 194.234 34.7395 194.234 35.1122V44.198C194.234 44.5552 194.257 44.9047 194.303 45.2463C194.365 45.588 194.489 45.8676 194.674 46.085C194.875 46.3025 195.191 46.4112 195.623 46.4112Z" fill="white"/>
<path d="M203.818 49.0903V30.2199H206.735L210.579 39.3056V30.2199H214.005V49.0903H211.204L207.36 39.3056V49.0903H203.818Z" fill="white"/>
<path d="M215.893 49.0903L219.436 30.2199H224.159L227.655 49.0903H223.835L223.21 45.1066H220.455L219.806 49.0903H215.893ZM220.825 42.6138H222.816L221.821 35.252L220.825 42.6138Z" fill="white"/>
<path d="M229.549 49.0903V30.2199H233.693V46.2714H238V49.0903H229.549Z" fill="white"/>
<path d="M98.7277 72.6667C97.5546 72.6667 96.5745 72.4571 95.7872 72.0377C95 71.6184 94.4058 70.9738 94.0045 70.1041C93.6031 69.2188 93.3793 68.0773 93.333 66.6795L96.8754 66.1436C96.8909 66.9512 96.9603 67.6036 97.0838 68.1006C97.2227 68.5976 97.408 68.9548 97.6395 69.1722C97.8865 69.3897 98.1797 69.4984 98.5193 69.4984C98.9515 69.4984 99.2294 69.3508 99.3528 69.0557C99.4918 68.7606 99.5612 68.45 99.5612 68.1239C99.5612 67.3473 99.376 66.695 99.0055 66.1669C98.6351 65.6233 98.1334 65.0797 97.5006 64.5361L95.8799 63.115C95.1698 62.5093 94.5678 61.8259 94.0739 61.0649C93.5954 60.2883 93.3562 59.3332 93.3562 58.1994C93.3562 56.5997 93.8269 55.3805 94.7685 54.5418C95.7101 53.6876 96.9912 53.2605 98.6119 53.2605C99.6152 53.2605 100.418 53.4313 101.02 53.773C101.637 54.1147 102.1 54.5651 102.409 55.1242C102.733 55.6678 102.949 56.2502 103.057 56.8715C103.181 57.4772 103.25 58.0596 103.266 58.6187L99.7001 59.0614C99.6847 58.5023 99.6461 58.0208 99.5844 57.617C99.5381 57.1976 99.43 56.8792 99.2602 56.6618C99.0904 56.4288 98.828 56.3123 98.473 56.3123C98.0871 56.3123 97.8016 56.4754 97.6164 56.8016C97.4466 57.1277 97.3617 57.4539 97.3617 57.7801C97.3617 58.479 97.5237 59.0536 97.8479 59.504C98.1875 59.9389 98.6274 60.3971 99.1676 60.8785L100.719 62.2531C101.537 62.952 102.224 63.744 102.78 64.6293C103.351 65.5146 103.636 66.6096 103.636 67.9142C103.636 68.7995 103.436 69.6071 103.034 70.3371C102.633 71.0515 102.062 71.6184 101.321 72.0377C100.595 72.4571 99.731 72.6667 98.7277 72.6667Z" fill="white"/>
<path d="M105.643 72.3872V53.5167H114.071V56.3589H109.787V61.0416H113.052V63.9304H109.787V69.5683H114.117V72.3872H105.643Z" fill="white"/>
<path d="M115.999 72.3872V53.5167H121.162C122.427 53.5167 123.523 53.6565 124.449 53.9361C125.376 54.2156 126.093 54.7204 126.603 55.4504C127.128 56.1648 127.39 57.1821 127.39 58.5023C127.39 59.2788 127.328 59.97 127.205 60.5757C127.081 61.1814 126.85 61.7095 126.51 62.1599C126.186 62.5947 125.715 62.9597 125.098 63.2548L127.668 72.3872H123.384L121.324 63.9304H120.143V72.3872H115.999ZM120.143 61.5308H121.301C121.887 61.5308 122.343 61.4299 122.667 61.228C122.991 61.0106 123.215 60.7077 123.338 60.3194C123.477 59.9156 123.546 59.4341 123.546 58.875C123.546 58.0674 123.4 57.4384 123.107 56.988C122.813 56.5376 122.273 56.3123 121.486 56.3123H120.143V61.5308Z" fill="white"/>
<path d="M132.224 72.3872L128.843 53.5167H132.386L134.4 66.33L136.276 53.5167H140.026L136.6 72.3872H132.224Z" fill="white"/>
<path d="M141.933 72.3872V53.5167H146.078V72.3872H141.933Z" fill="white"/>
<path d="M154.246 72.6667C152.826 72.6667 151.699 72.4105 150.865 71.8979C150.047 71.3699 149.469 70.6399 149.129 69.708C148.789 68.7606 148.62 67.6502 148.62 66.3766V59.5739C148.62 58.2693 148.789 57.151 149.129 56.2192C149.469 55.2718 150.047 54.5418 150.865 54.0293C151.699 53.5167 152.826 53.2605 154.246 53.2605C155.635 53.2605 156.716 53.4934 157.487 53.9594C158.274 54.4098 158.83 55.0466 159.154 55.8697C159.478 56.6929 159.641 57.6403 159.641 58.7119V60.3427H155.589V58.4557C155.589 58.0829 155.566 57.7257 155.519 57.384C155.488 57.0423 155.38 56.7628 155.195 56.5453C155.01 56.3124 154.693 56.1959 154.246 56.1959C153.814 56.1959 153.49 56.3124 153.273 56.5453C153.073 56.7783 152.942 57.0734 152.88 57.4306C152.833 57.7723 152.81 58.1373 152.81 58.5256V67.4017C152.81 67.821 152.841 68.2093 152.903 68.5665C152.98 68.9082 153.119 69.1877 153.32 69.4052C153.536 69.6071 153.845 69.708 154.246 69.708C154.678 69.708 154.987 69.5993 155.172 69.3819C155.357 69.1489 155.473 68.8538 155.519 68.4966C155.566 68.1394 155.589 67.7744 155.589 67.4017V65.4214H159.641V67.0522C159.641 68.1239 159.478 69.0868 159.154 69.941C158.846 70.7797 158.298 71.4475 157.51 71.9445C156.739 72.426 155.65 72.6667 154.246 72.6667Z" fill="white"/>
<path d="M161.921 72.3872V53.5167H170.348V56.3589H166.065V61.0416H169.33V63.9304H166.065V69.5683H170.395V72.3872H161.921Z" fill="white"/>
<path d="M53.3855 49.2426V48.981C53.3839 47.9831 53.1679 46.9971 52.7521 46.09C53.1803 46.2896 53.6287 46.4427 54.0896 46.5469C55.5247 46.8719 57.0276 46.7013 58.3533 46.063C57.9192 46.9784 57.6923 47.9782 57.6888 48.9913V49.2696C57.6931 50.2281 57.9056 51.1741 58.3118 52.0422C57.4408 51.6368 56.4917 51.4267 55.5309 51.4267C54.5702 51.4267 53.621 51.6368 52.75 52.0422C53.1646 51.167 53.3816 50.2112 53.3855 49.2426Z" fill="white"/>
<path d="M30.8165 20.2146C30.9307 20.6088 31.0079 21.0128 31.047 21.4213C31.5593 20.6878 32.2247 20.0741 32.9972 19.6227L33.5662 19.2946C34.3597 18.8409 35.243 18.5665 36.154 18.4908C35.8587 18.2818 35.5808 18.0491 35.3232 17.7951C34.2325 16.7142 33.5563 15.2844 33.4125 13.7556C32.8701 14.5046 32.1759 15.1309 31.3751 15.5936L30.9203 15.8532C30.1137 16.3186 29.2175 16.6074 28.291 16.7006C29.5038 17.5548 30.3935 18.7928 30.8165 20.2146Z" fill="white"/>
<path d="M46.4967 52.578C45.7273 53.9818 44.5255 55.0999 43.0699 55.7661C41.6143 56.4323 39.9826 56.6111 38.4173 56.2759C36.852 55.9407 35.4366 55.1093 34.3816 53.9054C33.3265 52.7015 32.688 51.1894 32.561 49.5936C32.5067 48.829 32.2671 48.0891 31.863 47.4378C31.4588 46.7865 30.9022 46.2433 30.2411 45.8553H30.2287C29.693 45.5491 29.1011 45.3541 28.4883 45.2821C29.643 44.3916 30.4709 43.1445 30.8434 41.7348C30.9146 41.4616 30.9681 41.1841 31.0033 40.9041C31.375 41.3944 31.8411 41.8054 32.3741 42.1128L32.4156 42.1356C33.0761 42.5118 33.818 42.7222 34.5776 42.7486C35.3373 42.775 36.092 42.6167 36.777 42.2872C38.1971 41.6106 39.7951 41.4017 41.3415 41.6905C42.8878 41.9793 44.3027 42.751 45.3828 43.8946C46.4629 45.0381 47.1526 46.4948 47.3528 48.055C47.5529 49.6153 47.2532 51.1988 46.4967 52.578ZM42.4966 46.4908C42.0001 45.9923 41.3669 45.6523 40.6771 45.5138C39.9873 45.3752 39.2719 45.4442 38.6213 45.7122C37.9708 45.9802 37.4143 46.435 37.0222 47.0192C36.6301 47.6034 36.4201 48.2908 36.4187 48.9944C36.4172 49.6979 36.6244 50.3861 37.0141 50.972C37.4037 51.5578 37.9583 52.0149 38.6078 52.2856C39.2572 52.5562 39.9723 52.6282 40.6627 52.4925C41.353 52.3568 41.9876 52.0194 42.4863 51.523C43.1542 50.857 43.5303 49.9529 43.5319 49.0096C43.5334 48.0664 43.1603 47.1611 42.4946 46.4929L42.4966 46.4908Z" fill="white"/>
<path d="M28.5605 35.9799C29.3571 36.7898 29.8972 37.8167 30.1131 38.932C30.3291 40.0473 30.2113 41.2015 29.7746 42.2502C29.3379 43.2989 28.6016 44.1956 27.6578 44.828C26.7141 45.4604 25.6048 45.8004 24.4688 45.8055C23.3328 45.8107 22.2205 45.4807 21.2711 44.8568C20.3217 44.233 19.5773 43.3431 19.1311 42.2983C18.6849 41.2536 18.5568 40.1005 18.7626 38.9833C18.9685 37.866 19.4992 36.8343 20.2885 36.0172C21.5675 34.712 22.2879 32.9599 22.2968 31.1325V30.8542C22.2806 29.0698 21.569 27.362 20.3134 26.0941C19.5232 25.2778 18.9912 24.2466 18.7839 23.1296C18.5766 22.0125 18.7032 20.8592 19.1479 19.8137C19.5927 18.7683 20.3357 17.8771 21.2842 17.2518C22.2327 16.6264 23.3445 16.2945 24.4806 16.2976C25.6167 16.3008 26.7267 16.6388 27.6717 17.2694C28.6168 17.9 29.3549 18.7952 29.7938 19.8431C30.2328 20.891 30.3531 22.045 30.1396 23.1609C29.9262 24.2768 29.3885 25.305 28.5938 26.1169C27.331 27.3835 26.6152 29.0948 26.6 30.8833V31.145C26.5948 32.9512 27.2988 34.6873 28.5605 35.9799ZM25.2085 24.8666C25.7611 24.7203 26.2578 24.4134 26.6359 23.9846C27.0139 23.5559 27.2563 23.0247 27.3323 22.4581C27.4083 21.8916 27.3146 21.3152 27.0629 20.802C26.8112 20.2888 26.413 19.8618 25.9185 19.575C25.424 19.2882 24.8556 19.1545 24.2852 19.1909C23.7147 19.2273 23.1679 19.4321 22.7139 19.7794C22.2599 20.1267 21.9191 20.6009 21.7347 21.1419C21.5502 21.683 21.5305 22.2666 21.6779 22.8189C21.8752 23.5582 22.3577 24.189 23.0197 24.573C23.6816 24.9569 24.4688 25.0625 25.2085 24.8666ZM25.1815 37.2447C24.6291 37.0985 24.0458 37.1194 23.5052 37.3048C22.9647 37.4902 22.4913 37.8317 22.1449 38.2861C21.7985 38.7406 21.5946 39.2875 21.5591 39.8579C21.5236 40.4282 21.658 40.9962 21.9454 41.4901C22.2327 41.9841 22.6601 42.3817 23.1734 42.6327C23.6868 42.8837 24.263 42.9768 24.8293 42.9003C25.3956 42.8238 25.9264 42.5811 26.3547 42.2028C26.783 41.8246 27.0896 41.3278 27.2355 40.7753C27.4312 40.0347 27.3247 39.2468 26.9395 38.5847C26.5543 37.9226 25.922 37.4406 25.1815 37.2447Z" fill="white"/>
<path d="M61.173 23.3527C60.8907 24.6069 60.1981 25.7312 59.2049 26.5475C58.2117 27.3639 56.9746 27.8256 55.6894 27.8597C54.4042 27.8938 53.1444 27.4983 52.1093 26.7357C51.0742 25.9732 50.323 24.8872 49.9746 23.6497C49.474 21.8856 48.3049 20.3864 46.716 19.471L46.662 19.4399C45.0902 18.5192 43.2196 18.2529 41.4533 18.6985C40.3557 18.9841 39.1983 18.9404 38.1254 18.5726C37.0526 18.2048 36.1117 17.5293 35.4203 16.6303C34.7288 15.7314 34.3173 14.6487 34.2371 13.5174C34.1569 12.3861 34.4116 11.2562 34.9693 10.2687C35.527 9.28113 36.3632 8.47966 37.3734 7.96421C38.3837 7.44876 39.5233 7.24216 40.6502 7.37016C41.7771 7.49816 42.8414 7.9551 43.7103 8.684C44.5792 9.41289 45.2143 10.3815 45.5364 11.4689C46.0427 13.252 47.2163 14.7715 48.8136 15.7119L48.8718 15.7452C50.4836 16.6568 52.3841 16.9141 54.1802 16.4638C55.1348 16.2353 56.1318 16.2537 57.0772 16.5172C58.0227 16.7807 58.8855 17.2806 59.5843 17.9699C60.2831 18.6591 60.7949 19.5149 61.0713 20.4567C61.3478 21.3984 61.38 22.3951 61.1647 23.3527H61.173ZM42.0348 11.0619C41.6308 10.6578 41.116 10.3826 40.5556 10.2711C39.9952 10.1596 39.4143 10.2168 38.8864 10.4354C38.3585 10.6541 37.9073 11.0243 37.5899 11.4994C37.2724 11.9745 37.103 12.5331 37.103 13.1045C37.103 13.6759 37.2724 14.2344 37.5899 14.7095C37.9073 15.1846 38.3585 15.5549 38.8864 15.7735C39.4143 15.9921 39.9952 16.0493 40.5556 15.9378C41.116 15.8263 41.6308 15.5511 42.0348 15.147C42.5765 14.6053 42.8808 13.8706 42.8808 13.1045C42.8808 12.3384 42.5765 11.6036 42.0348 11.0619ZM56.282 19.2904C55.7298 19.1426 55.1461 19.162 54.6049 19.346C54.0636 19.5301 53.5892 19.8707 53.2416 20.3245C52.894 20.7784 52.6889 21.3252 52.6522 21.8957C52.6155 22.4662 52.7489 23.0347 53.0355 23.5294C53.3221 24.024 53.7491 24.4225 54.2622 24.6744C54.7754 24.9263 55.3518 25.0203 55.9184 24.9444C56.485 24.8686 57.0164 24.6263 57.4453 24.2483C57.8742 23.8703 58.1813 23.3736 58.3277 22.821C58.523 22.0819 58.4174 21.2954 58.0339 20.634C57.6505 19.9726 57.0205 19.4902 56.282 19.2924V19.2904Z" fill="white"/>
<path d="M61.0655 41.7911C60.6866 43.0225 59.907 44.0919 58.8506 44.8295C57.7941 45.567 56.5215 45.9302 55.2349 45.8615C53.9484 45.7927 52.7217 45.2959 51.7498 44.4501C50.778 43.6042 50.1168 42.4577 49.8713 41.1929C49.7458 40.5328 49.4801 39.9074 49.092 39.3588C48.704 38.8102 48.2027 38.3514 47.6221 38.0133L47.5805 37.9904C46.92 37.6142 46.1781 37.4039 45.4185 37.3775C44.6588 37.3511 43.9041 37.5094 43.2191 37.8388C41.7861 38.5211 40.1724 38.7271 38.6138 38.4268C37.0553 38.1265 35.6337 37.3357 34.5567 36.1698C33.4797 35.0039 32.8039 33.5241 32.6279 31.9467C32.4519 30.3693 32.7851 28.777 33.5786 27.4024C34.3722 26.0279 35.5846 24.9431 37.0386 24.3068C38.4926 23.6704 40.112 23.5157 41.6602 23.8654C43.2084 24.2151 44.6042 25.0507 45.6436 26.2502C46.683 27.4498 47.3115 28.9503 47.4372 30.5325C47.4915 31.2971 47.7311 32.037 48.1352 32.6883C48.5394 33.3396 49.096 33.8827 49.7571 34.2708H49.7695C50.3585 34.6054 51.0124 34.8096 51.6872 34.8694C52.3619 34.9293 53.0416 34.8434 53.6802 34.6176C54.6885 34.2715 55.773 34.2111 56.8135 34.4431C57.854 34.6752 58.81 35.1905 59.5758 35.9322C60.3415 36.6739 60.8872 37.613 61.1523 38.6455C61.4174 39.6781 61.3917 40.7639 61.078 41.7828L61.0655 41.7911ZM42.5338 28.6134C42.0372 28.115 41.404 27.775 40.7142 27.6364C40.0244 27.4978 39.309 27.5669 38.6584 27.8348C38.0079 28.1028 37.4514 28.5577 37.0593 29.1419C36.6673 29.7261 36.4572 30.4134 36.4558 31.117C36.4543 31.8206 36.6615 32.5088 37.0512 33.0946C37.4408 33.6805 37.9954 34.1376 38.6449 34.4083C39.2943 34.6789 40.0094 34.7509 40.6998 34.6152C41.3901 34.4794 42.0248 34.142 42.5234 33.6457C42.8546 33.316 43.1175 32.9243 43.2973 32.4929C43.4771 32.0616 43.5701 31.599 43.5711 31.1317C43.572 30.6644 43.4809 30.2015 43.3029 29.7694C43.1249 29.3373 42.8636 28.9445 42.5338 28.6134ZM56.2804 37.2988C55.728 37.1526 55.1447 37.1736 54.6042 37.3589C54.0637 37.5443 53.5903 37.8858 53.2438 38.3403C52.8974 38.7947 52.6936 39.3417 52.6581 39.912C52.6225 40.4823 52.757 41.0504 53.0443 41.5443C53.3316 42.0382 53.759 42.4358 54.2724 42.6869C54.7857 42.9379 55.3619 43.031 55.9282 42.9545C56.4945 42.878 57.0254 42.6352 57.4537 42.257C57.882 41.8787 58.1885 41.382 58.3344 40.8295C58.5301 40.0889 58.4236 39.301 58.0384 38.6389C57.6533 37.9768 57.0209 37.4948 56.2804 37.2988Z" fill="white"/>
<path d="M57.2146 63.5751C56.1555 63.9015 55.0247 63.9152 53.9581 63.6146C53.1386 63.3925 52.2831 63.3365 51.4417 63.4499C50.6003 63.5634 49.7901 63.8439 49.0588 64.275L48.6123 64.5325C47.8735 64.9506 47.2258 65.512 46.7073 66.184C46.1887 66.8559 45.8097 67.6248 45.5925 68.4453C45.3097 69.5553 44.7033 70.5562 43.8503 71.3208C42.9974 72.0854 41.9365 72.5793 40.8023 72.7396C39.6681 72.8999 38.5118 72.7195 37.4804 72.2212C36.4489 71.7229 35.5889 70.9293 35.0095 69.9412C34.4301 68.9531 34.1575 67.815 34.2263 66.6716C34.2951 65.5282 34.7022 64.4311 35.3959 63.5195C36.0896 62.608 37.0386 61.9233 38.1223 61.5523C39.2061 61.1813 40.3756 61.1408 41.4824 61.436C43.1417 61.8964 44.9159 61.679 46.4149 60.8316L46.984 60.5035C47.7113 60.0754 48.3468 59.5077 48.8536 58.8329C49.3605 58.1582 49.7288 57.3897 49.9373 56.572C50.1945 55.5986 50.7015 54.7092 51.4082 53.9922C52.115 53.2751 52.9968 52.7551 53.9664 52.4838C54.9359 52.2125 55.9596 52.1992 56.9358 52.4453C57.9121 52.6914 58.8071 53.1884 59.5321 53.8869C60.2572 54.5855 60.7871 55.4613 61.0694 56.4278C61.3517 57.3942 61.3766 58.4176 61.1416 59.3966C60.9066 60.3756 60.4198 61.2762 59.7295 62.0091C59.0392 62.742 58.1694 63.2819 57.2063 63.5751H57.2146ZM42.0307 64.9728C41.6267 64.5688 41.112 64.2936 40.5516 64.1821C39.9911 64.0706 39.4103 64.1277 38.8824 64.3464C38.3544 64.565 37.9032 64.9353 37.5858 65.4104C37.2683 65.8855 37.0989 66.444 37.0989 67.0154C37.0989 67.5868 37.2683 68.1454 37.5858 68.6205C37.9032 69.0955 38.3544 69.4658 38.8824 69.6845C39.4103 69.9031 39.9911 69.9603 40.5516 69.8488C41.112 69.7373 41.6267 69.4621 42.0307 69.058C42.5721 68.516 42.876 67.7811 42.8756 67.015C42.8752 66.2489 42.5706 65.5143 42.0286 64.9728H42.0307ZM58.3132 57.3072C58.1669 56.7546 57.86 56.2579 57.4312 55.8798C57.0025 55.5018 56.4713 55.2594 55.9047 55.1834C55.3382 55.1074 54.7618 55.2011 54.2486 55.4528C53.7354 55.7045 53.3084 56.1027 53.0216 56.5972C52.7348 57.0917 52.6011 57.6601 52.6375 58.2305C52.6739 58.801 52.8787 59.3478 53.226 59.8018C53.5733 60.2558 54.0475 60.5966 54.5885 60.781C55.1296 60.9654 55.7132 60.9852 56.2654 60.8378C57.0044 60.6401 57.6347 60.1573 58.0182 59.4954C58.4017 58.8336 58.5071 58.0466 58.3111 57.3072H58.3132Z" fill="white"/>
<path d="M36.193 61.602C35.8759 61.823 35.5785 62.071 35.3042 62.3434C34.1952 63.4469 33.5175 64.9106 33.3935 66.4701C32.8129 65.6286 32.0542 64.9252 31.1712 64.4099L31.1131 64.3767C29.4993 63.4641 27.5962 63.2075 25.7984 63.6601C24.6965 63.9249 23.5411 63.8597 22.476 63.4728C21.4109 63.0859 20.483 62.3943 19.808 61.4841C19.1329 60.5739 18.7404 59.4852 18.6793 58.3537C18.6182 57.2221 18.8912 56.0975 19.4644 55.1199C20.0376 54.1423 20.8855 53.3549 21.9028 52.8555C22.9201 52.3562 24.0618 52.1671 25.1858 52.3116C26.3097 52.4562 27.3664 52.9281 28.2242 53.6686C29.082 54.4091 29.7031 55.3855 30.0103 56.4763C30.5108 58.2404 31.6799 59.7396 33.2688 60.6549L33.3228 60.6861C34.2031 61.1931 35.1818 61.5054 36.193 61.602ZM25.1857 55.251C24.6335 55.1032 24.0498 55.1226 23.5086 55.3067C22.9674 55.4908 22.4929 55.8313 22.1454 56.2852C21.7978 56.739 21.5926 57.2858 21.556 57.8563C21.5193 58.4268 21.6527 58.9953 21.9393 59.49C22.2259 59.9846 22.6528 60.3831 23.166 60.635C23.6792 60.8869 24.2556 60.9809 24.8222 60.905C25.3888 60.8292 25.9202 60.5869 26.349 60.209C26.7779 59.831 27.085 59.3342 27.2314 58.7816C27.4277 58.0436 27.3238 57.2579 26.9424 56.5963C26.561 55.9346 25.9332 55.451 25.1961 55.251H25.1857Z" fill="white"/>
<defs>
<linearGradient id="paint0_linear_25_87" x1="0" y1="0" x2="80" y2="80" gradientUnits="userSpaceOnUse">
<stop stop-color="#0671C1"/>
<stop offset="0.315655" stop-color="#0094FF"/>
<stop offset="0.490711" stop-color="#4E9CFB"/>
<stop offset="1" stop-color="#7750A9"/>
</linearGradient>
</defs>
</svg>
