<svg width="418" height="338" viewBox="0 0 418 338" fill="none" xmlns="http://www.w3.org/2000/svg">
<path d="M327.662 89.4002C327.674 89.9336 327.569 90.4632 327.355 90.9518C327.141 91.4405 326.823 91.8765 326.423 92.2295C315.258 103.397 304.09 114.558 292.917 125.713C291.277 127.343 289.912 127.312 288.237 125.677C285.243 122.752 282.281 119.788 279.35 116.785C277.63 115.016 277.643 113.745 279.426 111.953C290.468 100.876 301.521 89.8089 312.586 78.7525C314.073 77.2616 315.582 77.0235 317.423 78.0385C321.525 80.2641 324.88 83.6489 327.069 87.7701C327.313 88.2956 327.511 88.8409 327.662 89.4002Z" fill="url(#paint0_linear_26_353)"/>
<path d="M276.524 119.022C277.18 118.995 277.422 119.408 277.741 119.709C280.283 122.233 282.789 124.797 285.376 127.285C286.162 128.044 286.099 128.515 285.353 129.252C279.093 135.464 272.86 141.691 266.653 147.934C265.85 148.742 265.463 148.693 264.857 147.696C262.94 144.552 260.483 141.858 257.223 140.039C256.298 139.522 256.383 139.051 257.088 138.35C263.333 132.141 269.565 125.917 275.783 119.677C276.03 119.412 276.327 119.192 276.524 119.022Z" fill="url(#paint1_linear_26_353)"/>
<path d="M247.479 145.203C248.195 144.723 248.884 144.201 249.54 143.641C252.302 140.874 252.984 140.838 256.312 143.165C258.597 144.718 260.542 146.719 262.029 149.048C264.005 152.191 263.937 152.483 261.378 155.151C260.866 155.685 260.479 156.327 259.747 157.279C257.592 151.109 253.802 147.292 247.479 145.203Z" fill="url(#paint2_linear_26_353)"/>
<path d="M332 83.6882C331.997 84.213 331.835 84.7245 331.535 85.1551C331.235 85.5857 330.811 85.9151 330.32 86.0998C329.557 86.4051 329.422 85.3229 329.112 84.8154C326.828 81.2158 323.786 78.1583 320.198 75.8562C319.708 75.5418 318.37 75.6092 319.008 74.482C319.457 73.6826 320.202 72.8518 321.33 73.0225C321.989 73.143 322.624 73.3738 323.207 73.7051C326.657 75.5202 329.475 78.3386 331.29 81.7886C331.577 82.402 331.814 83.0372 332 83.6882Z" fill="url(#paint3_linear_26_353)"/>
<path fill-rule="evenodd" clip-rule="evenodd" d="M252.994 151.996C250.484 149.496 247.087 148.091 243.544 148.086C236.103 148.1 230.027 154.046 230 161.339C229.999 164.923 231.407 168.363 233.92 170.919C236.433 173.474 239.849 174.94 243.432 175C250.761 175.099 256.945 168.874 256.945 161.429C256.925 157.886 255.505 154.495 252.994 151.996ZM245.471 156.504C244.805 156.251 244.094 156.137 243.382 156.17C242.673 156.179 241.973 156.329 241.323 156.612C240.673 156.895 240.085 157.304 239.595 157.816C239.105 158.328 238.721 158.933 238.467 159.595C238.213 160.257 238.093 160.963 238.115 161.671C238.18 163.061 238.769 164.374 239.763 165.347C240.756 166.32 242.082 166.881 243.472 166.916C244.9 166.894 246.263 166.311 247.264 165.292C248.266 164.274 248.827 162.902 248.825 161.474C248.839 160.761 248.707 160.054 248.437 159.395C248.167 158.735 247.764 158.139 247.254 157.642C246.744 157.144 246.137 156.757 245.471 156.504Z" fill="url(#paint4_linear_26_353)"/>
<path fill-rule="evenodd" clip-rule="evenodd" d="M302.036 78.4508C302.035 78.2948 302.034 78.1418 302.024 78.0027C302.024 74.7738 300.448 73.0044 297.875 73.0358C296.817 73.0756 295.818 73.5325 295.096 74.3067C294.374 75.0809 293.988 76.1093 294.022 77.1674C294.08 79.5071 295.872 80.9486 298.607 80.9756C298.772 80.9776 298.953 80.9687 299.137 80.9596C300.2 80.9074 301.38 80.8495 300.331 82.8438C299.927 83.6117 300.399 84.3033 301.014 84.8063C301.665 85.3376 302.015 84.9233 302.352 84.5246C302.446 84.4144 302.538 84.3055 302.635 84.218C303.56 83.3512 304.458 82.4486 305.329 81.5235C305.402 81.4466 305.49 81.3722 305.579 81.2966C305.938 80.9922 306.321 80.6673 305.828 80.0774C305.338 79.4936 304.723 78.7751 303.951 79.2601C302.05 80.4591 302.043 79.3975 302.036 78.4508ZM300.066 77.1137C300.066 75.8562 299.469 75.003 297.969 74.9805C297.697 74.9704 297.425 75.0186 297.173 75.1217C296.92 75.2249 296.693 75.3807 296.505 75.5787C296.318 75.7768 296.175 76.0125 296.086 76.2703C295.997 76.528 295.964 76.8017 295.989 77.0732C295.998 78.3442 296.766 79.1256 298.113 79.0627C299.321 79.0043 300.066 78.3711 300.066 77.1137Z" fill="url(#paint5_linear_26_353)"/>
<path fill-rule="evenodd" clip-rule="evenodd" d="M282.811 97.7153C282.808 97.5554 282.806 97.3982 282.794 97.255C282.801 97.1594 282.808 97.0779 282.814 97.0072C282.834 96.7789 282.843 96.6631 282.83 96.55C282.825 94.107 281.15 92.2253 278.95 92.1804C277.854 92.1836 276.803 92.6145 276.02 93.3811C275.238 94.1478 274.786 95.1898 274.76 96.285C274.755 98.4631 276.628 100.197 279.044 100.197C279.416 100.174 279.79 100.174 280.162 100.197C280.253 100.209 280.345 100.22 280.436 100.23C281.318 100.333 282.163 100.432 281.191 101.831C280.67 102.586 281.056 103.421 281.788 103.987C282.546 104.563 282.921 104.088 283.277 103.637C283.378 103.508 283.478 103.381 283.584 103.282C284.473 102.491 285.304 101.625 286.122 100.758C286.191 100.684 286.273 100.612 286.357 100.538C286.715 100.223 287.1 99.8847 286.634 99.2984C286.153 98.6876 285.461 98.0634 284.734 98.5125C282.845 99.6991 282.827 98.6593 282.811 97.7153ZM278.748 98.3103C280.059 98.3597 280.719 97.5199 280.993 96.2895C280.813 95.1892 280.333 94.2865 279.084 94.2237C277.836 94.1608 276.893 94.6862 276.839 96.0649C276.794 97.3178 277.436 98.2609 278.748 98.3103Z" fill="url(#paint6_linear_26_353)"/>
<path d="M378.995 0H151.958C130.858 0 113.689 17.16 113.689 38.2514V79.7727C113.689 83.3114 116.554 86.1756 120.092 86.1756C123.631 86.1756 126.495 83.3114 126.495 79.7727V38.2514C126.495 24.2204 137.918 12.806 151.958 12.806H378.995C393.047 12.806 404.479 24.2204 404.479 38.2514V194.523C404.479 208.554 393.047 219.968 378.995 219.968H293.925C293.818 219.968 293.716 219.994 293.609 219.998C293.502 219.994 293.404 219.968 293.293 219.968H237.63C234.095 219.968 231.227 222.837 231.227 226.371V292.514H170.108C166.57 292.514 163.705 295.383 163.705 298.917C163.705 302.451 166.57 305.32 170.108 305.32H237.634H293.297H360.879C364.413 305.32 367.282 302.451 367.282 298.917C367.282 295.383 364.413 292.514 360.879 292.514H299.7V232.774H378.995C400.108 232.774 417.285 215.614 417.285 194.523V38.2514C417.285 17.16 400.108 0 378.995 0ZM244.037 292.514V232.774H286.894V292.514H244.037Z" fill="url(#paint7_linear_26_353)"/>
<path d="M132.809 276.088C156.653 276.088 180.4 266.287 197.427 247.091C229.011 211.469 225.741 156.8 190.132 125.221C154.515 93.65 99.8502 96.924 68.2707 132.516C38.1297 166.516 39.8159 217.821 70.9856 249.887L60.489 261.733L58.0644 259.585C55.4221 257.246 51.3967 257.485 49.0532 260.106L1.63272 313.059C0.497261 314.327 -0.0875445 315.991 0.0106346 317.686C0.104545 319.381 0.868634 320.977 2.13643 322.104L17.0468 335.427C18.2677 336.519 19.7916 337.057 21.3112 337.057C23.0699 337.057 24.8201 336.336 26.0836 334.923L73.5511 281.885C74.6865 280.617 75.2713 278.948 75.1731 277.245C75.075 275.546 74.2981 273.954 73.026 272.823L70.0849 270.219L80.5559 258.403C96.0298 270.219 114.436 276.088 132.809 276.088ZM20.8075 321.618L15.4461 316.828L53.8939 273.903C54.2311 274.97 54.8287 275.973 55.7294 276.767C56.8393 277.749 58.201 278.218 59.5755 278.304L20.8075 321.618ZM77.8539 141.015C92.3588 124.666 112.575 116.325 132.89 116.325C150.242 116.325 167.662 122.416 181.638 134.8C211.962 161.692 214.75 208.255 187.849 238.592C160.956 268.912 114.389 271.7 84.0605 244.799C53.7445 217.911 50.9613 171.352 77.8539 141.015Z" fill="url(#paint8_linear_26_353)"/>
<path d="M265.961 59.7442C270.181 59.7442 273.602 56.3232 273.602 52.1033C273.602 47.8833 270.181 44.4624 265.961 44.4624C261.741 44.4624 258.32 47.8833 258.32 52.1033C258.32 56.3232 261.741 59.7442 265.961 59.7442Z" fill="url(#paint9_linear_26_353)"/>
<defs>
<linearGradient id="paint0_linear_26_353" x1="326.01" y1="69.866" x2="264.162" y2="108.953" gradientUnits="userSpaceOnUse">
<stop offset="0.145833" stop-color="#4E9CFB"/>
<stop offset="0.458333" stop-color="#DA7FDC"/>
<stop offset="0.723958" stop-color="#989AFA"/>
</linearGradient>
<linearGradient id="paint1_linear_26_353" x1="284.959" y1="114.521" x2="248.202" y2="137.646" gradientUnits="userSpaceOnUse">
<stop offset="0.145833" stop-color="#4E9CFB"/>
<stop offset="0.458333" stop-color="#DA7FDC"/>
<stop offset="0.723958" stop-color="#989AFA"/>
</linearGradient>
<linearGradient id="paint2_linear_26_353" x1="262.884" y1="139.077" x2="243.091" y2="151.678" gradientUnits="userSpaceOnUse">
<stop offset="0.145833" stop-color="#4E9CFB"/>
<stop offset="0.458333" stop-color="#DA7FDC"/>
<stop offset="0.723958" stop-color="#989AFA"/>
</linearGradient>
<linearGradient id="paint3_linear_26_353" x1="331.561" y1="70.9922" x2="315.135" y2="81.3603" gradientUnits="userSpaceOnUse">
<stop offset="0.145833" stop-color="#4E9CFB"/>
<stop offset="0.458333" stop-color="#DA7FDC"/>
<stop offset="0.723958" stop-color="#989AFA"/>
</linearGradient>
<linearGradient id="paint4_linear_26_353" x1="256.047" y1="143.978" x2="222.427" y2="165.21" gradientUnits="userSpaceOnUse">
<stop offset="0.145833" stop-color="#4E9CFB"/>
<stop offset="0.458333" stop-color="#DA7FDC"/>
<stop offset="0.723958" stop-color="#989AFA"/>
</linearGradient>
<linearGradient id="paint5_linear_26_353" x1="305.661" y1="71.2001" x2="290.639" y2="80.6918" gradientUnits="userSpaceOnUse">
<stop offset="0.145833" stop-color="#4E9CFB"/>
<stop offset="0.458333" stop-color="#DA7FDC"/>
<stop offset="0.723958" stop-color="#989AFA"/>
</linearGradient>
<linearGradient id="paint6_linear_26_353" x1="286.446" y1="90.3376" x2="271.364" y2="99.8645" gradientUnits="userSpaceOnUse">
<stop offset="0.145833" stop-color="#4E9CFB"/>
<stop offset="0.458333" stop-color="#DA7FDC"/>
<stop offset="0.723958" stop-color="#989AFA"/>
</linearGradient>
<linearGradient id="paint7_linear_26_353" x1="407.165" y1="-46.6076" x2="26.8974" y2="191.92" gradientUnits="userSpaceOnUse">
<stop offset="0.145833" stop-color="#4E9CFB"/>
<stop offset="0.458333" stop-color="#DA7FDC"/>
<stop offset="0.723958" stop-color="#989AFA"/>
</linearGradient>
<linearGradient id="paint8_linear_26_353" x1="211.828" y1="67.8778" x2="-71.4007" y2="235.53" gradientUnits="userSpaceOnUse">
<stop offset="0.145833" stop-color="#4E9CFB"/>
<stop offset="0.458333" stop-color="#DA7FDC"/>
<stop offset="0.723958" stop-color="#989AFA"/>
</linearGradient>
<linearGradient id="paint9_linear_26_353" x1="273.093" y1="42.1296" x2="254.013" y2="54.1656" gradientUnits="userSpaceOnUse">
<stop offset="0.145833" stop-color="#4E9CFB"/>
<stop offset="0.458333" stop-color="#DA7FDC"/>
<stop offset="0.723958" stop-color="#989AFA"/>
</linearGradient>
</defs>
</svg>
