<svg width="32" height="25" viewBox="0 0 32 25" fill="none" xmlns="http://www.w3.org/2000/svg">
<g clip-path="url(#clip0_25_167)">
<path d="M30.721 6.16231C30.721 6.06205 30.4203 3.85682 29.468 2.80431C28.3153 1.55134 27.0623 1.40098 26.4108 1.35082H26.2103C22.1506 1.0501 16.0861 1 15.9859 1C15.9358 1 9.82115 1.0501 5.81155 1.45108H5.66119C4.95944 1.50118 3.70646 1.65154 2.60385 2.90451C1.60144 3.95702 1.30072 6.21241 1.30072 6.31267C1.30072 6.31267 1 8.86878 1 11.4249V13.7805C1 16.2865 1.30072 18.8426 1.30072 18.8927C1.30072 18.993 1.60144 21.1982 2.55369 22.2507C3.60621 23.4536 4.85918 23.604 5.66113 23.7042C5.81149 23.7042 5.91175 23.7042 6.06211 23.7543C8.3676 23.9548 15.6851 24.055 15.9858 24.055C16.0359 24.055 22.1505 24.055 26.2102 23.604H26.3606C27.0623 23.5539 28.3153 23.4035 29.4179 22.1505C30.4203 21.098 30.721 18.8426 30.721 18.7423C30.721 18.7423 31.0217 16.1862 31.0217 13.6301V11.2745C31.0217 8.76852 30.721 6.21241 30.721 6.16231ZM30.0193 13.7304C30.0193 16.2364 29.7186 18.7423 29.7186 18.7423C29.6183 19.2937 29.3176 20.8974 28.6661 21.5991C27.814 22.6016 26.8117 22.7018 26.2603 22.7519H26.11C22.1004 23.0526 16.0359 23.0526 15.9858 23.0526C15.9357 23.0526 8.41776 22.9524 6.21247 22.7018C6.06211 22.7018 5.91175 22.6517 5.76139 22.6517C5.0597 22.6016 4.05734 22.4513 3.25539 21.5491C2.65395 20.8976 2.30313 19.2937 2.25297 18.7424C2.25297 18.6923 1.95226 16.1863 1.95226 13.7304V11.3748C1.95226 8.86878 2.25297 6.36283 2.25297 6.36283C2.30307 5.81149 2.65395 4.2077 3.25539 3.50601C4.15754 2.50359 5.1098 2.40333 5.71123 2.35323H5.86159C9.87119 2.05251 15.9357 2.00241 15.9858 2.00241C16.0359 2.00241 22.1004 2.05251 26.1099 2.35323H26.3104C26.8617 2.40333 27.8641 2.50359 28.7161 3.50601C29.3176 4.2077 29.6183 5.81149 29.7185 6.36283C29.7686 6.46309 30.0193 8.96904 30.0193 11.3748V13.7304Z" fill="white" stroke="white" stroke-width="0.5"/>
<path d="M22.2511 12.5774L12.7284 7.01416C12.578 6.9139 12.3776 6.9139 12.2272 7.01416C12.0768 7.11442 11.9766 7.26478 11.9766 7.46524V18.3412C11.9766 18.5417 12.0768 18.692 12.2272 18.7923C12.3275 18.8424 12.3776 18.8424 12.4778 18.8424C12.5781 18.8424 12.6282 18.8424 12.7284 18.7923L22.2512 13.4796C22.4015 13.3793 22.5018 13.229 22.5018 13.0285C22.5018 12.8281 22.4015 12.6776 22.2511 12.5774ZM12.979 17.4891V8.31723L20.9981 13.0285L12.979 17.4891Z" fill="white" stroke="white" stroke-width="0.5"/>
</g>
<defs>
<clipPath id="clip0_25_167">
<rect width="32" height="25" fill="white"/>
</clipPath>
</defs>
</svg>
